<svg width="234" height="178" viewBox="0 0 234 178" fill="none" xmlns="http://www.w3.org/2000/svg" xmlns:xlink="http://www.w3.org/1999/xlink">
<path d="M60.054,146.571L60.054,84.643L-0.054,84.643L-0.054,146.571L60.054,146.571ZM84.643,60.054L234,60.054L234,-0.054L84.643,-0.054L84.643,60.054ZM60.054,84.643C60.054,71.063 71.063,60.054 84.643,60.054L84.643,-0.054C37.866,-0.054 -0.054,37.866 -0.054,84.643L60.054,84.643Z" fill="#FF5E5E"/>
<path d="M91.018,177.536L91.018,166.607L30.911,166.607L30.911,177.536L91.018,177.536ZM115.607,142.018L204.857,142.018L204.857,81.911L115.607,81.911L115.607,142.018ZM91.018,166.607C91.018,153.027 102.027,142.018 115.607,142.018L115.607,81.911C68.831,81.911 30.911,119.831 30.911,166.607L91.018,166.607Z" transform="rotate(360 132.911 144.75)" fill="#FF5E5E"/>
</svg>
