<svg width="292" height="304" viewBox="0 0 292 304" fill="none" xmlns="http://www.w3.org/2000/svg" xmlns:xlink="http://www.w3.org/1999/xlink">
<path d="M120.454,248.485L40.118,101.619C20.278,65.35 52.685,22.693 92.945,32.082L219.713,61.644C248.172,68.281 264.08,98.66 253.326,125.831L206.893,243.133C191.979,280.813 139.901,284.035 120.454,248.485Z" transform="rotate(38.756 145.412 152.064)" fill="url(#pf_0_19_299)"/>
<path d="M95.897,261.912L15.56,115.046C-15.892,57.547 35.485,-10.081 99.312,4.804L226.079,34.367C271.197,44.888 296.417,93.051 279.367,136.127L232.935,253.43C209.291,313.164 126.728,318.274 95.897,261.912ZM40.125,101.609L120.462,248.474C139.909,284.026 191.987,280.802 206.901,243.124L253.333,125.822C264.087,98.651 248.179,68.272 219.721,61.635L92.953,32.072C52.693,22.683 20.286,65.341 40.125,101.609Z" clip-rule="evenodd" fill-rule="evenodd" transform="rotate(38.756 145.388 152.036)" fill="#FFFFFF" fill-opacity="0.8"/>
<defs>
<linearGradient id="pf_0_19_299" x1="302.193" y1="67.685" x2="11.725" y2="228.29" gradientUnits="userSpaceOnUse">
<stop stop-color="#A855EE"/>
<stop offset="1" stop-color="#334BC9"/>
</linearGradient>
</defs>
</svg>
