<svg width="256" height="268" viewBox="0 0 256 268" fill="none" xmlns="http://www.w3.org/2000/svg" xmlns:xlink="http://www.w3.org/1999/xlink">
<g opacity="0.7">
<path d="M0.67,224.538L0.67,95.91C0.67,76.116 17.556,60.531 37.287,62.114L224.654,77.15C242.27,78.564 255.846,93.273 255.846,110.946L255.846,181.718C255.846,197.533 244.912,211.247 229.496,214.771L42.128,257.59C20.901,262.442 0.67,246.311 0.67,224.538Z" fill="#20E083"/>
</g>
<g opacity="0.8" style="isolation:isolate">
<path d="M109.903,184.264L46.839,47.363C34.842,21.319 58.581,-6.932 86.302,0.399L194.925,29.126C214.847,34.395 225.501,56.072 217.503,75.064L171.944,183.238C160.503,210.404 122.236,211.036 109.903,184.264Z" fill="#4B5E7F"/>
</g>
</svg>
