<svg width="362" height="344" viewBox="0 0 362 344" fill="none" xmlns="http://www.w3.org/2000/svg" xmlns:xlink="http://www.w3.org/1999/xlink">
<g opacity="0.78">
<path d="M33.322,294.543L9.372,114.059C4.945,80.701 35.435,53.321 68.127,61.298L317.996,122.266C338.658,127.308 353.51,145.387 354.444,166.634L358.264,253.535C359.346,278.133 341.578,299.533 317.202,302.993L87.462,335.609C61.139,339.345 36.82,320.899 33.322,294.543Z" fill="url(#pf_0_19_214)"/>
</g>
<g opacity="0.8" style="isolation:isolate">
<path d="M154.356,218.613L74.019,71.748C54.18,35.48 86.587,-7.178 126.846,2.211L253.614,31.774C282.074,38.411 297.982,68.79 287.226,95.961L240.794,213.263C225.88,250.941 173.803,254.165 154.356,218.613Z" transform="rotate(38.756 165.171 142.985)" fill="url(#pf_0_19_215)" stroke="#FFFFFF" stroke-width="8.465" stroke-miterlimit="3.999327"/>
</g>
<defs>
<linearGradient id="pf_0_19_214" x1="478.676" y1="168.161" x2="-112.444" y2="337.455" gradientUnits="userSpaceOnUse">
<stop stop-color="#B060E2"/>
<stop offset="1" stop-color="#FCA256"/>
</linearGradient>
<linearGradient id="pf_0_19_215" x1="142.259" y1="-143.986" x2="177.888" y2="456.28" gradientUnits="userSpaceOnUse">
<stop stop-color="#929BFD"/>
<stop offset="1" stop-color="#575D97"/>
</linearGradient>
</defs>
</svg>
