<svg width="350" height="348" viewBox="0 0 350 348" fill="none" xmlns="http://www.w3.org/2000/svg" xmlns:xlink="http://www.w3.org/1999/xlink">
<path d="M59.185,71.298C71.89,74.398 81.513,84.792 83.627,97.699L104.226,223.476C113.093,277.621 181.056,296.899 217.032,255.475L299.754,160.223L299.754,160.223C310.41,147.955 328.11,138.39 337.258,151.821C342.14,158.99 345.1,167.52 345.502,176.634L349.322,263.535C350.404,288.133 332.636,309.533 308.258,312.993L78.52,345.609C52.197,349.345 27.878,330.899 24.38,304.543L0.43,124.059C-3.997,90.701 26.493,63.321 59.185,71.298L59.185,71.298Z" fill="url(#pf_0_19_334)"/>
<g style="isolation:isolate">
<path d="M121.875,220.74L94.819,55.539C88.138,14.743 132.863,-14.745 167.727,7.47L277.504,77.42C302.148,93.123 307.076,127.06 287.914,149.123L205.192,244.374C178.621,274.97 128.424,260.73 121.875,220.74Z" fill="url(#pf_0_19_335)"/>
</g>
<defs>
<linearGradient id="pf_0_19_334" x1="588" y1="346" x2="-45" y2="193" gradientUnits="userSpaceOnUse">
<stop stop-color="#A94EE1"/>
<stop offset="1" stop-color="#FCA256"/>
</linearGradient>
<linearGradient id="pf_0_19_335" x1="112.643" y1="-77.681" x2="271" y2="348" gradientUnits="userSpaceOnUse">
<stop stop-color="#7BD8FD"/>
<stop offset="1" stop-color="#5869DF"/>
</linearGradient>
</defs>
</svg>
