<svg width="2114" height="358" viewBox="0 0 2114 358" fill="none" xmlns="http://www.w3.org/2000/svg" xmlns:xlink="http://www.w3.org/1999/xlink">
<path d="M188.083,263.336L18,203L18,356L2058,356L2058,2L1870.908,78.006L1708.828,101.953L1540.746,56.141L1349.652,42.606L1154.558,126.941L952.458,78.006L734.352,220.648L536.254,252L366.17,194.618L188.083,263.336Z" fill="url(#pf_0_83_964)"/>
<path d="M18.669,201.115C17.628,200.746 16.484,201.29 16.115,202.332C15.746,203.372 16.29,204.516 17.331,204.884L18.669,201.115ZM188.083,263.336L187.415,265.22C187.865,265.38 188.358,265.374 188.803,265.202L188.083,263.336ZM366.17,194.618L366.81,192.723C366.368,192.573 365.886,192.584 365.45,192.752L366.17,194.618ZM536.254,252L535.614,253.896C535.92,253.998 536.248,254.026 536.566,253.976L536.254,252ZM734.352,220.648L734.664,222.622C734.942,222.578 735.21,222.476 735.446,222.32L734.352,220.648ZM952.458,78.006L952.928,76.062C952.392,75.932 951.826,76.03 951.364,76.332L952.458,78.006ZM1154.558,126.941L1154.086,128.885C1154.508,128.987 1154.952,128.949 1155.35,128.777L1154.558,126.941ZM1349.652,42.606L1349.794,40.611C1349.474,40.588 1349.154,40.643 1348.86,40.77L1349.652,42.606ZM1540.746,56.141L1541.272,54.212C1541.146,54.177 1541.018,54.155 1540.888,54.146L1540.746,56.141ZM1708.828,101.953L1708.302,103.883C1708.57,103.955 1708.848,103.972 1709.122,103.931L1708.828,101.953ZM1870.908,78.006L1871.2,79.984C1871.358,79.961 1871.514,79.919 1871.662,79.859L1870.908,78.006ZM2058.76,3.853C2059.78,3.437 2060.26,2.271 2059.86,1.247C2059.44,0.224 2058.28,-0.269 2057.24,0.147L2058.76,3.853ZM17.331,204.884L187.415,265.22L188.752,261.45L18.669,201.115L17.331,204.884ZM188.803,265.202L366.89,196.484L365.45,192.752L187.363,261.47L188.803,265.202ZM365.532,196.513L535.614,253.896L536.894,250.104L366.81,192.723L365.532,196.513ZM536.566,253.976L734.664,222.622L734.038,218.672L535.942,250.024L536.566,253.976ZM735.446,222.32L953.552,79.68L951.364,76.332L733.256,218.974L735.446,222.32ZM951.988,79.95L1154.086,128.885L1155.028,124.997L952.928,76.062L951.988,79.95ZM1155.35,128.777L1350.446,44.442L1348.86,40.77L1153.764,125.105L1155.35,128.777ZM1349.512,44.601L1540.606,58.136L1540.888,54.146L1349.794,40.611L1349.512,44.601ZM1540.22,58.071L1708.302,103.883L1709.354,100.023L1541.272,54.212L1540.22,58.071ZM1709.122,103.931L1871.2,79.984L1870.616,76.027L1708.536,99.974L1709.122,103.931ZM1871.662,79.859L2058.76,3.853L2057.24,0.147L1870.156,76.153L1871.662,79.859Z" fill="#61B8FF"/>
<g opacity="0.2">
<line x1="0" y1="69" x2="2114" y2="69" stroke="#535C68" stroke-width="1" stroke-miterlimit="3.999327" stroke-dasharray="4 4 "/>
</g>
<g opacity="0.2">
<line x1="0" y1="167" x2="2114" y2="167" stroke="#535C68" stroke-width="1" stroke-miterlimit="3.999327" stroke-dasharray="4 4 "/>
</g>
<g opacity="0.2">
<line x1="0" y1="265" x2="2114" y2="265.001" stroke="#535C68" stroke-width="1" stroke-miterlimit="3.999327" stroke-dasharray="4 4 "/>
</g>
<defs>
<linearGradient id="pf_0_83_964" x1="1038" y1="2" x2="1038" y2="356" gradientUnits="userSpaceOnUse">
<stop stop-color="#61B8FF" stop-opacity="0.2"/>
<stop offset="1" stop-color="#61B8FF" stop-opacity="0"/>
</linearGradient>
</defs>
</svg>
