<svg width="236" height="168" viewBox="0 0 236 168" fill="none" xmlns="http://www.w3.org/2000/svg" xmlns:xlink="http://www.w3.org/1999/xlink">
<path d="M67.086,134.974L67.086,79.81L0.914,79.81L0.914,134.974L67.086,134.974ZM81.577,65.319L236,65.319L236,-0.853L81.577,-0.853L81.577,65.319ZM67.086,79.81C67.086,71.807 73.574,65.319 81.577,65.319L81.577,-0.853C37.028,-0.853 0.914,35.261 0.914,79.81L67.086,79.81Z" fill="#FF5E5E"/>
<path d="M100.173,166.319L100.173,158.172L34.001,158.172L34.001,166.319L100.173,166.319ZM114.664,143.681L202.915,143.681L202.915,77.509L114.664,77.509L114.664,143.681ZM100.173,158.172C100.173,150.169 106.661,143.681 114.664,143.681L114.664,77.509C70.115,77.509 34.001,113.623 34.001,158.172L100.173,158.172Z" transform="rotate(360 135.001 138.457)" fill="#FF5E5E"/>
</svg>
