<svg width="638" height="650" viewBox="0 0 638 650" fill="none" xmlns="http://www.w3.org/2000/svg" xmlns:xlink="http://www.w3.org/1999/xlink">
<g opacity="0.5" style="isolation:isolate">
<path d="M420.388,620.112L420.306,620.112C416.864,620.112 413.844,621.478 411.328,623.44C410.844,623.824 410.238,624.048 409.804,624.482C407.39,626.91 405.996,630.228 405.694,633.85C405.662,634.254 405.46,634.608 405.46,635.024C405.46,636.864 405.896,638.584 406.512,640.204C406.714,640.73 406.966,641.184 407.218,641.68C407.764,642.742 408.42,643.724 409.208,644.624C409.592,645.07 409.934,645.524 410.37,645.92C411.56,647.002 412.874,647.952 414.368,648.61L414.378,648.61C416.226,649.43 418.246,649.926 420.388,649.926C427.022,649.926 432.446,645.514 434.376,639.496C434.89,638.12 435.244,636.682 435.254,635.104C435.254,635.074 435.274,635.054 435.274,635.024C435.274,626.778 428.608,620.112 420.388,620.112M628.638,442.356C627.194,441.75 625.588,441.516 623.942,441.406C623.65,441.396 623.418,441.234 623.114,441.234L623.034,441.234C614.812,441.234 608.188,447.908 608.188,456.15C608.188,458.152 608.612,460.044 609.328,461.764C609.834,462.996 610.662,463.988 611.44,465.03C611.762,465.424 611.944,465.91 612.288,466.274C614.762,468.902 618.176,470.52 621.994,470.824C622.014,470.824 622.034,470.834 622.054,470.844L622.054,470.834C622.418,470.864 622.74,471.046 623.114,471.046C631.334,471.046 638,464.372 638,456.15C638,449.88 634.112,444.56 628.638,442.356M116.29,178.878L116.21,178.878C107.989,178.878 101.364,185.553 101.364,193.785C101.364,202.006 108.069,208.692 116.29,208.692C124.501,208.692 131.177,202.006 131.177,193.785C131.177,185.553 124.501,178.878 116.29,178.878M116.29,530.672L116.21,530.672C107.989,530.672 101.364,537.34 101.364,545.584C101.364,553.81 108.069,560.486 116.29,560.486C124.501,560.486 131.177,553.81 131.177,545.584C131.177,537.34 124.501,530.672 116.29,530.672M217.654,298.13C225.874,298.13 232.54,291.446 232.54,283.224C232.54,274.982 225.874,268.318 217.654,268.318L217.582,268.318C209.352,268.318 202.726,274.982 202.726,283.224C202.726,291.446 209.432,298.13 217.654,298.13M116.29,89.439L116.21,89.439C107.989,89.439 101.364,96.114 101.364,104.346C101.364,112.578 108.069,119.252 116.29,119.252C124.501,119.252 131.177,112.578 131.177,104.346C131.177,96.114 124.501,89.439 116.29,89.439M116.29,351.794L116.21,351.794C107.989,351.794 101.364,358.468 101.364,366.7C101.364,374.932 108.069,381.608 116.29,381.608C124.501,381.608 131.177,374.932 131.177,366.7C131.177,358.468 124.501,351.794 116.29,351.794M116.29,441.234L116.21,441.234C107.989,441.234 101.364,447.908 101.364,456.15C101.364,464.372 108.069,471.046 116.29,471.046C124.501,471.046 131.177,464.372 131.177,456.15C131.177,447.908 124.501,441.234 116.29,441.234M217.654,119.252C225.874,119.252 232.54,112.578 232.54,104.346C232.54,96.114 225.874,89.439 217.654,89.439L217.582,89.439C209.352,89.439 202.726,96.114 202.726,104.346C202.726,112.578 209.432,119.252 217.654,119.252M217.654,208.692C225.874,208.692 232.54,202.006 232.54,193.785C232.54,185.553 225.874,178.878 217.654,178.878L217.582,178.878C209.352,178.878 202.726,185.553 202.726,193.785C202.726,202.006 209.432,208.692 217.654,208.692M217.654,29.813C225.874,29.813 232.54,23.139 232.54,14.907C232.54,6.675 225.874,0 217.654,0L217.582,0C209.352,0 202.726,6.675 202.726,14.907C202.726,23.139 209.432,29.813 217.654,29.813M116.29,268.318L116.21,268.318C107.989,268.318 101.364,274.982 101.364,283.224C101.364,291.446 108.069,298.13 116.29,298.13C124.501,298.13 131.177,291.446 131.177,283.224C131.177,274.982 124.501,268.318 116.29,268.318M14.937,351.794L14.846,351.794C6.625,351.794 0,358.468 0,366.7C0,374.932 6.716,381.608 14.937,381.608C23.158,381.608 29.813,374.932 29.813,366.7C29.813,358.468 23.158,351.794 14.937,351.794M14.937,268.318L14.846,268.318C6.625,268.318 0,274.982 0,283.224C0,291.446 6.716,298.13 14.937,298.13C23.158,298.13 29.813,291.446 29.813,283.224C29.813,274.982 23.158,268.318 14.937,268.318M14.932,441.234L14.841,441.234C12.972,441.234 11.224,441.658 9.598,442.306C8.769,442.62 8.082,443.124 7.335,443.58C6.708,443.974 6.072,444.328 5.506,444.824C4.526,445.622 3.758,446.554 3.011,447.584C2.869,447.796 2.728,447.99 2.586,448.222C1.778,449.476 1.182,450.79 0.778,452.266L0.768,452.278L0.768,452.288C0.424,453.542 0,454.774 0,456.15C0,462.016 3.485,466.982 8.426,469.408L8.426,469.418L8.436,469.418C10.406,470.38 12.527,471.016 14.851,471.026C14.881,471.026 14.901,471.046 14.932,471.046C23.155,471.046 29.813,464.372 29.813,456.15C29.813,454.088 29.399,452.126 28.641,450.346C26.388,444.996 21.094,441.234 14.932,441.234M521.748,268.318L521.666,268.318C513.446,268.318 506.82,274.982 506.82,283.224C506.82,291.446 513.526,298.13 521.748,298.13C529.968,298.13 536.634,291.446 536.634,283.224C536.634,274.982 529.968,268.318 521.748,268.318M14.932,178.878L14.841,178.878C13.144,178.878 11.578,179.253 10.103,179.839C8.759,180.304 7.587,181.002 6.456,181.811C6.446,181.811 6.446,181.811 6.435,181.821L6.435,181.821C2.627,184.521 0,188.749 0,193.785C0,194.422 0.283,194.958 0.364,195.585L0.354,195.585C0.354,195.605 0.364,195.615 0.374,195.626C0.839,199.256 2.465,202.462 5.061,204.788C5.415,205.112 5.86,205.294 6.233,205.576C7.254,206.326 8.234,207.104 9.436,207.58C11.123,208.276 12.962,208.692 14.932,208.692C21.094,208.692 26.388,204.94 28.641,199.58C29.399,197.8 29.813,195.838 29.813,193.785C29.813,191.732 29.399,189.77 28.641,187.99C26.388,182.63 21.094,178.878 14.932,178.878M521.748,351.794L521.666,351.794C513.446,351.794 506.82,358.468 506.82,366.7C506.82,374.932 513.526,381.608 521.748,381.608C529.968,381.608 536.634,374.932 536.634,366.7C536.634,358.468 529.968,351.794 521.748,351.794M521.748,178.878L521.666,178.878C513.446,178.878 506.82,185.553 506.82,193.785C506.82,202.006 513.526,208.692 521.748,208.692C529.968,208.692 536.634,202.006 536.634,193.785C536.634,185.553 529.968,178.878 521.748,178.878M521.748,530.672L521.666,530.672C513.446,530.672 506.82,537.34 506.82,545.584C506.82,553.81 513.526,560.486 521.748,560.486C529.968,560.486 536.634,553.81 536.634,545.584C536.634,537.34 529.968,530.672 521.748,530.672M521.748,441.234L521.666,441.234C513.446,441.234 506.82,447.908 506.82,456.15C506.82,464.372 513.526,471.046 521.748,471.046C529.968,471.046 536.634,464.372 536.634,456.15C536.634,447.908 529.968,441.234 521.748,441.234M420.392,29.813C428.61,29.813 435.274,23.139 435.274,14.907C435.274,14.907 435.264,14.896 435.264,14.886C435.264,12.469 434.558,10.275 433.528,8.252C433.426,8.06 433.296,7.918 433.184,7.736C432.104,5.825 430.63,4.237 428.842,2.963L428.842,2.963L428.832,2.963C426.4,1.234 423.594,0 420.392,0L420.312,0C412.094,0 405.46,6.675 405.46,14.907C405.46,23.139 412.174,29.813 420.392,29.813M521.748,89.439L521.666,89.439C513.446,89.439 506.82,96.114 506.82,104.346C506.82,112.578 513.526,119.252 521.748,119.252C529.968,119.252 536.634,112.578 536.634,104.346C536.634,96.114 529.968,89.439 521.748,89.439M420.388,178.878L420.306,178.878C412.086,178.878 405.46,185.553 405.46,193.785C405.46,202.006 412.166,208.692 420.388,208.692C428.608,208.692 435.274,202.006 435.274,193.785C435.274,185.553 428.608,178.878 420.388,178.878M420.388,441.234L420.306,441.234C412.086,441.234 405.46,447.908 405.46,456.15C405.46,464.372 412.166,471.046 420.388,471.046C428.608,471.046 435.274,464.372 435.274,456.15C435.274,447.908 428.608,441.234 420.388,441.234M420.388,351.794L420.306,351.794C412.086,351.794 405.46,358.468 405.46,366.7C405.46,374.932 412.166,381.608 420.388,381.608C428.608,381.608 435.274,374.932 435.274,366.7C435.274,358.468 428.608,351.794 420.388,351.794M420.388,268.318L420.306,268.318C412.086,268.318 405.46,274.982 405.46,283.224C405.46,291.446 412.166,298.13 420.388,298.13C428.608,298.13 435.274,291.446 435.274,283.224C435.274,274.982 428.608,268.318 420.388,268.318M420.388,530.672L420.306,530.672C412.086,530.672 405.46,537.34 405.46,545.584C405.46,553.81 412.166,560.486 420.388,560.486C428.608,560.486 435.274,553.81 435.274,545.584C435.274,537.34 428.608,530.672 420.388,530.672M217.654,381.608C225.874,381.608 232.54,374.932 232.54,366.7C232.54,358.468 225.874,351.794 217.654,351.794L217.582,351.794C209.352,351.794 202.726,358.468 202.726,366.7C202.726,374.932 209.432,381.608 217.654,381.608M228.176,624.482C227.732,624.038 227.126,623.814 226.632,623.44C224.116,621.478 221.098,620.112 217.654,620.112L217.572,620.112C209.352,620.112 202.726,626.778 202.726,635.024C202.726,639.07 204.372,642.712 206.998,645.404C207.008,645.414 207.008,645.424 207.018,645.424C209.726,648.196 213.482,649.926 217.654,649.926C218.442,649.926 219.118,649.602 219.876,649.48L219.876,649.48C219.886,649.48 219.896,649.47 219.906,649.47C223.42,648.924 226.49,647.304 228.722,644.746C229.086,644.352 229.298,643.866 229.61,643.43C230.288,642.47 231.004,641.558 231.448,640.456C232.116,638.808 232.51,637.006 232.52,635.084C232.52,635.064 232.54,635.054 232.54,635.024C232.54,631.24 231.014,627.882 228.702,625.252C228.49,625.008 228.398,624.694 228.176,624.482M617.31,207.518C619.098,208.276 621.058,208.692 623.12,208.692C625.292,208.692 627.322,208.176 629.18,207.336C629.242,207.306 629.282,207.256 629.342,207.226C631.16,206.376 632.726,205.184 634.05,203.708C636.454,201.068 638,197.632 638,193.79C638,185.561 631.332,178.878 623.12,178.878L623.038,178.878C614.814,178.878 608.188,185.561 608.188,193.79C608.188,199.957 611.956,205.254 617.31,207.518M623.12,298.13C631.332,298.13 638,291.446 638,283.224C638,274.982 631.332,268.318 623.12,268.318L623.038,268.318C614.814,268.318 608.188,274.982 608.188,283.224C608.188,291.446 614.886,298.13 623.12,298.13M623.12,381.608C631.332,381.608 638,374.932 638,366.7C638,358.468 631.332,351.794 623.12,351.794L623.038,351.794C614.814,351.794 608.188,358.468 608.188,366.7C608.188,374.932 614.886,381.608 623.12,381.608M319.02,178.878L318.95,178.878C310.728,178.878 304.094,185.553 304.094,193.785C304.094,202.006 310.8,208.692 319.02,208.692C327.242,208.692 333.906,202.006 333.906,193.785C333.906,185.553 327.242,178.878 319.02,178.878M319.02,89.439L318.95,89.439C310.728,89.439 304.094,96.114 304.094,104.346C304.094,112.578 310.8,119.252 319.02,119.252C327.242,119.252 333.906,112.578 333.906,104.346C333.906,96.114 327.242,89.439 319.02,89.439M319.02,0L318.95,0C310.728,0 304.094,6.675 304.094,14.907C304.094,23.139 310.8,29.813 319.02,29.813C327.242,29.813 333.906,23.139 333.906,14.907C333.906,6.675 327.242,0 319.02,0M217.654,560.486C225.874,560.486 232.54,553.81 232.54,545.584C232.54,537.34 225.874,530.672 217.654,530.672L217.582,530.672C209.352,530.672 202.726,537.34 202.726,545.584C202.726,553.81 209.432,560.486 217.654,560.486M217.654,471.046C225.874,471.046 232.54,464.372 232.54,456.15C232.54,447.908 225.874,441.234 217.654,441.234L217.582,441.234C209.352,441.234 202.726,447.908 202.726,456.15C202.726,464.372 209.432,471.046 217.654,471.046M319.02,268.318L318.95,268.318C310.728,268.318 304.094,274.982 304.094,283.224C304.094,291.446 310.8,298.13 319.02,298.13C327.242,298.13 333.906,291.446 333.906,283.224C333.906,274.982 327.242,268.318 319.02,268.318M420.388,89.439L420.306,89.439C412.086,89.439 405.46,96.114 405.46,104.346C405.46,112.578 412.166,119.252 420.388,119.252C428.608,119.252 435.274,112.578 435.274,104.346C435.274,96.114 428.608,89.439 420.388,89.439M319.02,530.672L318.95,530.672C310.728,530.672 304.094,537.34 304.094,545.584C304.094,553.81 310.8,560.486 319.02,560.486C327.242,560.486 333.906,553.81 333.906,545.584C333.906,537.34 327.242,530.672 319.02,530.672M319.02,620.112L318.95,620.112C310.728,620.112 304.094,626.79 304.094,635.024C304.094,643.258 310.8,649.926 319.02,649.926C327.242,649.926 333.906,643.258 333.906,635.024C333.906,626.79 327.242,620.112 319.02,620.112M319.02,441.234L318.95,441.234C310.728,441.234 304.094,447.908 304.094,456.15C304.094,464.372 310.8,471.046 319.02,471.046C327.242,471.046 333.906,464.372 333.906,456.15C333.906,447.908 327.242,441.234 319.02,441.234M319.02,351.794L318.95,351.794C310.728,351.794 304.094,358.468 304.094,366.7C304.094,374.932 310.8,381.608 319.02,381.608C327.242,381.608 333.906,374.932 333.906,366.7C333.906,358.468 327.242,351.794 319.02,351.794Z" clip-rule="evenodd" fill-rule="evenodd" fill="#545454" fill-opacity="0.45"/>
</g>
</svg>
