<svg width="640" height="650" viewBox="0 0 640 650" fill="none" xmlns="http://www.w3.org/2000/svg" xmlns:xlink="http://www.w3.org/1999/xlink">
<g opacity="0.5" style="isolation:isolate">
<path d="M420.882,620.112L420.8,620.112C417.358,620.112 414.338,621.478 411.822,623.44C411.338,623.824 410.732,624.048 410.298,624.482C407.884,626.91 406.49,630.228 406.188,633.85C406.156,634.254 405.954,634.608 405.954,635.024C405.954,636.864 406.39,638.584 407.006,640.204C407.208,640.73 407.46,641.184 407.712,641.68C408.258,642.742 408.914,643.724 409.702,644.624C410.086,645.07 410.428,645.524 410.864,645.92C412.054,647.002 413.368,647.952 414.862,648.61L414.872,648.61C416.72,649.43 418.74,649.926 420.882,649.926C427.516,649.926 432.94,645.514 434.87,639.496C435.384,638.12 435.738,636.682 435.748,635.104C435.748,635.074 435.768,635.054 435.768,635.024C435.768,626.778 429.102,620.112 420.882,620.112M629.134,442.356C627.69,441.75 626.084,441.516 624.438,441.406C624.146,441.396 623.914,441.234 623.61,441.234L623.53,441.234C615.308,441.234 608.684,447.908 608.684,456.15C608.684,458.152 609.108,460.044 609.824,461.764C610.33,462.996 611.158,463.988 611.936,465.03C612.258,465.424 612.44,465.91 612.784,466.274C615.258,468.902 618.672,470.52 622.49,470.824C622.51,470.824 622.53,470.834 622.55,470.844L622.55,470.834C622.914,470.864 623.236,471.046 623.61,471.046C631.83,471.046 638.496,464.372 638.496,456.15C638.496,449.88 634.608,444.56 629.134,442.356M116.786,178.878L116.706,178.878C108.485,178.878 101.86,185.553 101.86,193.785C101.86,202.006 108.565,208.692 116.786,208.692C124.997,208.692 131.673,202.006 131.673,193.785C131.673,185.553 124.997,178.878 116.786,178.878M116.786,530.672L116.706,530.672C108.485,530.672 101.86,537.34 101.86,545.584C101.86,553.81 108.565,560.486 116.786,560.486C124.997,560.486 131.673,553.81 131.673,545.584C131.673,537.34 124.997,530.672 116.786,530.672M218.152,298.13C226.372,298.13 233.038,291.446 233.038,283.224C233.038,274.982 226.372,268.318 218.152,268.318L218.08,268.318C209.85,268.318 203.224,274.982 203.224,283.224C203.224,291.446 209.93,298.13 218.152,298.13M116.786,89.439L116.706,89.439C108.485,89.439 101.86,96.114 101.86,104.346C101.86,112.578 108.565,119.252 116.786,119.252C124.997,119.252 131.673,112.578 131.673,104.346C131.673,96.114 124.997,89.439 116.786,89.439M116.786,351.794L116.706,351.794C108.485,351.794 101.86,358.468 101.86,366.7C101.86,374.932 108.565,381.608 116.786,381.608C124.997,381.608 131.673,374.932 131.673,366.7C131.673,358.468 124.997,351.794 116.786,351.794M116.786,441.234L116.706,441.234C108.485,441.234 101.86,447.908 101.86,456.15C101.86,464.372 108.565,471.046 116.786,471.046C124.997,471.046 131.673,464.372 131.673,456.15C131.673,447.908 124.997,441.234 116.786,441.234M218.152,119.252C226.372,119.252 233.038,112.578 233.038,104.346C233.038,96.114 226.372,89.439 218.152,89.439L218.08,89.439C209.85,89.439 203.224,96.114 203.224,104.346C203.224,112.578 209.93,119.252 218.152,119.252M218.152,208.692C226.372,208.692 233.038,202.006 233.038,193.785C233.038,185.553 226.372,178.878 218.152,178.878L218.08,178.878C209.85,178.878 203.224,185.553 203.224,193.785C203.224,202.006 209.93,208.692 218.152,208.692M218.152,29.813C226.372,29.813 233.038,23.139 233.038,14.907C233.038,6.675 226.372,0 218.152,0L218.08,0C209.85,0 203.224,6.675 203.224,14.907C203.224,23.139 209.93,29.813 218.152,29.813M116.786,268.318L116.706,268.318C108.485,268.318 101.86,274.982 101.86,283.224C101.86,291.446 108.565,298.13 116.786,298.13C124.997,298.13 131.673,291.446 131.673,283.224C131.673,274.982 124.997,268.318 116.786,268.318M15.433,351.794L15.342,351.794C7.121,351.794 0.496,358.468 0.496,366.7C0.496,374.932 7.212,381.608 15.433,381.608C23.654,381.608 30.309,374.932 30.309,366.7C30.309,358.468 23.654,351.794 15.433,351.794M15.433,268.318L15.342,268.318C7.121,268.318 0.496,274.982 0.496,283.224C0.496,291.446 7.212,298.13 15.433,298.13C23.654,298.13 30.309,291.446 30.309,283.224C30.309,274.982 23.654,268.318 15.433,268.318M15.428,441.234L15.337,441.234C13.468,441.234 11.72,441.658 10.094,442.306C9.265,442.62 8.578,443.124 7.831,443.58C7.204,443.974 6.568,444.328 6.002,444.824C5.022,445.622 4.254,446.554 3.507,447.584C3.365,447.796 3.224,447.99 3.082,448.222C2.274,449.476 1.678,450.79 1.274,452.266L1.264,452.278L1.264,452.288C0.92,453.542 0.496,454.774 0.496,456.15C0.496,462.016 3.982,466.982 8.922,469.408L8.922,469.418L8.932,469.418C10.902,470.38 13.023,471.016 15.347,471.026C15.377,471.026 15.398,471.046 15.428,471.046C23.651,471.046 30.309,464.372 30.309,456.15C30.309,454.088 29.895,452.126 29.137,450.346C26.884,444.996 21.59,441.234 15.428,441.234M522.246,268.318L522.164,268.318C513.944,268.318 507.318,274.982 507.318,283.224C507.318,291.446 514.024,298.13 522.246,298.13C530.466,298.13 537.132,291.446 537.132,283.224C537.132,274.982 530.466,268.318 522.246,268.318M15.428,178.878L15.337,178.878C13.64,178.878 12.074,179.253 10.599,179.839C9.255,180.304 8.083,181.002 6.952,181.811C6.942,181.811 6.942,181.811 6.932,181.821L6.932,181.821C3.123,184.521 0.496,188.749 0.496,193.785C0.496,194.422 0.779,194.958 0.86,195.585L0.85,195.585C0.85,195.605 0.86,195.615 0.87,195.626C1.335,199.256 2.961,202.462 5.558,204.788C5.911,205.112 6.356,205.294 6.729,205.576C7.75,206.326 8.73,207.104 9.932,207.58C11.619,208.276 13.458,208.692 15.428,208.692C21.59,208.692 26.884,204.94 29.137,199.58C29.895,197.8 30.309,195.838 30.309,193.785C30.309,191.732 29.895,189.77 29.137,187.99C26.884,182.63 21.59,178.878 15.428,178.878M522.246,351.794L522.164,351.794C513.944,351.794 507.318,358.468 507.318,366.7C507.318,374.932 514.024,381.608 522.246,381.608C530.466,381.608 537.132,374.932 537.132,366.7C537.132,358.468 530.466,351.794 522.246,351.794M522.246,178.878L522.164,178.878C513.944,178.878 507.318,185.553 507.318,193.785C507.318,202.006 514.024,208.692 522.246,208.692C530.466,208.692 537.132,202.006 537.132,193.785C537.132,185.553 530.466,178.878 522.246,178.878M522.246,530.672L522.164,530.672C513.944,530.672 507.318,537.34 507.318,545.584C507.318,553.81 514.024,560.486 522.246,560.486C530.466,560.486 537.132,553.81 537.132,545.584C537.132,537.34 530.466,530.672 522.246,530.672M522.246,441.234L522.164,441.234C513.944,441.234 507.318,447.908 507.318,456.15C507.318,464.372 514.024,471.046 522.246,471.046C530.466,471.046 537.132,464.372 537.132,456.15C537.132,447.908 530.466,441.234 522.246,441.234M420.886,29.813C429.104,29.813 435.768,23.139 435.768,14.907C435.768,14.907 435.758,14.896 435.758,14.886C435.758,12.469 435.052,10.275 434.022,8.252C433.92,8.06 433.79,7.918 433.678,7.736C432.598,5.825 431.124,4.237 429.338,2.963L429.338,2.963L429.326,2.963C426.894,1.234 424.088,0 420.886,0L420.806,0C412.588,0 405.954,6.675 405.954,14.907C405.954,23.139 412.668,29.813 420.886,29.813M522.246,89.439L522.164,89.439C513.944,89.439 507.318,96.114 507.318,104.346C507.318,112.578 514.024,119.252 522.246,119.252C530.466,119.252 537.132,112.578 537.132,104.346C537.132,96.114 530.466,89.439 522.246,89.439M420.882,178.878L420.8,178.878C412.58,178.878 405.954,185.553 405.954,193.785C405.954,202.006 412.66,208.692 420.882,208.692C429.102,208.692 435.768,202.006 435.768,193.785C435.768,185.553 429.102,178.878 420.882,178.878M420.882,441.234L420.8,441.234C412.58,441.234 405.954,447.908 405.954,456.15C405.954,464.372 412.66,471.046 420.882,471.046C429.102,471.046 435.768,464.372 435.768,456.15C435.768,447.908 429.102,441.234 420.882,441.234M420.882,351.794L420.8,351.794C412.58,351.794 405.954,358.468 405.954,366.7C405.954,374.932 412.66,381.608 420.882,381.608C429.102,381.608 435.768,374.932 435.768,366.7C435.768,358.468 429.102,351.794 420.882,351.794M420.882,268.318L420.8,268.318C412.58,268.318 405.954,274.982 405.954,283.224C405.954,291.446 412.66,298.13 420.882,298.13C429.102,298.13 435.768,291.446 435.768,283.224C435.768,274.982 429.102,268.318 420.882,268.318M420.882,530.672L420.8,530.672C412.58,530.672 405.954,537.34 405.954,545.584C405.954,553.81 412.66,560.486 420.882,560.486C429.102,560.486 435.768,553.81 435.768,545.584C435.768,537.34 429.102,530.672 420.882,530.672M218.152,381.608C226.372,381.608 233.038,374.932 233.038,366.7C233.038,358.468 226.372,351.794 218.152,351.794L218.08,351.794C209.85,351.794 203.224,358.468 203.224,366.7C203.224,374.932 209.93,381.608 218.152,381.608M228.674,624.482C228.23,624.038 227.624,623.814 227.13,623.44C224.614,621.478 221.596,620.112 218.152,620.112L218.07,620.112C209.85,620.112 203.224,626.778 203.224,635.024C203.224,639.07 204.87,642.712 207.496,645.404C207.506,645.414 207.506,645.424 207.516,645.424C210.224,648.196 213.98,649.926 218.152,649.926C218.938,649.926 219.616,649.602 220.374,649.48L220.374,649.48C220.384,649.48 220.394,649.47 220.404,649.47C223.918,648.924 226.988,647.304 229.22,644.746C229.584,644.352 229.796,643.866 230.108,643.43C230.786,642.47 231.502,641.558 231.946,640.456C232.614,638.808 233.008,637.006 233.018,635.084C233.018,635.064 233.038,635.054 233.038,635.024C233.038,631.24 231.512,627.882 229.2,625.252C228.988,625.008 228.896,624.694 228.674,624.482M617.806,207.518C619.594,208.276 621.554,208.692 623.616,208.692C625.788,208.692 627.818,208.176 629.676,207.336C629.738,207.306 629.778,207.256 629.838,207.226C631.656,206.376 633.222,205.184 634.546,203.708C636.95,201.068 638.496,197.632 638.496,193.79C638.496,185.561 631.828,178.878 623.616,178.878L623.534,178.878C615.31,178.878 608.684,185.561 608.684,193.79C608.684,199.957 612.452,205.254 617.806,207.518M623.616,298.13C631.828,298.13 638.496,291.446 638.496,283.224C638.496,274.982 631.828,268.318 623.616,268.318L623.534,268.318C615.31,268.318 608.684,274.982 608.684,283.224C608.684,291.446 615.382,298.13 623.616,298.13M623.616,381.608C631.828,381.608 638.496,374.932 638.496,366.7C638.496,358.468 631.828,351.794 623.616,351.794L623.534,351.794C615.31,351.794 608.684,358.468 608.684,366.7C608.684,374.932 615.382,381.608 623.616,381.608M319.514,178.878L319.444,178.878C311.224,178.878 304.588,185.553 304.588,193.785C304.588,202.006 311.294,208.692 319.514,208.692C327.736,208.692 334.4,202.006 334.4,193.785C334.4,185.553 327.736,178.878 319.514,178.878M319.514,89.439L319.444,89.439C311.224,89.439 304.588,96.114 304.588,104.346C304.588,112.578 311.294,119.252 319.514,119.252C327.736,119.252 334.4,112.578 334.4,104.346C334.4,96.114 327.736,89.439 319.514,89.439M319.514,0L319.444,0C311.224,0 304.588,6.675 304.588,14.907C304.588,23.139 311.294,29.813 319.514,29.813C327.736,29.813 334.4,23.139 334.4,14.907C334.4,6.675 327.736,0 319.514,0M218.152,560.486C226.372,560.486 233.038,553.81 233.038,545.584C233.038,537.34 226.372,530.672 218.152,530.672L218.08,530.672C209.85,530.672 203.224,537.34 203.224,545.584C203.224,553.81 209.93,560.486 218.152,560.486M218.152,471.046C226.372,471.046 233.038,464.372 233.038,456.15C233.038,447.908 226.372,441.234 218.152,441.234L218.08,441.234C209.85,441.234 203.224,447.908 203.224,456.15C203.224,464.372 209.93,471.046 218.152,471.046M319.514,268.318L319.444,268.318C311.224,268.318 304.588,274.982 304.588,283.224C304.588,291.446 311.294,298.13 319.514,298.13C327.736,298.13 334.4,291.446 334.4,283.224C334.4,274.982 327.736,268.318 319.514,268.318M420.882,89.439L420.8,89.439C412.58,89.439 405.954,96.114 405.954,104.346C405.954,112.578 412.66,119.252 420.882,119.252C429.102,119.252 435.768,112.578 435.768,104.346C435.768,96.114 429.102,89.439 420.882,89.439M319.514,530.672L319.444,530.672C311.224,530.672 304.588,537.34 304.588,545.584C304.588,553.81 311.294,560.486 319.514,560.486C327.736,560.486 334.4,553.81 334.4,545.584C334.4,537.34 327.736,530.672 319.514,530.672M319.514,620.112L319.444,620.112C311.224,620.112 304.588,626.79 304.588,635.024C304.588,643.258 311.294,649.926 319.514,649.926C327.736,649.926 334.4,643.258 334.4,635.024C334.4,626.79 327.736,620.112 319.514,620.112M319.514,441.234L319.444,441.234C311.224,441.234 304.588,447.908 304.588,456.15C304.588,464.372 311.294,471.046 319.514,471.046C327.736,471.046 334.4,464.372 334.4,456.15C334.4,447.908 327.736,441.234 319.514,441.234M319.514,351.794L319.444,351.794C311.224,351.794 304.588,358.468 304.588,366.7C304.588,374.932 311.294,381.608 319.514,381.608C327.736,381.608 334.4,374.932 334.4,366.7C334.4,358.468 327.736,351.794 319.514,351.794Z" clip-rule="evenodd" fill-rule="evenodd" fill="#545454" fill-opacity="0.45"/>
</g>
</svg>
