<svg width="64" height="72" viewBox="0 0 64 72" fill="none" xmlns="http://www.w3.org/2000/svg" xmlns:xlink="http://www.w3.org/1999/xlink">
<path d="M0.498,17.094C0.498,7.932 7.926,0.504 17.089,0.504L62.624,0.504L62.624,22.09L0.498,22.09Z" fill="#2B2B2B"/>
<path d="M17.089,70C7.926,70 0.498,62.572 0.498,53.409L0.498,27.881L22.611,27.881L22.611,70Z" fill="#2B2B2B"/>
<path d="M62.623,32.35C62.623,41.512 55.195,48.94 46.032,48.94L0.497,48.94L0.497,27.354L62.623,27.354Z" fill="#2B2B2B"/>
<path d="M34.743,27.194C28.068,27.194 22.656,32.605 22.656,39.281L22.656,39.281L41.793,39.281L41.793,27.194Z" fill="#FFFFFF"/>
<circle cx="54.131" cy="61.691" r="9.317" fill="#2B2B2B"/>
</svg>
