<svg width="64" height="72" viewBox="0 0 64 72" fill="none" xmlns="http://www.w3.org/2000/svg" xmlns:xlink="http://www.w3.org/1999/xlink">
<path d="M0,17.094C0,7.932 7.428,0.504 16.591,0.504L62.126,0.504L62.126,22.09L0,22.09Z" fill="#2B2B2B"/>
<path d="M16.591,70C7.428,70 0,62.572 0,53.409L0,27.881L22.112,27.881L22.112,70Z" fill="#2B2B2B"/>
<path d="M41.296,27.354C41.211,33.956 35.833,39.281 29.211,39.281L22.161,39.281L22.161,27.354L0,27.354L0,48.94L45.535,48.94C54.698,48.94 62.126,41.513 62.126,32.35L62.126,27.354L41.296,27.354Z" clip-rule="evenodd" fill-rule="evenodd" fill="#2B2B2B"/>
<circle cx="53.633" cy="61.691" r="9.317" fill="#2B2B2B"/>
</svg>
