<svg width="250" height="280" viewBox="0 0 250 280" fill="none" xmlns="http://www.w3.org/2000/svg" xmlns:xlink="http://www.w3.org/1999/xlink">
<path d="M0,65.889C0,29.5 29.5,0 65.889,0L246.727,0L246.727,85.727L0,85.727Z" fill="#10172D"/>
<path d="M65.889,276C29.5,276 0,246.5 0,210.111L0,108.727L87.818,108.727L87.818,276Z" fill="#10172D"/>
<path d="M163.997,106.636C163.656,132.853 142.298,154 116.001,154L88.001,154L88.001,106.636L0,106.636L0,192.364L180.838,192.364C217.228,192.363 246.728,162.864 246.728,126.474L246.728,106.636L163.997,106.636Z" clip-rule="evenodd" fill-rule="evenodd" fill="#10172D"/>
<circle cx="213" cy="243" r="37" fill="#10172D"/>
</svg>
