<svg width="64" height="72" viewBox="0 0 64 72" fill="none" xmlns="http://www.w3.org/2000/svg" xmlns:xlink="http://www.w3.org/1999/xlink">
<path d="M0,17.094C0,7.932 7.428,0.504 16.591,0.504L62.126,0.504L62.126,22.09L0,22.09Z" fill="#2B2B2B"/>
<path d="M16.591,70C7.428,70 0,62.572 0,53.409L0,27.881L22.112,27.881L22.112,70Z" fill="#2B2B2B"/>
<path d="M62.125,32.35C62.125,41.512 54.697,48.94 45.534,48.94L-0.001,48.94L-0.001,27.354L62.125,27.354Z" fill="#2B2B2B"/>
<path d="M34.247,27.194C27.571,27.194 22.16,32.605 22.16,39.281L22.16,39.281L41.297,39.281L41.297,27.194Z" fill="#FFFFFF"/>
<circle cx="53.633" cy="61.691" r="9.317" fill="#2B2B2B"/>
</svg>
