<svg width="64" height="72" viewBox="0 0 64 72" fill="none" xmlns="http://www.w3.org/2000/svg" xmlns:xlink="http://www.w3.org/1999/xlink">
<path d="M0.496,17.094C0.496,7.932 7.924,0.504 17.087,0.504L62.622,0.504L62.622,22.09L0.496,22.09Z" fill="#2B2B2B"/>
<path d="M17.087,70C7.924,70 0.496,62.572 0.496,53.409L0.496,27.881L22.609,27.881L22.609,70Z" fill="#2B2B2B"/>
<path d="M62.621,32.35C62.621,41.512 55.193,48.94 46.03,48.94L0.496,48.94L0.496,27.354L62.621,27.354Z" fill="#2B2B2B"/>
<path d="M34.743,27.194C28.068,27.194 22.656,32.605 22.656,39.281L22.656,39.281L41.793,39.281L41.793,27.194Z" fill="#FFFFFF"/>
<circle cx="54.129" cy="61.691" r="9.317" fill="#2B2B2B"/>
</svg>
