<svg width="64" height="72" viewBox="0 0 64 72" fill="none" xmlns="http://www.w3.org/2000/svg" xmlns:xlink="http://www.w3.org/1999/xlink">
<path d="M0,16.094C0,6.932 7.428,-0.496 16.591,-0.496L62.126,-0.496L62.126,21.09L0,21.09Z" fill="#10172D"/>
<path d="M16.591,69C7.428,69 0,61.572 0,52.409L0,26.881L22.112,26.881L22.112,69Z" fill="#10172D"/>
<path d="M41.296,26.354C41.211,32.956 35.833,38.281 29.211,38.281L22.161,38.281L22.161,26.354L0,26.354L0,47.94L45.535,47.94C54.698,47.94 62.126,40.513 62.126,31.35L62.126,26.354L41.296,26.354Z" clip-rule="evenodd" fill-rule="evenodd" fill="#10172D"/>
<circle cx="53.633" cy="60.691" r="9.317" fill="#10172D"/>
</svg>
