<svg width="64" height="72" viewBox="0 0 64 72" fill="none" xmlns="http://www.w3.org/2000/svg" xmlns:xlink="http://www.w3.org/1999/xlink">
<path d="M0,16.094C0,6.932 7.428,-0.496 16.591,-0.496L62.126,-0.496L62.126,21.09L0,21.09Z" fill="#2E2E2E"/>
<path d="M16.591,69C7.428,69 0,61.572 0,52.409L0,26.881L22.112,26.881L22.112,69Z" fill="#2E2E2E"/>
<path d="M62.125,31.35C62.125,40.512 54.697,47.94 45.534,47.94L-0.001,47.94L-0.001,26.354L62.125,26.354Z" fill="#2E2E2E"/>
<path d="M34.245,26.194C27.569,26.194 22.158,31.605 22.158,38.281L22.158,38.281L41.295,38.281L41.295,26.194Z" fill="#FFFFFF"/>
<circle cx="53.633" cy="60.691" r="9.317" fill="#2E2E2E"/>
</svg>
