<svg width="250" height="280" viewBox="0 0 250 280" fill="none" xmlns="http://www.w3.org/2000/svg" xmlns:xlink="http://www.w3.org/1999/xlink">
<path d="M0,65.889C0,29.5 29.5,0 65.889,0L246.727,0L246.727,85.727L0,85.727Z" fill="#2E2E2E"/>
<path d="M65.889,276C29.5,276 0,246.5 0,210.111L0,108.727L87.818,108.727L87.818,276Z" fill="#2E2E2E"/>
<path d="M246.727,126.474C246.727,162.864 217.227,192.364 180.837,192.364L-0.001,192.364L-0.001,106.636L246.727,106.636Z" fill="#2E2E2E"/>
<path d="M136,106C109.49,106 88,127.49 88,154L88,154L164,154L164,106Z" fill="#FFFFFF"/>
<circle cx="213" cy="243" r="37" fill="#2E2E2E"/>
</svg>
