<svg width="386" height="406" viewBox="0 0 386 406" fill="none" xmlns="http://www.w3.org/2000/svg" xmlns:xlink="http://www.w3.org/1999/xlink">
<path d="M57.324,354.543L33.373,174.059C28.946,140.701 59.436,113.321 92.128,121.298L341.997,182.266C362.659,187.308 377.511,205.387 378.445,226.634L382.265,313.535C383.347,338.133 365.579,359.533 341.201,362.993L111.463,395.609C85.14,399.345 60.821,380.899 57.324,354.543Z" fill="url(#pf_0_19_294)"/>
<path d="M184.454,284.485L104.118,137.618C84.278,101.35 116.685,58.693 156.945,68.081L283.713,97.644C312.172,104.281 328.08,134.66 317.326,161.831L270.893,279.133C255.979,316.813 203.901,320.035 184.454,284.485Z" transform="rotate(38.756 209.412 188.064)" fill="url(#pf_0_19_295)"/>
<path d="M159.897,297.912L79.56,151.046C48.108,93.547 99.485,25.919 163.312,40.804L290.079,70.367C335.197,80.888 360.417,129.051 343.367,172.127L296.935,289.43C273.291,349.164 190.728,354.274 159.897,297.912ZM104.125,137.609L184.462,284.474C203.909,320.026 255.987,316.802 270.901,279.124L317.333,161.822C328.087,134.651 312.179,104.272 283.721,97.635L156.953,68.072C116.693,58.683 84.286,101.341 104.125,137.609Z" clip-rule="evenodd" fill-rule="evenodd" transform="rotate(38.756 209.388 188.036)" fill="#FFFFFF" fill-opacity="0.8"/>
<defs>
<linearGradient id="pf_0_19_294" x1="408" y1="396" x2="-307" y2="-74" gradientUnits="userSpaceOnUse">
<stop stop-color="#FD4D76"/>
<stop offset="1" stop-color="#F9D701"/>
</linearGradient>
<linearGradient id="pf_0_19_295" x1="366.193" y1="103.685" x2="75.725" y2="264.29" gradientUnits="userSpaceOnUse">
<stop stop-color="#A855EE"/>
<stop offset="1" stop-color="#334BC9"/>
</linearGradient>
</defs>
</svg>
