<svg width="38" height="10" viewBox="0 0 38 10" fill="none" xmlns="http://www.w3.org/2000/svg" xmlns:xlink="http://www.w3.org/1999/xlink">
<path d="M1.13,8.506L-0.742,8.506L-0.742,0L1.13,0L1.13,8.506ZM5.803,0L3.971,0C3.971,1.565 3.281,3.002 2.078,3.942L1.353,4.509L4.164,8.506L6.475,8.506L3.889,4.828C5.115,3.555 5.803,1.842 5.803,0ZM8.788,8.504L7.02,8.504L7.02,0.001L8.788,0.001L8.788,8.504ZM14.129,2.623L14.129,2.999C13.652,2.66 13.076,2.46 12.455,2.46C10.812,2.46 9.48,3.849 9.48,5.563C9.48,7.277 10.812,8.667 12.455,8.667C13.076,8.667 13.652,8.467 14.129,8.128L14.129,8.504L15.817,8.504L15.817,2.623L14.129,2.623ZM14.124,5.564C14.124,6.399 13.439,7.077 12.594,7.077C11.749,7.077 11.064,6.399 11.064,5.564C11.064,4.728 11.749,4.051 12.594,4.051C13.439,4.051 14.124,4.728 14.124,5.564ZM31.94,2.999L31.94,2.623L33.629,2.623L33.629,8.504L31.94,8.504L31.94,8.128C31.463,8.467 30.888,8.667 30.267,8.667C28.623,8.667 27.291,7.277 27.291,5.563C27.291,3.849 28.623,2.46 30.267,2.46C30.888,2.46 31.463,2.66 31.94,2.999ZM30.405,7.077C31.25,7.077 31.935,6.399 31.935,5.564C31.935,4.728 31.25,4.051 30.405,4.051C29.56,4.051 28.875,4.728 28.875,5.564C28.875,6.399 29.56,7.077 30.405,7.077ZM24.291,2.465C23.617,2.465 22.978,2.683 22.552,3.285L22.552,2.623L20.871,2.623L20.871,8.504L22.572,8.504L22.572,5.413C22.572,4.519 23.147,4.081 23.84,4.081C24.582,4.081 25.008,4.543 25.008,5.401L25.008,8.504L26.694,8.504L26.694,4.764C26.694,3.395 25.651,2.465 24.291,2.465ZM18.429,2.623L18.429,3.389C18.767,2.929 19.398,2.623 20.083,2.623L20.083,4.334L20.074,4.334L20.063,4.334C19.395,4.334 18.433,4.831 18.433,5.758L18.433,8.504L16.7,8.504L16.7,2.623L18.429,2.623ZM34.361,7.523C34.361,6.912 34.836,6.418 35.421,6.418C36.006,6.418 36.48,6.912 36.48,7.523C36.48,8.133 36.006,8.628 35.421,8.628C34.836,8.628 34.361,8.133 34.361,7.523Z" clip-rule="evenodd" fill-rule="evenodd" fill="#17120F"/>
</svg>
