<svg width="1916" height="176" viewBox="0 0 1916 176" fill="none" xmlns="http://www.w3.org/2000/svg" xmlns:xlink="http://www.w3.org/1999/xlink">
<path d="M1.898,108.574C0.845,108.907 0.26,110.03 0.593,111.084C0.925,112.137 2.049,112.721 3.102,112.389L1.898,108.574ZM1914.124,85.863C1915.172,85.519 1915.744,84.39 1915.4,83.34C1915.056,82.29 1913.926,81.718 1912.876,82.063L1914.124,85.863ZM1094.5,143.63L1093.92,145.543C1094.13,145.608 1094.352,145.636 1094.572,145.628L1094.5,143.63ZM548.5,1.093L548.928,-0.861C548.732,-0.904 548.53,-0.917 548.33,-0.9L548.5,1.093ZM1640.5,173.463L1640.212,175.442C1640.518,175.487 1640.83,175.46 1641.124,175.363L1640.5,173.463ZM275.5,24.296L275.33,22.303C275.184,22.316 275.038,22.345 274.898,22.389L275.5,24.296ZM821.5,60.759L822.08,58.845C822.03,58.83 821.978,58.817 821.928,58.805L821.5,60.759ZM1367.5,133.685L1367.788,131.706C1367.668,131.689 1367.548,131.682 1367.428,131.687L1367.5,133.685ZM1641.124,175.363L1914.124,85.863L1912.876,82.063L1639.876,171.563L1641.124,175.363ZM3.102,112.389L276.102,26.204L274.898,22.389L1.898,108.574L3.102,112.389ZM275.67,26.289L548.67,3.085L548.33,-0.9L275.33,22.303L275.67,26.289ZM548.072,3.046L821.072,62.713L821.928,58.805L548.928,-0.861L548.072,3.046ZM820.92,62.673L1093.92,145.543L1095.08,141.716L822.08,58.845L820.92,62.673ZM1094.572,145.628L1367.572,135.684L1367.428,131.687L1094.428,141.631L1094.572,145.628ZM1367.212,135.664L1640.212,175.442L1640.788,171.484L1367.788,131.706L1367.212,135.664Z" fill="#3673E8"/>
</svg>
