<svg width="1916" height="186" viewBox="0 0 1916 186" fill="none" xmlns="http://www.w3.org/2000/svg" xmlns:xlink="http://www.w3.org/1999/xlink">
<path d="M2.95,-0.912C1.873,-1.16 0.799,-0.489 0.551,0.588C0.303,1.664 0.974,2.738 2.05,2.986L2.95,-0.912ZM1913.972,32.814C1915.046,32.553 1915.704,31.472 1915.444,30.399C1915.182,29.325 1914.102,28.666 1913.028,28.927L1913.972,32.814ZM1094.5,100.482L1094.258,98.496C1094.144,98.51 1094.03,98.534 1093.92,98.568L1094.5,100.482ZM548.5,156.834L547.856,158.727C548.002,158.777 548.154,158.809 548.306,158.824L548.5,156.834ZM1640.5,97.167L1640.282,99.155C1640.514,99.18 1640.746,99.165 1640.972,99.11L1640.5,97.167ZM275.5,64.019L276.144,62.125C276.08,62.103 276.016,62.085 275.95,62.07L275.5,64.019ZM821.5,183.352L821.306,185.343C821.568,185.368 821.83,185.342 822.08,185.266L821.5,183.352ZM1367.5,67.334L1367.718,65.345C1367.564,65.329 1367.412,65.33 1367.258,65.348L1367.5,67.334ZM1640.972,99.11L1913.972,32.814L1913.028,28.927L1640.028,95.223L1640.972,99.11ZM2.05,2.986L275.05,65.968L275.95,62.07L2.95,-0.912L2.05,2.986ZM274.856,65.912L547.856,158.727L549.144,154.94L276.144,62.125L274.856,65.912ZM548.306,158.824L821.306,185.343L821.694,181.361L548.694,154.843L548.306,158.824ZM822.08,185.266L1095.08,102.395L1093.92,98.568L820.92,181.438L822.08,185.266ZM1094.742,102.467L1367.742,69.319L1367.258,65.348L1094.258,98.496L1094.742,102.467ZM1367.282,69.322L1640.282,99.155L1640.718,95.179L1367.718,65.345L1367.282,69.322Z" fill="#F5B763"/>
</svg>
