<svg width="1916" height="184" viewBox="0 0 1916 184" fill="none" xmlns="http://www.w3.org/2000/svg" xmlns:xlink="http://www.w3.org/1999/xlink">
<path d="M2.235,148.795C1.14,148.942 0.371,149.948 0.518,151.042C0.664,152.137 1.67,152.906 2.765,152.76L2.235,148.795ZM1913.788,142.812C1914.882,142.653 1915.638,141.638 1915.48,140.545C1915.32,139.452 1914.304,138.695 1913.212,138.854L1913.788,142.812ZM1094.5,51.333L1095.184,49.454C1095.078,49.415 1094.97,49.386 1094.858,49.366L1094.5,51.333ZM548.5,41.389L548.212,39.41C548.134,39.421 548.058,39.437 547.984,39.457L548.5,41.389ZM1640.5,180.611L1640.282,182.599C1640.45,182.618 1640.62,182.615 1640.788,182.59L1640.5,180.611ZM275.5,114.315L275.764,116.297C275.85,116.286 275.934,116.269 276.016,116.247L275.5,114.315ZM821.5,1.611L821.858,-0.357C821.644,-0.395 821.426,-0.399 821.212,-0.368L821.5,1.611ZM1367.5,150.778L1366.816,152.657C1366.966,152.712 1367.124,152.748 1367.282,152.766L1367.5,150.778ZM1640.788,182.59L1913.788,142.812L1913.212,138.854L1640.212,178.632L1640.788,182.59ZM2.765,152.76L275.764,116.297L275.236,112.332L2.235,148.795L2.765,152.76ZM276.016,116.247L549.016,43.321L547.984,39.457L274.984,112.382L276.016,116.247ZM548.788,43.368L821.788,3.59L821.212,-0.368L548.212,39.41L548.788,43.368ZM821.142,3.579L1094.142,53.301L1094.858,49.366L821.858,-0.357L821.142,3.579ZM1093.816,53.212L1366.816,152.657L1368.184,148.898L1095.184,49.454L1093.816,53.212ZM1367.282,152.766L1640.282,182.599L1640.718,178.623L1367.718,148.789L1367.282,152.766Z" fill="#61B8FF"/>
</svg>
