<svg width="38" height="36" viewBox="0 0 38 36" fill="none" xmlns="http://www.w3.org/2000/svg" xmlns:xlink="http://www.w3.org/1999/xlink">
<path d="M11.077,0.108C12.997,0.021 13.61,0 18.498,0C23.387,0 23.999,0.021 25.919,0.108C28.846,0.242 31.415,0.959 33.477,3.021C35.54,5.084 36.256,7.654 36.39,10.579C36.477,12.499 36.498,13.111 36.498,18C36.498,22.889 36.477,23.501 36.39,25.421C36.256,28.348 35.54,30.917 33.477,32.979C31.414,35.042 28.843,35.758 25.919,35.892C23.999,35.979 23.387,36 18.498,36C13.61,36 12.997,35.979 11.077,35.892C8.15,35.758 5.582,35.042 3.519,32.979C1.456,30.916 0.74,28.346 0.606,25.421C0.519,23.501 0.498,22.889 0.498,18C0.498,13.111 0.519,12.499 0.606,10.579C0.74,7.652 1.457,5.084 3.519,3.021C5.582,0.958 8.152,0.242 11.077,0.108ZM25.772,3.348C23.873,3.261 23.304,3.243 18.498,3.243C13.692,3.243 13.123,3.262 11.225,3.348C9.176,3.442 7.275,3.852 5.813,5.314C4.35,6.777 3.94,8.678 3.846,10.727C3.759,12.625 3.741,13.194 3.741,18C3.741,22.806 3.76,23.375 3.846,25.274C3.94,27.322 4.35,29.223 5.813,30.685C7.275,32.148 9.176,32.558 11.225,32.652C13.122,32.739 13.691,32.757 18.498,32.757C23.305,32.757 23.874,32.738 25.772,32.652C27.82,32.558 29.721,32.148 31.183,30.685C32.646,29.223 33.056,27.322 33.15,25.274C33.237,23.375 33.255,22.806 33.255,18C33.255,13.194 33.236,12.625 33.15,10.727C33.056,8.678 32.646,6.777 31.183,5.314C29.721,3.852 27.82,3.442 25.772,3.348Z" clip-rule="evenodd" fill-rule="evenodd" fill="#10172D"/>
<path d="M10.316,18.818C10.316,13.848 14.345,9.818 19.316,9.818C24.287,9.818 28.316,13.847 28.316,18.818C28.316,23.789 24.287,27.818 19.316,27.818C14.345,27.818 10.316,23.788 10.316,18.818ZM13.474,18.818C13.474,22.044 16.09,24.66 19.316,24.66C22.543,24.66 25.159,22.044 25.159,18.818C25.159,15.592 22.543,12.976 19.316,12.976C16.09,12.976 13.474,15.592 13.474,18.818Z" clip-rule="evenodd" fill-rule="evenodd" fill="#10172D"/>
<circle cx="27.498" cy="9" r="2.455" fill="#10172D"/>
</svg>
