<svg width="326" height="316" viewBox="0 0 326 316" fill="none" xmlns="http://www.w3.org/2000/svg" xmlns:xlink="http://www.w3.org/1999/xlink">
<mask id="mask_0_19_391" style="mask-type:alpha" maskUnits="userSpaceOnUse" x="60" y="40.5" width="126.249977" height="126.249977">
<circle cx="186.25" cy="166.75" r="126.25" fill="#C4C4C4"/>
</mask>
<g mask="url(#mask_0_19_391)">
<g opacity="0.8" style="isolation:isolate">
<path d="M205.705,306.79L287.251,262.488C287.251,262.488 115.762,259.331 117.866,179.373C118.873,141.113 106.947,122.924 94.235,114.358C78.222,103.568 59.014,115.708 47.276,131.04L40.711,139.615C16.446,171.307 21.845,216.561 52.885,241.656L124.248,299.349C147.4,318.066 179.545,321.002 205.705,306.79Z" fill="#4B5E7F"/>
</g>
<path d="M1.019,169.254C-5.36,98.112 170.878,-0.031 170.878,-0.031C267.262,33.135 303.032,109.937 303.032,109.937C303.032,109.937 179.939,70.532 144.168,104.677C108.397,138.821 118.918,192 118.918,192L118.918,241.447C118.918,271.957 156.793,290.895 156.793,290.895C156.793,290.895 7.397,240.395 1.019,169.254Z" fill="#20E083"/>
<g opacity="0.7" style="isolation:isolate">
<path d="M247.166,40.5L154.104,40.5C154.104,40.5 177.863,41.134 190.907,52.613C203.951,64.092 203.951,88.018 203.951,88.018C203.951,118.379 228.563,142.991 258.924,142.991L325.077,142.991L320.222,104.848C315.541,68.066 284.244,40.5 247.166,40.5Z" fill="#4B5E7F"/>
</g>
<g opacity="0.7">
<path d="M312.033,194.236L154.104,194.236C154.104,194.236 177.863,194.87 190.907,206.349C203.951,217.828 203.951,241.755 203.951,241.755C203.951,272.115 228.563,296.727 258.924,296.727L322.282,296.727L312.033,194.236Z" fill="#20E083"/>
</g>
</g>
</svg>
