<svg width="40" height="38" viewBox="0 0 40 38" fill="none" xmlns="http://www.w3.org/2000/svg" xmlns:xlink="http://www.w3.org/1999/xlink">
<path d="M38.496,19.115C38.494,8.945 30.581,0.557 20.488,0.026C10.395,-0.504 1.656,7.009 0.601,17.123C-0.454,27.237 6.546,36.411 16.528,38L16.528,24.641L11.705,24.641L11.705,19.115L16.528,19.115L16.528,14.903C16.528,10.112 19.365,7.465 23.704,7.465C25.129,7.485 26.55,7.61 27.957,7.838L27.957,12.543L25.561,12.543C24.734,12.433 23.902,12.706 23.299,13.288C22.697,13.869 22.39,14.694 22.465,15.53L22.465,19.115L27.735,19.115L26.892,24.641L22.465,24.641L22.465,38C31.699,36.53 38.497,28.521 38.496,19.115Z" fill="#10172D"/>
</svg>
