<svg width="40" height="38" viewBox="0 0 40 38" fill="none" xmlns="http://www.w3.org/2000/svg" xmlns:xlink="http://www.w3.org/1999/xlink">
<path d="M38.498,19.115C38.496,8.945 30.583,0.557 20.49,0.026C10.397,-0.504 1.658,7.009 0.603,17.123C-0.452,27.237 6.548,36.411 16.53,38L16.53,24.641L11.707,24.641L11.707,19.115L16.53,19.115L16.53,14.903C16.53,10.112 19.367,7.465 23.706,7.465C25.131,7.485 26.552,7.61 27.959,7.838L27.959,12.543L25.563,12.543C24.736,12.433 23.904,12.706 23.301,13.288C22.699,13.869 22.392,14.694 22.467,15.53L22.467,19.115L27.737,19.115L26.894,24.641L22.467,24.641L22.467,38C31.701,36.53 38.499,28.521 38.498,19.115Z" fill="#10172D"/>
</svg>
