<svg width="36" height="30" viewBox="0 0 36 30" fill="none" xmlns="http://www.w3.org/2000/svg" xmlns:xlink="http://www.w3.org/1999/xlink">
<path d="M34.498,3.479C33.223,4.098 31.877,4.485 30.46,4.716C31.877,3.789 33.011,2.32 33.506,0.541C32.161,1.392 30.673,2.01 29.044,2.397C27.769,0.928 25.927,0 23.944,0C20.119,0 17.002,3.402 17.002,7.577C17.002,8.196 17.073,8.737 17.215,9.278C11.477,8.969 6.306,5.954 2.836,1.314C2.269,2.474 1.915,3.711 1.915,5.103C1.915,7.732 3.119,10.052 5.031,11.443C3.898,11.366 2.836,11.057 1.844,10.515L1.844,10.593C1.844,14.304 4.252,17.397 7.44,18.093C6.873,18.247 6.236,18.325 5.598,18.325C5.173,18.325 4.677,18.247 4.252,18.17C5.173,21.186 7.723,23.428 10.769,23.428C8.361,25.438 5.386,26.675 2.127,26.675C1.561,26.675 0.994,26.675 0.498,26.598C3.615,28.763 7.227,30 11.194,30C24.015,30 31.027,18.402 31.027,8.351C31.027,8.041 31.027,7.655 31.027,7.345C32.373,6.34 33.577,5.026 34.498,3.479Z" fill="#10172D"/>
</svg>
