<svg width="28" height="24" viewBox="0 0 28 24" fill="none" xmlns="http://www.w3.org/2000/svg" xmlns:xlink="http://www.w3.org/1999/xlink">
<path d="M3.2,16.321L1.126,16.321C0.984,16.321 0.863,16.424 0.841,16.564L0.002,21.883C-0.014,21.988 0.067,22.083 0.173,22.083L1.163,22.083C1.305,22.083 1.426,21.979 1.448,21.839L1.675,20.405C1.696,20.264 1.817,20.161 1.959,20.161L2.616,20.161C3.982,20.161 4.77,19.5 4.976,18.19C5.069,17.616 4.98,17.166 4.712,16.851C4.417,16.504 3.894,16.321 3.2,16.321ZM3.439,18.264C3.326,19.008 2.757,19.008 2.207,19.008L1.894,19.008L2.114,17.618C2.127,17.534 2.2,17.472 2.285,17.472L2.428,17.472C2.803,17.472 3.156,17.472 3.339,17.686C3.447,17.813 3.481,18.002 3.439,18.264ZM9.4,18.24L8.407,18.24C8.322,18.24 8.249,18.302 8.236,18.386L8.192,18.664L8.123,18.563C7.908,18.251 7.428,18.146 6.95,18.146C5.852,18.146 4.915,18.978 4.732,20.144C4.637,20.726 4.772,21.282 5.102,21.67C5.405,22.026 5.838,22.175 6.353,22.175C7.237,22.175 7.728,21.606 7.728,21.606L7.684,21.882C7.667,21.988 7.748,22.082 7.854,22.082L8.749,22.082C8.891,22.082 9.011,21.979 9.033,21.839L9.57,18.439C9.587,18.335 9.506,18.24 9.4,18.24ZM8.016,20.173C7.92,20.74 7.469,21.121 6.895,21.121C6.607,21.121 6.376,21.029 6.228,20.854C6.081,20.68 6.025,20.432 6.072,20.156C6.162,19.593 6.62,19.2 7.185,19.2C7.467,19.2 7.697,19.293 7.848,19.47C7.999,19.649 8.059,19.898 8.016,20.173ZM13.692,18.24L14.69,18.24C14.83,18.24 14.911,18.396 14.832,18.511L11.512,23.303C11.459,23.381 11.37,23.427 11.275,23.427L10.278,23.427C10.138,23.427 10.056,23.269 10.137,23.154L11.171,21.695L10.072,18.468C10.034,18.356 10.117,18.24 10.236,18.24L11.217,18.24C11.344,18.24 11.456,18.323 11.493,18.445L12.077,20.394L13.453,18.366C13.507,18.287 13.597,18.24 13.692,18.24Z" clip-rule="evenodd" fill-rule="evenodd" fill="#253B80"/>
<path d="M24.512,21.883L25.363,16.467C25.377,16.383 25.449,16.321 25.534,16.321L26.492,16.321C26.598,16.321 26.679,16.416 26.663,16.521L25.823,21.839C25.801,21.979 25.681,22.083 25.538,22.083L24.683,22.083C24.577,22.083 24.496,21.988 24.512,21.883ZM17.993,16.321L15.919,16.321C15.777,16.321 15.656,16.424 15.634,16.564L14.795,21.883C14.778,21.988 14.86,22.083 14.966,22.083L16.03,22.083C16.129,22.083 16.214,22.011 16.229,21.912L16.467,20.405C16.489,20.264 16.61,20.161 16.752,20.161L17.408,20.161C18.775,20.161 19.563,19.5 19.769,18.19C19.862,17.617 19.773,17.166 19.504,16.851C19.21,16.504 18.687,16.321 17.993,16.321ZM18.232,18.264C18.119,19.008 17.551,19.008 17,19.008L16.688,19.008L16.908,17.618C16.921,17.534 16.993,17.472 17.078,17.472L17.221,17.472C17.596,17.472 17.949,17.472 18.132,17.686C18.241,17.813 18.274,18.002 18.232,18.264ZM24.193,18.24L23.2,18.24C23.115,18.24 23.042,18.302 23.03,18.386L22.986,18.664L22.916,18.563C22.701,18.251 22.222,18.146 21.743,18.146C20.645,18.146 19.708,18.978 19.526,20.144C19.431,20.726 19.565,21.282 19.895,21.67C20.199,22.026 20.631,22.175 21.146,22.175C22.031,22.175 22.521,21.606 22.521,21.606L22.477,21.882C22.46,21.988 22.542,22.083 22.648,22.083L23.542,22.083C23.684,22.083 23.805,21.979 23.827,21.839L24.364,18.439C24.38,18.335 24.299,18.24 24.193,18.24ZM22.808,20.173C22.713,20.74 22.262,21.121 21.688,21.121C21.4,21.121 21.169,21.029 21.021,20.854C20.874,20.68 20.819,20.432 20.865,20.156C20.955,19.593 21.412,19.2 21.978,19.2C22.26,19.2 22.489,19.293 22.64,19.47C22.792,19.649 22.852,19.898 22.808,20.173Z" clip-rule="evenodd" fill-rule="evenodd" fill="#179BD7"/>
<path d="M10.877,14.418L11.132,12.799L10.564,12.786L7.852,12.786L9.736,0.834C9.742,0.798 9.761,0.764 9.789,0.74C9.817,0.716 9.853,0.703 9.89,0.703L14.463,0.703C15.981,0.703 17.029,1.019 17.576,1.643C17.833,1.935 17.996,2.241 18.075,2.577C18.158,2.93 18.159,3.352 18.078,3.866L18.072,3.904L18.072,4.234L18.329,4.379C18.545,4.493 18.716,4.625 18.848,4.775C19.068,5.025 19.209,5.343 19.269,5.72C19.331,6.107 19.311,6.569 19.209,7.091C19.092,7.691 18.903,8.215 18.648,8.643C18.413,9.037 18.113,9.364 17.758,9.618C17.419,9.859 17.015,10.042 16.56,10.159C16.118,10.274 15.614,10.332 15.062,10.332L14.706,10.332C14.451,10.332 14.204,10.423 14.01,10.588C13.816,10.755 13.687,10.984 13.647,11.235L13.62,11.381L13.17,14.236L13.149,14.34C13.144,14.374 13.135,14.39 13.121,14.401C13.109,14.412 13.091,14.418 13.074,14.418L10.877,14.418Z" fill="#253B80"/>
<path d="M18.572,3.942C18.558,4.029 18.543,4.119 18.525,4.21C17.922,7.307 15.859,8.377 13.223,8.377L11.881,8.377C11.559,8.377 11.288,8.611 11.237,8.928L10.55,13.285L10.356,14.52C10.323,14.729 10.484,14.917 10.695,14.917L13.075,14.917C13.356,14.917 13.596,14.713 13.64,14.435L13.663,14.314L14.112,11.47L14.14,11.314C14.184,11.035 14.424,10.831 14.706,10.831L15.062,10.831C17.367,10.831 19.173,9.894 19.7,7.185C19.92,6.054 19.806,5.109 19.223,4.444C19.047,4.244 18.828,4.078 18.572,3.942Z" fill="#179BD7"/>
<path d="M17.938,3.691C17.846,3.664 17.751,3.64 17.653,3.618C17.555,3.596 17.455,3.577 17.351,3.561C16.99,3.502 16.593,3.474 16.169,3.474L12.584,3.474C12.496,3.474 12.412,3.494 12.337,3.53C12.171,3.61 12.049,3.766 12.019,3.958L11.256,8.788L11.234,8.929C11.285,8.611 11.556,8.377 11.878,8.377L13.22,8.377C15.856,8.377 17.919,7.307 18.522,4.211C18.54,4.119 18.555,4.03 18.569,3.942C18.416,3.861 18.251,3.792 18.073,3.733C18.029,3.719 17.984,3.704 17.938,3.691Z" fill="#222D65"/>
<path d="M12.019,3.958C12.049,3.766 12.172,3.61 12.337,3.531C12.413,3.495 12.496,3.475 12.585,3.475L16.169,3.475C16.594,3.475 16.99,3.503 17.352,3.561C17.455,3.578 17.556,3.597 17.654,3.618C17.751,3.64 17.846,3.664 17.939,3.691C17.984,3.705 18.03,3.719 18.074,3.733C18.252,3.792 18.417,3.862 18.57,3.942C18.749,2.798 18.569,2.019 17.95,1.313C17.268,0.537 16.037,0.204 14.461,0.204L9.888,0.204C9.566,0.204 9.292,0.438 9.242,0.757L7.337,12.831C7.299,13.07 7.484,13.286 7.724,13.286L10.548,13.286L11.257,8.788L12.019,3.958Z" fill="#253B80"/>
</svg>
