<svg width="28" height="28" viewBox="0 0 28 28" fill="none" xmlns="http://www.w3.org/2000/svg" xmlns:xlink="http://www.w3.org/1999/xlink">
<path d="M26.981,2.414C27.762,1.633 27.762,0.367 26.981,-0.414C26.2,-1.195 24.933,-1.195 24.152,-0.414L26.981,2.414ZM0.152,23.586C-0.629,24.367 -0.629,25.633 0.152,26.414C0.933,27.195 2.2,27.195 2.981,26.414L0.152,23.586ZM24.152,-0.414L0.152,23.586L2.981,26.414L26.981,2.414L24.152,-0.414Z" fill="#D5D7DD"/>
<path d="M24.152,26.414C24.933,27.195 26.2,27.195 26.981,26.414C27.762,25.633 27.762,24.367 26.981,23.586L24.152,26.414ZM2.981,-0.414C2.2,-1.195 0.933,-1.195 0.152,-0.414C-0.629,0.367 -0.629,1.633 0.152,2.414L2.981,-0.414ZM26.981,23.586L2.981,-0.414L0.152,2.414L24.152,26.414L26.981,23.586Z" fill="#D5D7DD"/>
</svg>
