<svg width="28" height="28" viewBox="0 0 28 28" fill="none" xmlns="http://www.w3.org/2000/svg" xmlns:xlink="http://www.w3.org/1999/xlink">
<path d="M26.981,3.414C27.762,2.633 27.762,1.367 26.981,0.586C26.2,-0.195 24.933,-0.195 24.152,0.586L26.981,3.414ZM0.152,24.586C-0.629,25.367 -0.629,26.633 0.152,27.414C0.933,28.195 2.2,28.195 2.981,27.414L0.152,24.586ZM24.152,0.586L0.152,24.586L2.981,27.414L26.981,3.414L24.152,0.586Z" fill="#D5D7DD"/>
<path d="M24.152,27.414C24.933,28.195 26.2,28.195 26.981,27.414C27.762,26.633 27.762,25.367 26.981,24.586L24.152,27.414ZM2.981,0.586C2.2,-0.195 0.933,-0.195 0.152,0.586C-0.629,1.367 -0.629,2.633 0.152,3.414L2.981,0.586ZM26.981,24.586L2.981,0.586L0.152,3.414L24.152,27.414L26.981,24.586Z" fill="#D5D7DD"/>
</svg>
