<svg width="30" height="28" viewBox="0 0 30 28" fill="none" xmlns="http://www.w3.org/2000/svg" xmlns:xlink="http://www.w3.org/1999/xlink">
<path d="M27.483,2.414C28.264,1.633 28.264,0.367 27.483,-0.414C26.702,-1.195 25.435,-1.195 24.654,-0.414L27.483,2.414ZM0.654,23.586C-0.127,24.367 -0.127,25.633 0.654,26.414C1.435,27.195 2.702,27.195 3.483,26.414L0.654,23.586ZM24.654,-0.414L0.654,23.586L3.483,26.414L27.483,2.414L24.654,-0.414Z" fill="#D5D7DD"/>
<path d="M24.654,26.414C25.435,27.195 26.702,27.195 27.483,26.414C28.264,25.633 28.264,24.367 27.483,23.586L24.654,26.414ZM3.483,-0.414C2.702,-1.195 1.435,-1.195 0.654,-0.414C-0.127,0.367 -0.127,1.633 0.654,2.414L3.483,-0.414ZM27.483,23.586L3.483,-0.414L0.654,2.414L24.654,26.414L27.483,23.586Z" fill="#D5D7DD"/>
</svg>
