<svg width="28" height="28" viewBox="0 0 28 28" fill="none" xmlns="http://www.w3.org/2000/svg" xmlns:xlink="http://www.w3.org/1999/xlink">
<path d="M26.977,2.414C27.758,1.633 27.758,0.367 26.977,-0.414C26.196,-1.195 24.929,-1.195 24.148,-0.414L26.977,2.414ZM0.148,23.586C-0.633,24.367 -0.633,25.633 0.148,26.414C0.929,27.195 2.196,27.195 2.977,26.414L0.148,23.586ZM24.148,-0.414L0.148,23.586L2.977,26.414L26.977,2.414L24.148,-0.414Z" fill="#93969F"/>
<path d="M24.148,26.414C24.929,27.195 26.196,27.195 26.977,26.414C27.758,25.633 27.758,24.367 26.977,23.586L24.148,26.414ZM2.977,-0.414C2.196,-1.195 0.929,-1.195 0.148,-0.414C-0.633,0.367 -0.633,1.633 0.148,2.414L2.977,-0.414ZM26.977,23.586L2.977,-0.414L0.148,2.414L24.148,26.414L26.977,23.586Z" fill="#93969F"/>
</svg>
