<svg width="28" height="28" viewBox="0 0 28 28" fill="none" xmlns="http://www.w3.org/2000/svg" xmlns:xlink="http://www.w3.org/1999/xlink">
<path d="M26.483,3.414C27.264,2.633 27.264,1.367 26.483,0.586C25.702,-0.195 24.435,-0.195 23.654,0.586L26.483,3.414ZM-0.346,24.586C-1.127,25.367 -1.127,26.633 -0.346,27.414C0.435,28.195 1.702,28.195 2.483,27.414L-0.346,24.586ZM23.654,0.586L-0.346,24.586L2.483,27.414L26.483,3.414L23.654,0.586Z" fill="#D5D7DD"/>
<path d="M23.654,27.414C24.435,28.195 25.702,28.195 26.483,27.414C27.264,26.633 27.264,25.367 26.483,24.586L23.654,27.414ZM2.483,0.586C1.702,-0.195 0.435,-0.195 -0.346,0.586C-1.127,1.367 -1.127,2.633 -0.346,3.414L2.483,0.586ZM26.483,24.586L2.483,0.586L-0.346,3.414L23.654,27.414L26.483,24.586Z" fill="#D5D7DD"/>
</svg>
