<svg width="28" height="28" viewBox="0 0 28 28" fill="none" xmlns="http://www.w3.org/2000/svg" xmlns:xlink="http://www.w3.org/1999/xlink">
<path d="M26.483,2.414C27.264,1.633 27.264,0.367 26.483,-0.414C25.702,-1.195 24.435,-1.195 23.654,-0.414L26.483,2.414ZM-0.346,23.586C-1.127,24.367 -1.127,25.633 -0.346,26.414C0.435,27.195 1.702,27.195 2.483,26.414L-0.346,23.586ZM23.654,-0.414L-0.346,23.586L2.483,26.414L26.483,2.414L23.654,-0.414Z" fill="#D5D7DD"/>
<path d="M23.654,26.414C24.435,27.195 25.702,27.195 26.483,26.414C27.264,25.633 27.264,24.367 26.483,23.586L23.654,26.414ZM2.483,-0.414C1.702,-1.195 0.435,-1.195 -0.346,-0.414C-1.127,0.367 -1.127,1.633 -0.346,2.414L2.483,-0.414ZM26.483,23.586L2.483,-0.414L-0.346,2.414L23.654,26.414L26.483,23.586Z" fill="#D5D7DD"/>
</svg>
