<svg width="76" height="76" viewBox="0 0 76 76" fill="none" xmlns="http://www.w3.org/2000/svg" xmlns:xlink="http://www.w3.org/1999/xlink">
<path d="M45.836,0.442C42.572,0.394 39.496,1.564 37.039,3.59C30.777,8.754 16.301,21.38 3.134,37.909C0.161,41.642 -0.309,46.922 2.646,50.975C4.846,53.994 8.196,58.105 13.046,62.957C17.954,67.865 22.104,71.235 25.129,73.434C29.122,76.33 34.309,75.92 38.026,73.04C54.484,60.294 66.987,45.767 72.251,39.25C74.432,36.566 75.536,33.167 75.349,29.714C75.014,23.7 74.32,17.711 73.271,11.78C72.454,7.19 68.976,3.475 64.351,2.507C58.257,1.239 52.057,0.548 45.834,0.442L45.836,0.442ZM53.834,16.334C53.834,15.567 53.985,14.809 54.278,14.101C54.571,13.393 55.001,12.75 55.543,12.209C56.084,11.667 56.727,11.237 57.435,10.944C58.143,10.651 58.901,10.5 59.667,10.5C60.434,10.5 61.192,10.651 61.9,10.944C62.608,11.237 63.251,11.667 63.792,12.209C64.334,12.75 64.764,13.393 65.057,14.101C65.35,14.809 65.501,15.567 65.501,16.334C65.501,17.881 64.886,19.364 63.792,20.458C62.698,21.552 61.215,22.167 59.667,22.167C58.12,22.167 56.637,21.552 55.543,20.458C54.449,19.364 53.834,17.881 53.834,16.334Z" clip-rule="evenodd" fill-rule="evenodd" fill="#4E4E4E"/>
</svg>
