<svg width="76" height="76" viewBox="0 0 76 76" fill="none" xmlns="http://www.w3.org/2000/svg" xmlns:xlink="http://www.w3.org/1999/xlink">
<path d="M38,0.5C17.289,0.5 0.5,17.289 0.5,38C0.5,58.711 17.289,75.5 38,75.5C58.711,75.5 75.5,58.711 75.5,38C75.5,17.289 58.711,0.5 38,0.5ZM34.667,32.167C34.667,36.635 31.961,40.472 28.099,42.128C30.659,42.95 32.95,44.374 34.804,46.233C32.608,49.621 31.333,53.662 31.333,58L31.333,67.257C22.13,65.168 14.534,58.849 10.698,50.452C10.001,48.927 10.265,47.119 11.476,45.959C13.531,43.993 16.088,42.546 18.936,41.833C15.414,40.044 13,36.387 13,32.167C13,26.184 17.85,21.333 23.833,21.333C29.816,21.333 34.667,26.184 34.667,32.167ZM41.333,32.167C41.333,36.635 44.039,40.472 47.901,42.128C41.19,44.282 36.333,50.574 36.333,58L36.333,66.287C36.333,67.222 37.065,68 38,68C50.126,68 60.572,60.805 65.302,50.451C65.999,48.927 65.735,47.118 64.524,45.959C62.469,43.992 59.912,42.546 57.064,41.832C60.586,40.044 63,36.387 63,32.167C63,26.184 58.15,21.333 52.167,21.333C46.184,21.333 41.333,26.184 41.333,32.167Z" clip-rule="evenodd" fill-rule="evenodd" fill="#4E4E4E"/>
</svg>
