<svg width="76" height="76" viewBox="0 0 76 76" fill="none" xmlns="http://www.w3.org/2000/svg" xmlns:xlink="http://www.w3.org/1999/xlink">
<path d="M74.682,64.425C75.082,58.98 75.502,50.333 75.502,38C75.502,25.667 75.082,17.02 74.682,11.575C74.282,6.113 70.123,1.82 64.628,1.35C59.652,0.923 52.017,0.5 41.335,0.5C30.652,0.5 23.017,0.923 18.042,1.35C12.547,1.82 8.39,6.113 7.988,11.575C7.937,12.275 7.885,13.027 7.833,13.833C6.963,13.835 6.167,13.85 5.458,13.87C2.845,13.947 0.613,15.67 0.52,18.462C0.493,19.265 0.493,20.069 0.52,20.872C0.613,23.663 2.845,25.387 5.458,25.463C6.027,25.48 6.652,25.492 7.325,25.497C7.268,27.721 7.226,29.945 7.202,32.17C6.575,32.177 5.992,32.187 5.458,32.203C2.845,32.28 0.613,34.003 0.52,36.795C0.493,37.598 0.493,38.402 0.52,39.205C0.613,41.997 2.845,43.72 5.458,43.797C5.992,43.813 6.575,43.823 7.202,43.83C7.228,46.218 7.272,48.442 7.327,50.502C6.652,50.508 6.027,50.52 5.458,50.537C2.845,50.613 0.613,52.337 0.52,55.128C0.493,55.931 0.493,56.735 0.52,57.538C0.613,60.33 2.845,62.053 5.458,62.13C6.167,62.15 6.963,62.163 7.833,62.167C7.883,62.973 7.937,63.725 7.988,64.425C8.388,69.887 12.547,74.18 18.042,74.65C23.017,75.075 30.653,75.5 41.335,75.5C52.018,75.5 59.653,75.077 64.628,74.65C70.123,74.18 74.28,69.887 74.682,64.425ZM51.337,31.333C51.337,33.02 50.911,34.68 50.097,36.158C49.284,37.636 48.109,38.884 46.683,39.785C51.42,41.522 55.045,45.477 56.233,50.353C56.75,52.49 55.502,54.52 53.377,55.078C51.002,55.705 47.157,56.333 41.285,56.333C35.413,56.333 31.568,55.705 29.193,55.078C27.068,54.518 25.818,52.49 26.338,50.355C27.53,45.455 31.183,41.485 35.952,39.762C34.488,38.827 33.294,37.527 32.485,35.991C31.677,34.454 31.282,32.734 31.341,30.998C31.399,29.263 31.908,27.573 32.818,26.094C33.728,24.615 35.007,23.399 36.53,22.564C38.053,21.73 39.767,21.307 41.503,21.336C43.239,21.365 44.937,21.845 46.431,22.73C47.925,23.615 49.163,24.874 50.023,26.382C50.883,27.891 51.335,29.597 51.335,31.333L51.337,31.333Z" clip-rule="evenodd" fill-rule="evenodd" fill="#4E4E4E"/>
</svg>
