<svg width="76" height="76" viewBox="0 0 76 76" fill="none" xmlns="http://www.w3.org/2000/svg" xmlns:xlink="http://www.w3.org/1999/xlink">
<path d="M38,0.5C21.689,0.5 12.9,1.679 8.295,2.723C4.352,3.617 2.105,6.935 1.687,10.496C1.169,14.901 0.5,22.28 0.5,31C0.5,31.33 0.501,31.658 0.503,31.985C0.595,48.022 9.079,63.015 23.359,70.575C25.916,71.929 28.51,73.144 30.959,74.025C33.377,74.896 35.811,75.5 38,75.5C40.189,75.5 42.623,74.896 45.041,74.025C47.49,73.144 50.084,71.929 52.641,70.575C66.921,63.015 75.405,48.022 75.497,31.985C75.499,31.658 75.5,31.33 75.5,31C75.5,22.28 74.831,14.901 74.313,10.496C73.895,6.935 71.648,3.617 67.705,2.723C63.1,1.679 54.311,0.5 38,0.5ZM31.565,21.562C31.412,19.401 32.381,17.276 34.482,16.748C35.437,16.508 36.61,16.333 38,16.333C39.39,16.333 40.563,16.508 41.518,16.748C43.619,17.276 44.588,19.401 44.435,21.562C44.117,26.055 43.51,33.86 42.854,38.234C42.638,39.675 41.77,40.915 40.333,41.157C39.719,41.261 38.949,41.333 38,41.333C37.051,41.333 36.281,41.261 35.667,41.157C34.23,40.915 33.362,39.675 33.146,38.234C32.49,33.86 31.883,26.055 31.565,21.562ZM38,58C41.222,58 43.833,55.388 43.833,52.167C43.833,48.945 41.222,46.333 38,46.333C34.778,46.333 32.167,48.945 32.167,52.167C32.167,55.388 34.778,58 38,58Z" clip-rule="evenodd" fill-rule="evenodd" fill="#4E4E4E"/>
</svg>
