<svg width="76" height="62" viewBox="0 0 76 62" fill="none" xmlns="http://www.w3.org/2000/svg" xmlns:xlink="http://www.w3.org/1999/xlink">
<path d="M75.5,30C75.5,38.583 75.352,44.915 75.182,49.348C74.947,55.488 70.106,60.238 63.997,60.452C58.465,60.645 49.997,60.833 38,60.833C26.003,60.833 17.535,60.645 12.003,60.452C5.894,60.238 1.053,55.488 0.818,49.348C0.648,44.915 0.5,38.583 0.5,30C0.5,21.417 0.648,15.085 0.818,10.652C1.053,4.512 5.894,-0.238 12.003,-0.452C17.535,-0.645 26.003,-0.833 38,-0.833C49.997,-0.833 58.465,-0.645 63.997,-0.452C70.106,-0.238 74.947,4.512 75.182,10.652C75.352,15.085 75.5,21.417 75.5,30ZM28.347,31.392C30.173,29.863 31.334,27.567 31.334,25C31.334,20.398 27.603,16.667 23,16.667C18.398,16.667 14.667,20.398 14.667,25C14.667,27.568 15.828,29.864 17.654,31.393C14.574,33.105 12.293,36.25 11.574,40.008C11.291,41.489 12.359,42.776 13.858,42.938C15.679,43.135 18.603,43.333 23.002,43.333C27.4,43.333 30.324,43.135 32.145,42.938C33.644,42.776 34.712,41.489 34.429,40.008C33.711,36.249 31.429,33.104 28.347,31.392ZM48,38.333C46.159,38.333 44.667,39.826 44.667,41.667C44.667,43.508 46.159,45 48,45L61.333,45C63.174,45 64.667,43.508 64.667,41.667C64.667,39.826 63.174,38.333 61.333,38.333L48,38.333ZM44.667,30C44.667,28.159 46.159,26.667 48,26.667L61.333,26.667C63.174,26.667 64.667,28.159 64.667,30C64.667,31.841 63.174,33.333 61.333,33.333L48,33.333C46.159,33.333 44.667,31.841 44.667,30ZM48,15C46.159,15 44.667,16.492 44.667,18.333C44.667,20.174 46.159,21.667 48,21.667L61.333,21.667C63.174,21.667 64.667,20.174 64.667,18.333C64.667,16.492 63.174,15 61.333,15L48,15Z" clip-rule="evenodd" fill-rule="evenodd" fill="#4E4E4E"/>
</svg>
