<svg width="46" height="46" viewBox="0 0 46 46" fill="none" xmlns="http://www.w3.org/2000/svg" xmlns:xlink="http://www.w3.org/1999/xlink">
<path d="M18.803,0.723C19.695,-0.036 20.828,-0.453 21.999,-0.453C23.171,-0.453 24.304,-0.036 25.196,0.723C26.241,1.601 27.638,2.82 29.388,4.442C31.644,4.531 33.406,4.652 34.715,4.765C35.882,4.859 36.978,5.365 37.807,6.193C38.635,7.021 39.141,8.117 39.235,9.285C39.349,10.594 39.469,12.356 39.558,14.612C41.18,16.362 42.398,17.759 43.277,18.804C44.036,19.696 44.453,20.829 44.453,22.001C44.453,23.172 44.036,24.305 43.277,25.197C42.071,26.624 40.831,28.021 39.558,29.387C39.492,31.165 39.384,32.942 39.235,34.715C39.141,35.883 38.635,36.979 37.807,37.807C36.978,38.635 35.882,39.141 34.715,39.235C32.942,39.384 31.166,39.492 29.388,39.558C28.021,40.831 26.623,42.071 25.196,43.277C24.304,44.036 23.171,44.453 21.999,44.453C20.828,44.453 19.695,44.036 18.803,43.277C17.376,42.071 15.979,40.831 14.613,39.558C12.835,39.492 11.058,39.384 9.285,39.235C8.117,39.141 7.021,38.635 6.193,37.807C5.365,36.979 4.859,35.883 4.765,34.715C4.616,32.942 4.508,31.166 4.442,29.388C3.169,28.021 1.929,26.623 0.723,25.196C-0.036,24.304 -0.453,23.171 -0.453,22C-0.453,20.828 -0.036,19.695 0.723,18.803C1.929,17.377 3.169,15.979 4.442,14.613C4.531,12.356 4.652,10.593 4.765,9.285C4.859,8.117 5.365,7.021 6.193,6.193C7.021,5.365 8.117,4.859 9.285,4.765C10.594,4.651 12.356,4.531 14.612,4.442C16.362,2.82 17.759,1.602 18.804,0.723L18.803,0.723ZM22,32C27.523,32 32,27.523 32,22C32,16.477 27.523,12 22,12C16.477,12 12,16.477 12,22C12,27.523 16.477,32 22,32Z" clip-rule="evenodd" fill-rule="evenodd" fill="#10172D"/>
</svg>
