<svg width="76" height="76" viewBox="0 0 76 76" fill="none" xmlns="http://www.w3.org/2000/svg" xmlns:xlink="http://www.w3.org/1999/xlink">
<path d="M11.56,1.407C17.012,0.963 25.665,0.5 38,0.5C50.335,0.5 58.988,0.963 64.44,1.407C69.92,1.852 74.148,6.08 74.593,11.56C75.037,17.012 75.5,25.665 75.5,38C75.5,50.335 75.037,58.988 74.593,64.44C74.148,69.92 69.92,74.148 64.44,74.593C58.988,75.037 50.335,75.5 38,75.5C25.665,75.5 17.012,75.037 11.56,74.593C6.08,74.148 1.852,69.92 1.407,64.44C0.963,58.988 0.5,50.335 0.5,38C0.5,25.665 0.963,17.012 1.407,11.56C1.852,6.08 6.08,1.852 11.56,1.407ZM53.98,57.787C52.403,57.525 51.535,56.072 51.497,54.473C51.425,51.62 51.333,46.272 51.333,37.967C51.333,29.663 51.425,24.315 51.495,21.46C51.535,19.863 52.403,18.41 53.98,18.148C54.758,18.023 55.545,17.963 56.333,17.967C57.262,17.967 58.043,18.042 58.687,18.148C60.263,18.41 61.132,19.863 61.17,21.46C61.242,24.315 61.333,29.663 61.333,37.967C61.333,46.272 61.242,51.62 61.172,54.473C61.132,56.072 60.263,57.525 58.687,57.787C57.908,57.911 57.121,57.971 56.333,57.967C55.545,57.971 54.758,57.911 53.98,57.787ZM33.127,54.333C33.177,56.162 34.31,57.73 36.132,57.892C36.672,57.938 37.293,57.97 38,57.97C38.707,57.97 39.328,57.938 39.867,57.892C41.688,57.73 42.822,56.162 42.873,54.333C42.937,52.15 43,48.703 43,43.802C43,38.902 42.937,35.453 42.873,33.272C42.823,31.443 41.69,29.875 39.868,29.713C39.247,29.659 38.624,29.633 38,29.633C37.293,29.633 36.672,29.665 36.133,29.712C34.312,29.873 33.178,31.442 33.127,33.27C33.035,36.78 32.992,40.291 33,43.802C33,48.702 33.063,52.148 33.127,54.332L33.127,54.333ZM18.3,57.945C16.238,57.87 14.79,56.22 14.728,54.158C14.685,52.65 14.665,51.142 14.667,49.633C14.667,47.783 14.693,46.287 14.728,45.112C14.79,43.05 16.238,41.4 18.3,41.325C19.211,41.292 20.123,41.292 21.033,41.325C23.095,41.4 24.543,43.05 24.605,45.112C24.64,46.287 24.667,47.785 24.667,49.633C24.667,51.483 24.64,52.982 24.605,54.157C24.543,56.218 23.095,57.868 21.033,57.943C20.123,57.977 19.211,57.977 18.3,57.943L18.3,57.945Z" clip-rule="evenodd" fill-rule="evenodd" fill="#4E4E4E"/>
</svg>
