<svg width="72" height="76" viewBox="0 0 72 76" fill="none" xmlns="http://www.w3.org/2000/svg" xmlns:xlink="http://www.w3.org/1999/xlink">
<path d="M36.001,0.5C16.465,0.5 0.168,14.81 0.168,33C0.168,48.338 11.79,60.945 27.118,64.493C27.165,65.297 27.211,66.017 27.26,66.657C27.553,70.518 30.131,73.81 34.203,74.5C35.113,74.653 36.17,74.803 37.395,74.938C37.744,74.977 38.097,74.941 38.432,74.834C38.766,74.726 39.075,74.55 39.336,74.315C39.598,74.081 39.807,73.794 39.951,73.473C40.094,73.152 40.168,72.805 40.168,72.453L40.168,68C40.168,67.337 40.431,66.701 40.9,66.232C41.369,65.763 42.005,65.5 42.668,65.5C43.331,65.5 43.967,65.763 44.436,66.232C44.905,66.701 45.168,67.337 45.168,68L45.168,72.992C45.168,73.65 45.428,74.282 45.891,74.75C46.354,75.218 46.983,75.485 47.641,75.492C49.336,75.51 51.03,75.501 52.725,75.463C53.378,75.449 53.999,75.179 54.456,74.711C54.913,74.244 55.168,73.617 55.168,72.963L55.168,68C55.168,67.337 55.431,66.701 55.9,66.232C56.369,65.763 57.005,65.5 57.668,65.5C58.331,65.5 58.967,65.763 59.436,66.232C59.905,66.701 60.168,67.337 60.168,68L60.168,72.247C60.168,72.604 60.245,72.957 60.393,73.282C60.541,73.608 60.758,73.897 61.027,74.132C61.297,74.366 61.614,74.54 61.956,74.642C62.299,74.744 62.659,74.771 63.013,74.722C63.535,74.65 64.018,74.575 64.466,74.5C68.538,73.81 71.116,70.518 71.41,66.657C71.633,63.713 71.835,59.128 71.835,52.167L71.835,31.333C71.835,31.1 71.801,30.875 71.743,30.662C70.408,13.59 54.698,0.5 36.001,0.5ZM66.835,36.333C66.835,31.745 63.815,28.833 61.001,28.833C58.188,28.833 55.168,31.745 55.168,36.333C55.168,40.922 58.188,43.833 61.001,43.833C63.815,43.833 66.835,40.922 66.835,36.333ZM31.835,36.333C31.835,31.983 35.02,28.833 38.501,28.833C41.983,28.833 45.168,31.983 45.168,36.333C45.168,40.683 41.983,43.833 38.501,43.833C35.02,43.833 31.835,40.683 31.835,36.333Z" clip-rule="evenodd" fill-rule="evenodd" fill="#4E4E4E"/>
</svg>
