<svg width="30" height="30" viewBox="0 0 30 30" fill="none" xmlns="http://www.w3.org/2000/svg" xmlns:xlink="http://www.w3.org/1999/xlink">
<path d="M11.869,-0.185C12.463,-0.691 13.219,-0.969 14,-0.969C14.781,-0.969 15.536,-0.691 16.131,-0.185C16.827,0.401 17.759,1.213 18.925,2.295C20.429,2.354 21.604,2.435 22.477,2.51C23.255,2.572 23.986,2.91 24.538,3.462C25.09,4.014 25.427,4.745 25.49,5.523C25.566,6.396 25.646,7.571 25.705,9.075C26.787,10.241 27.599,11.173 28.185,11.869C28.691,12.464 28.969,13.219 28.969,14C28.969,14.781 28.691,15.537 28.185,16.131C27.381,17.082 26.554,18.014 25.705,18.925C25.661,20.11 25.589,21.295 25.49,22.477C25.427,23.255 25.09,23.986 24.538,24.538C23.986,25.09 23.255,25.428 22.477,25.49C21.295,25.59 20.111,25.661 18.925,25.705C18.014,26.554 17.082,27.381 16.131,28.185C15.536,28.691 14.781,28.969 14,28.969C13.219,28.969 12.463,28.691 11.869,28.185C10.918,27.381 9.986,26.554 9.075,25.705C7.89,25.661 6.705,25.59 5.523,25.49C4.745,25.428 4.014,25.09 3.462,24.538C2.91,23.986 2.572,23.255 2.51,22.477C2.411,21.295 2.339,20.111 2.295,18.925C1.446,18.014 0.619,17.082 -0.185,16.131C-0.691,15.536 -0.969,14.781 -0.969,14C-0.969,13.219 -0.691,12.463 -0.185,11.869C0.619,10.918 1.446,9.986 2.295,9.075C2.354,7.571 2.435,6.395 2.51,5.523C2.572,4.745 2.91,4.014 3.462,3.462C4.014,2.91 4.745,2.572 5.523,2.51C6.396,2.434 7.571,2.354 9.075,2.295C10.241,1.213 11.173,0.401 11.869,-0.185L11.869,-0.185ZM14,20.667C17.682,20.667 20.667,17.682 20.667,14C20.667,10.318 17.682,7.333 14,7.333C10.318,7.333 7.333,10.318 7.333,14C7.333,17.682 10.318,20.667 14,20.667Z" clip-rule="evenodd" fill-rule="evenodd" transform="rotate(-180 14 14)" fill="#10172D"/>
</svg>
