<svg width="76" height="76" viewBox="0 0 76 76" fill="none" xmlns="http://www.w3.org/2000/svg" xmlns:xlink="http://www.w3.org/1999/xlink">
<path d="M11.56,1.407C17.012,0.963 25.665,0.5 38,0.5C50.335,0.5 58.988,0.963 64.44,1.407C69.92,1.852 74.148,6.08 74.593,11.56C74.785,13.925 74.982,16.892 75.143,20.5L0.857,20.5C1.017,16.892 1.213,13.925 1.405,11.56C1.85,6.08 6.078,1.852 11.558,1.407L11.56,1.407ZM0.675,25.5C0.556,29.666 0.497,33.833 0.5,38C0.5,50.335 0.963,58.988 1.407,64.44C1.852,69.92 6.08,74.148 11.56,74.593C14.28,74.815 17.795,75.04 22.167,75.212L22.167,25.5L0.675,25.5ZM27.167,75.37C30.403,75.452 34.008,75.5 38,75.5C50.335,75.5 58.988,75.037 64.44,74.593C69.92,74.148 74.148,69.92 74.593,64.44C75.037,58.988 75.5,50.335 75.5,38C75.5,33.31 75.433,29.152 75.325,25.5L27.167,25.5L27.167,75.37Z" clip-rule="evenodd" fill-rule="evenodd" fill="#4E4E4E"/>
</svg>
