<svg width="76" height="76" viewBox="0 0 76 76" fill="none" xmlns="http://www.w3.org/2000/svg" xmlns:xlink="http://www.w3.org/1999/xlink">
<path d="M45.17,3.121C41.001,-0.489 34.999,-0.489 30.829,3.121C27.512,5.993 22.75,10.338 16.545,16.544C10.339,22.75 5.994,27.511 3.122,30.829C-0.488,34.999 -0.488,41 3.122,45.17C5.994,48.487 10.339,53.249 16.545,59.455C22.75,65.66 27.512,70.005 30.829,72.878C34.999,76.488 41.001,76.488 45.17,72.878C48.488,70.005 53.249,65.66 59.455,59.455C65.661,53.249 70.006,48.487 72.878,45.17C76.488,41 76.488,34.999 72.878,30.829C70.006,27.511 65.661,22.75 59.455,16.544C53.249,10.338 48.488,5.993 45.17,3.121ZM31.565,23.228C31.412,21.067 32.381,18.942 34.482,18.414C35.437,18.174 36.61,17.999 38,17.999C39.39,17.999 40.563,18.174 41.518,18.414C43.619,18.942 44.588,21.067 44.435,23.228C44.117,27.721 43.51,35.526 42.854,39.9C42.638,41.341 41.77,42.581 40.333,42.823C39.718,42.927 38.949,43 38,43C37.051,43 36.281,42.927 35.667,42.823C34.23,42.581 33.362,41.341 33.146,39.9C32.49,35.526 31.883,27.721 31.565,23.228ZM38,59.666C41.222,59.666 43.833,57.055 43.833,53.833C43.833,50.611 41.222,48 38,48C34.778,48 32.167,50.611 32.167,53.833C32.167,57.055 34.778,59.666 38,59.666Z" clip-rule="evenodd" fill-rule="evenodd" fill="#4E4E4E"/>
</svg>
