<svg width="76" height="76" viewBox="0 0 76 76" fill="none" xmlns="http://www.w3.org/2000/svg" xmlns:xlink="http://www.w3.org/1999/xlink">
<path d="M74.593,64.44C75.036,58.988 75.5,50.336 75.5,38C75.5,25.664 75.036,17.012 74.593,11.56C74.148,6.08 69.92,1.852 64.44,1.407C58.988,0.963 50.336,0.5 38,0.5C25.664,0.5 17.012,0.963 11.56,1.406C6.08,1.852 1.852,6.08 1.406,11.559C0.963,17.012 0.5,25.664 0.5,38C0.5,50.336 0.963,58.988 1.406,64.44C1.852,69.92 6.08,74.148 11.559,74.593C17.012,75.036 25.664,75.5 38,75.5C50.336,75.5 58.988,75.036 64.44,74.593C69.92,74.148 74.148,69.92 74.593,64.44ZM42.477,58.293C45.068,60.172 48.638,59.81 50.765,57.419C57.059,50.347 61.097,44.035 63.117,40.556C64.175,38.735 64.457,36.476 62.879,35.081C62.458,34.708 61.99,34.362 61.505,34.063C59.465,32.807 57.183,34.057 55.655,35.903C53.15,38.93 49.16,43.682 46.291,46.77C45.734,47.37 44.823,47.456 44.168,46.963C41.619,45.045 38.441,42.313 35.905,40.067C33.369,37.819 29.546,37.734 27.116,40.096C22.952,44.141 18.657,48.883 15.074,53.078C12.796,55.745 12.524,59.645 15.152,61.969C15.542,62.314 15.96,62.659 16.406,62.996C16.724,63.236 17.043,63.461 17.358,63.672C20.454,65.738 24.309,64.111 26.265,60.945C27.943,58.228 30.029,54.97 31.906,52.383C32.452,51.631 33.51,51.503 34.243,52.076C35.975,53.429 39.177,55.901 42.477,58.293ZM13,16.333C13,14.492 14.492,13 16.333,13L33,13C34.841,13 36.333,14.492 36.333,16.333C36.333,18.174 34.841,19.667 33,19.667L16.333,19.667C14.492,19.667 13,18.174 13,16.333ZM16.333,26.333C14.492,26.333 13,27.826 13,29.667C13,31.508 14.492,33 16.333,33L26.333,33C28.174,33 29.667,31.508 29.667,29.667C29.667,27.826 28.174,26.333 26.333,26.333L16.333,26.333Z" clip-rule="evenodd" fill-rule="evenodd" fill="#4E4E4E"/>
</svg>
