<svg width="36" height="38" viewBox="0 0 36 38" fill="none" xmlns="http://www.w3.org/2000/svg" xmlns:xlink="http://www.w3.org/1999/xlink">
<path d="M13.817,0.048C14.488,-0.304 15.782,-0.75 18,-0.75C20.219,-0.75 21.513,-0.304 22.185,0.048C22.695,0.315 22.994,0.74 23.164,1.095C23.405,1.599 23.934,2.737 24.397,3.969C25.293,4.378 26.148,4.873 26.949,5.445C28.249,5.228 29.5,5.12 30.059,5.076C30.45,5.046 30.967,5.093 31.454,5.401C32.096,5.806 33.129,6.703 34.238,8.625C35.348,10.547 35.608,11.89 35.639,12.648C35.663,13.223 35.444,13.694 35.222,14.019C34.632,14.881 34.007,15.718 33.347,16.528C33.44,17.507 33.44,18.493 33.347,19.472C34.007,20.282 34.632,21.119 35.222,21.981C35.444,22.306 35.663,22.776 35.639,23.352C35.608,24.11 35.347,25.453 34.239,27.375C33.129,29.297 32.095,30.194 31.454,30.6C30.968,30.908 30.451,30.954 30.059,30.924C29.018,30.845 27.98,30.721 26.949,30.555C26.148,31.127 25.293,31.622 24.397,32.031C24.026,33.006 23.615,33.965 23.164,34.905C22.994,35.26 22.695,35.684 22.185,35.952C21.513,36.303 20.219,36.75 18,36.75C15.782,36.75 14.488,36.304 13.815,35.952C13.305,35.685 13.007,35.26 12.837,34.905C12.595,34.401 12.066,33.263 11.604,32.031C10.708,31.622 9.853,31.127 9.051,30.555C7.751,30.772 6.499,30.88 5.941,30.924C5.549,30.954 5.033,30.907 4.546,30.599C3.904,30.194 2.871,29.297 1.763,27.375C0.653,25.453 0.392,24.11 0.361,23.352C0.338,22.777 0.556,22.306 0.778,21.981C1.367,21.119 1.993,20.282 2.653,19.472C2.56,18.493 2.56,17.507 2.653,16.528C1.993,15.718 1.367,14.881 0.778,14.019C0.556,13.694 0.338,13.224 0.361,12.648C0.393,11.89 0.653,10.547 1.762,8.625C2.871,6.703 3.905,5.806 4.546,5.4C5.033,5.092 5.549,5.046 5.942,5.076C6.5,5.119 7.75,5.229 9.05,5.445C9.852,4.872 10.707,4.378 11.604,3.969C11.974,2.994 12.386,2.035 12.837,1.095C13.007,0.74 13.305,0.316 13.815,0.048L13.817,0.048ZM24.667,18C24.667,19.768 23.965,21.464 22.714,22.714C21.464,23.964 19.768,24.667 18,24.667C16.232,24.667 14.536,23.964 13.286,22.714C12.036,21.464 11.334,19.768 11.334,18C11.334,16.232 12.036,14.536 13.286,13.286C14.536,12.036 16.232,11.333 18,11.333C19.768,11.333 21.464,12.036 22.714,13.286C23.965,14.536 24.667,16.232 24.667,18Z" clip-rule="evenodd" fill-rule="evenodd" fill="#535C68"/>
</svg>
