<svg width="38" height="38" viewBox="0 0 38 38" fill="none" xmlns="http://www.w3.org/2000/svg" xmlns:xlink="http://www.w3.org/1999/xlink">
<path d="M4.78,-0.297C7.506,-0.518 11.833,-0.75 18,-0.75C24.168,-0.75 28.494,-0.518 31.22,-0.297C33.96,-0.074 36.074,2.04 36.297,4.78C36.393,5.963 36.491,7.446 36.572,9.25L-0.572,9.25C-0.492,7.446 -0.393,5.963 -0.297,4.78C-0.075,2.04 2.039,-0.074 4.779,-0.297L4.78,-0.297ZM-0.662,11.75C-0.722,13.833 -0.751,15.916 -0.75,18C-0.75,24.167 -0.518,28.494 -0.297,31.22C-0.074,33.96 2.04,36.074 4.78,36.297C6.14,36.407 7.898,36.52 10.083,36.606L10.083,11.75L-0.662,11.75ZM12.583,36.685C14.202,36.726 16.004,36.75 18,36.75C24.168,36.75 28.494,36.518 31.22,36.297C33.96,36.074 36.074,33.96 36.297,31.22C36.518,28.494 36.75,24.167 36.75,18C36.75,15.655 36.717,13.576 36.663,11.75L12.583,11.75L12.583,36.685Z" clip-rule="evenodd" fill-rule="evenodd" fill="#FFFFFF"/>
</svg>
