<svg width="70" height="76" viewBox="0 0 70 76" fill="none" xmlns="http://www.w3.org/2000/svg" xmlns:xlink="http://www.w3.org/1999/xlink">
<path d="M33.998,0.5C23.343,0.5 15.723,0.862 10.758,1.225C5.281,1.625 1.006,5.818 0.57,11.32C0.195,16.037 -0.167,23.153 -0.167,33L-0.167,66.137C-0.175,66.962 -0.137,67.787 -0.044,68.607C0.496,73.33 4.895,75.227 8.41,75.295C13.076,75.387 21.393,75.5 33.998,75.5C49.85,75.5 59.765,75.322 63.741,75.232C64.408,75.215 65.073,75.2 65.738,75.182C66.401,75.162 67.029,74.879 67.483,74.397C67.938,73.914 68.182,73.27 68.162,72.607C68.142,71.945 67.86,71.317 67.377,70.862C66.894,70.408 66.251,70.163 65.588,70.183L64.831,70.203L64.831,60.212C65.906,59.332 66.769,58.222 67.358,56.965C67.947,55.707 68.248,54.334 68.236,52.945C68.198,48.672 68.165,42.222 68.165,33C68.165,23.153 67.801,16.038 67.426,11.32C66.99,5.818 62.715,1.627 57.238,1.225C52.275,0.862 44.656,0.5 33.998,0.5ZM34.01,62.167C42.47,62.167 59.831,62.297 59.831,62.297L59.831,70.307C59.831,70.307 46.068,70.5 33.998,70.5C21.421,70.5 13.138,70.387 8.508,70.297C7.083,70.268 5.115,69.713 4.925,68.038C4.796,66.905 4.796,65.761 4.925,64.628C5.116,62.955 7.083,62.398 8.508,62.37L34.008,62.167L34.01,62.167ZM23.998,14.667C22.23,14.667 20.534,15.369 19.284,16.619C18.034,17.87 17.331,19.565 17.331,21.333L17.331,23.667L17.34,23.675C17.698,37.17 28.75,48 42.331,48L43.998,48C45.766,48 47.462,47.298 48.712,46.047C49.962,44.797 50.665,43.101 50.665,41.333L50.665,39.337C50.665,38.462 50.39,37.609 49.878,36.9C49.367,36.19 48.645,35.66 47.815,35.383L43.108,33.815C42.374,33.57 41.586,33.535 40.833,33.712C40.079,33.89 39.39,34.274 38.843,34.822L36.741,36.923C34.863,36.166 33.157,35.038 31.725,33.606C30.293,32.174 29.165,30.468 28.408,28.59L30.51,26.488C31.057,25.941 31.441,25.252 31.619,24.499C31.797,23.746 31.761,22.958 31.516,22.223L29.948,17.515C29.671,16.685 29.141,15.964 28.431,15.453C27.722,14.942 26.869,14.667 25.995,14.667L23.998,14.667Z" clip-rule="evenodd" fill-rule="evenodd" fill="#4E4E4E"/>
</svg>
