<svg width="76" height="76" viewBox="0 0 76 76" fill="none" xmlns="http://www.w3.org/2000/svg" xmlns:xlink="http://www.w3.org/1999/xlink">
<path d="M32.672,2.538C34.158,1.273 36.047,0.578 37.999,0.578C39.951,0.578 41.84,1.273 43.327,2.538C45.068,4.002 47.397,6.033 50.313,8.737C54.073,8.885 57.01,9.087 59.192,9.275C61.138,9.431 62.964,10.275 64.345,11.655C65.725,13.036 66.569,14.862 66.725,16.808C66.915,18.99 67.115,21.927 67.263,25.687C69.967,28.603 71.997,30.932 73.462,32.673C74.727,34.16 75.422,36.049 75.422,38.001C75.422,39.953 74.727,41.842 73.462,43.328C71.452,45.706 69.385,48.034 67.263,50.312C67.153,53.275 66.974,56.236 66.725,59.192C66.569,61.138 65.725,62.964 64.345,64.345C62.964,65.725 61.138,66.569 59.192,66.725C56.237,66.974 53.277,67.153 50.313,67.263C48.035,69.386 45.705,71.452 43.327,73.462C41.84,74.727 39.951,75.422 37.999,75.422C36.047,75.422 34.158,74.727 32.672,73.462C30.294,71.452 27.966,69.385 25.688,67.263C22.725,67.153 19.764,66.974 16.808,66.725C14.862,66.569 13.036,65.725 11.655,64.345C10.275,62.964 9.431,61.138 9.275,59.192C9.026,56.237 8.847,53.277 8.737,50.313C6.614,48.035 4.548,45.705 2.538,43.327C1.273,41.84 0.578,39.951 0.578,37.999C0.578,36.047 1.273,34.158 2.538,32.672C4.548,30.294 6.614,27.966 8.737,25.688C8.885,21.927 9.087,18.988 9.275,16.808C9.431,14.862 10.275,13.036 11.655,11.655C13.036,10.275 14.862,9.431 16.808,9.275C18.99,9.085 21.927,8.885 25.687,8.737C28.603,6.033 30.932,4.003 32.673,2.538L32.672,2.538ZM38,54.667C47.205,54.667 54.667,47.205 54.667,38C54.667,28.795 47.205,21.333 38,21.333C28.795,21.333 21.333,28.795 21.333,38C21.333,47.205 28.795,54.667 38,54.667Z" clip-rule="evenodd" fill-rule="evenodd" fill="#4E4E4E"/>
</svg>
