<svg width="72" height="76" viewBox="0 0 72 76" fill="none" xmlns="http://www.w3.org/2000/svg" xmlns:xlink="http://www.w3.org/1999/xlink">
<path d="M27.634,2.097C28.976,1.392 31.564,0.5 36.001,0.5C40.437,0.5 43.026,1.392 44.371,2.097C45.391,2.63 45.987,3.48 46.327,4.19C46.811,5.198 47.869,7.473 48.794,9.938C50.586,10.757 52.296,11.745 53.899,12.89C56.499,12.457 59.001,12.24 60.117,12.152C60.901,12.092 61.934,12.185 62.909,12.802C64.192,13.612 66.259,15.407 68.476,19.25C70.696,23.093 71.216,25.78 71.277,27.297C71.326,28.447 70.889,29.388 70.444,30.038C69.265,31.762 68.014,33.436 66.694,35.055C66.879,37.014 66.879,38.986 66.694,40.945C68.013,42.564 69.265,44.238 70.444,45.962C70.889,46.612 71.326,47.552 71.277,48.703C71.216,50.22 70.694,52.907 68.477,56.75C66.257,60.593 64.191,62.388 62.909,63.2C61.936,63.817 60.902,63.908 60.117,63.848C58.035,63.689 55.96,63.443 53.899,63.11C52.296,64.255 50.586,65.243 48.794,66.062C48.052,68.011 47.229,69.929 46.327,71.81C45.987,72.52 45.391,73.368 44.371,73.903C43.026,74.607 40.437,75.5 36.001,75.5C31.564,75.5 28.976,74.608 27.631,73.903C26.611,73.37 26.014,72.52 25.674,71.81C25.191,70.802 24.132,68.527 23.207,66.062C21.415,65.243 19.706,64.255 18.102,63.11C15.502,63.543 12.999,63.76 11.882,63.848C11.099,63.908 10.066,63.815 9.092,63.198C7.809,62.388 5.742,60.593 3.526,56.75C1.306,52.907 0.784,50.22 0.722,48.703C0.676,47.553 1.112,46.612 1.556,45.962C2.735,44.238 3.986,42.564 5.306,40.945C5.12,38.986 5.12,37.014 5.306,35.055C3.986,33.436 2.735,31.762 1.556,30.038C1.112,29.388 0.676,28.448 0.722,27.297C0.786,25.78 1.306,23.093 3.524,19.25C5.742,15.407 7.811,13.612 9.092,12.8C10.066,12.183 11.099,12.092 11.884,12.152C13.001,12.238 15.501,12.458 18.101,12.89C19.704,11.745 21.415,10.757 23.207,9.938C23.949,7.989 24.772,6.071 25.674,4.19C26.014,3.48 26.611,2.632 27.631,2.097L27.634,2.097ZM49.334,38C49.334,41.536 47.929,44.928 45.429,47.428C42.928,49.929 39.537,51.333 36.001,51.333C32.464,51.333 29.073,49.929 26.572,47.428C24.072,44.928 22.667,41.536 22.667,38C22.667,34.464 24.072,31.072 26.572,28.572C29.073,26.071 32.464,24.667 36.001,24.667C39.537,24.667 42.928,26.071 45.429,28.572C47.929,31.072 49.334,34.464 49.334,38Z" clip-rule="evenodd" fill-rule="evenodd" fill="#4E4E4E"/>
</svg>
