<svg width="76" height="76" viewBox="0 0 76 76" fill="none" xmlns="http://www.w3.org/2000/svg" xmlns:xlink="http://www.w3.org/1999/xlink">
<path d="M74.593,64.44C75.036,58.988 75.5,50.336 75.5,38C75.5,25.664 75.036,17.012 74.593,11.56C74.148,6.08 69.92,1.852 64.44,1.406C58.988,0.963 50.336,0.5 38,0.5C25.664,0.5 17.012,0.963 11.56,1.406C6.08,1.852 1.852,6.08 1.406,11.559C0.963,17.012 0.5,25.664 0.5,38C0.5,50.336 0.963,58.988 1.406,64.44C1.852,69.92 6.08,74.148 11.56,74.593C17.012,75.036 25.664,75.5 38,75.5C50.336,75.5 58.988,75.036 64.44,74.593C69.92,74.148 74.148,69.92 74.593,64.44ZM28,25.5C33.245,25.5 36.729,25.417 38.709,25.349C40.266,25.295 41.745,24.294 41.983,22.58C42.088,21.823 42.167,20.858 42.167,19.667C42.167,18.475 42.088,17.511 41.983,16.754C41.745,15.039 40.266,14.038 38.709,13.984C36.729,13.916 33.245,13.833 28,13.833C22.755,13.833 19.272,13.916 17.291,13.984C15.734,14.038 14.255,15.039 14.017,16.754C13.912,17.511 13.833,18.475 13.833,19.667C13.833,20.858 13.912,21.823 14.017,22.58C14.255,24.294 15.734,25.295 17.291,25.349C19.272,25.417 22.755,25.5 28,25.5ZM31.333,50.5C38.534,50.5 43.074,50.6 45.385,50.671C46.818,50.714 48.255,51.569 48.563,53.18C48.715,53.976 48.833,55.018 48.833,56.333C48.833,57.648 48.715,58.691 48.563,59.487C48.255,61.098 46.818,61.952 45.385,61.996C43.074,62.067 38.534,62.167 31.333,62.167C24.133,62.167 19.592,62.067 17.281,61.996C15.848,61.952 14.412,61.098 14.104,59.487C13.952,58.691 13.833,57.648 13.833,56.333C13.833,55.018 13.952,53.976 14.104,53.18C14.412,51.569 15.848,50.714 17.281,50.671C19.592,50.6 24.133,50.5 31.333,50.5ZM58.69,43.639C55.906,43.708 49.292,43.833 38,43.833C26.708,43.833 20.094,43.708 17.31,43.639C16.096,43.609 14.773,42.993 14.334,41.604C14.065,40.751 13.833,39.562 13.833,38C13.833,36.438 14.065,35.249 14.334,34.396C14.773,33.007 16.096,32.391 17.31,32.361C20.094,32.292 26.708,32.167 38,32.167C49.292,32.167 55.906,32.292 58.69,32.361C59.904,32.391 61.227,33.007 61.666,34.396C61.935,35.249 62.167,36.438 62.167,38C62.167,39.562 61.935,40.751 61.666,41.604C61.227,42.993 59.904,43.609 58.69,43.639Z" clip-rule="evenodd" fill-rule="evenodd" fill="#4E4E4E"/>
</svg>
