<svg width="66" height="80" viewBox="0 0 66 80" fill="none" xmlns="http://www.w3.org/2000/svg" xmlns:xlink="http://www.w3.org/1999/xlink">
<path d="M32.001,0.8C20.106,0.8 12.72,1.857 8.332,2.891C3.739,3.974 1.149,7.949 0.836,12.17C0.427,17.695 -0.086,27.819 -0.086,43.888C-0.086,56.646 0.101,65.014 0.34,70.505C0.495,74.056 2.016,77.129 4.988,78.507C7.892,79.853 11.244,79.136 14.143,77.233L27.474,68.484C30.223,66.681 33.78,66.681 36.528,68.484L49.859,77.233C52.759,79.136 56.11,79.853 59.015,78.507C61.987,77.129 63.508,74.056 63.662,70.505C63.901,65.014 64.088,56.646 64.088,43.888C64.088,27.819 63.576,17.695 63.167,12.17C62.854,7.949 60.264,3.974 55.67,2.891C51.283,1.857 43.896,0.8 32.001,0.8Z" fill="#4E4E4E"/>
</svg>
