<svg width="36" height="38" viewBox="0 0 36 38" fill="none" xmlns="http://www.w3.org/2000/svg" xmlns:xlink="http://www.w3.org/1999/xlink">
<path d="M0.179,34.739C0.154,33.539 0.082,29.082 0.082,18C0.082,6.918 0.154,2.461 0.179,1.261C0.185,0.958 0.243,0.142 0.983,-0.353C1.341,-0.592 1.806,-0.75 2.374,-0.75C2.94,-0.75 3.407,-0.592 3.765,-0.353C4.505,0.142 4.563,0.958 4.569,1.261C4.594,2.461 4.665,6.918 4.665,18C4.665,29.082 4.594,33.539 4.569,34.739C4.563,35.042 4.505,35.858 3.765,36.353C3.406,36.592 2.941,36.75 2.374,36.75C1.807,36.75 1.34,36.592 0.983,36.353C0.243,35.858 0.185,35.042 0.179,34.739ZM23.752,3.609C22.369,3.503 20.286,3.417 17.165,3.417C14.045,3.417 11.963,3.503 10.579,3.609C8.347,3.781 6.862,5.477 6.787,7.634C6.76,8.45 6.747,9.267 6.749,10.083C6.747,10.9 6.76,11.716 6.787,12.533C6.862,14.689 8.347,16.386 10.579,16.557C11.962,16.664 14.045,16.75 17.165,16.75C20.286,16.75 22.368,16.663 23.752,16.557C25.984,16.386 27.469,14.689 27.544,12.533C27.571,11.716 27.583,10.9 27.582,10.083C27.583,9.267 27.571,8.45 27.544,7.634C27.469,5.477 25.984,3.781 23.752,3.609ZM31.839,19.501C29.918,19.371 26.693,19.25 21.332,19.25C15.971,19.25 12.746,19.371 10.824,19.5C8.593,19.652 6.907,21.272 6.799,23.558C6.769,24.204 6.749,24.983 6.749,25.917C6.749,26.851 6.769,27.629 6.799,28.275C6.907,30.561 8.593,32.182 10.824,32.333C12.746,32.462 15.971,32.583 21.332,32.583C26.693,32.583 29.918,32.462 31.84,32.333C34.071,32.182 35.757,30.561 35.865,28.275C35.895,27.629 35.915,26.851 35.915,25.917C35.915,24.983 35.895,24.204 35.865,23.558C35.757,21.272 34.071,19.652 31.84,19.5L31.839,19.501Z" clip-rule="evenodd" fill-rule="evenodd" fill="#535C68"/>
</svg>
