<svg width="76" height="54" viewBox="0 0 76 54" fill="none" xmlns="http://www.w3.org/2000/svg" xmlns:xlink="http://www.w3.org/1999/xlink">
<path d="M65.543,52.97C62.938,53.122 58.517,52.995 51.66,51.713C47.383,50.913 44.105,50.163 41.645,49.523C39.782,49.038 38.54,47.763 38.218,46.203C37.897,44.643 38.532,42.978 40.038,41.783C41.73,40.443 43.955,38.745 46.865,36.625C44.803,32.336 42.39,28.224 39.652,24.332C38.412,25.297 37.168,26.256 35.918,27.208C32.818,29.576 29.673,31.885 26.485,34.135C25.38,34.915 24.028,35.266 22.683,35.123C21.337,34.98 20.09,34.352 19.173,33.357C9.035,22.32 3.213,11.611 1.143,7.433C0.488,6.111 0.245,4.363 1.375,2.991C1.928,2.32 2.737,1.541 3.913,0.721C4.772,0.121 5.542,-0.3 6.213,-0.595C8.333,-1.532 10.305,-0.254 11.428,1.278C14.398,5.33 20.783,13.885 24.778,18.128C28.688,15.311 34.222,10.495 37.722,7.366C39.902,5.42 43.247,5.316 45.4,7.406C49.262,11.153 53.3,15.751 57.023,19.99L57.037,20.007C58.771,21.997 60.526,23.969 62.302,25.923C64.444,24.505 66.613,23.128 68.807,21.792C70.447,20.8 72.223,20.783 73.573,21.623C74.923,22.463 75.69,24.065 75.502,25.975C75.257,28.498 74.832,31.825 74.108,36.108C72.952,42.953 71.547,47.13 70.505,49.515C70.086,50.499 69.398,51.344 68.521,51.955C67.643,52.566 66.611,52.918 65.543,52.97Z" fill="#4E4E4E"/>
</svg>
