<svg width="76" height="76" viewBox="0 0 76 76" fill="none" xmlns="http://www.w3.org/2000/svg" xmlns:xlink="http://www.w3.org/1999/xlink">
<path d="M33,0.5C42.838,0.5 49.947,0.844 54.662,1.198C60.156,1.61 64.39,5.844 64.802,11.338C65.134,15.761 65.458,22.292 65.496,31.206C62.203,29.683 58.534,28.833 54.667,28.833C40.399,28.833 28.833,40.399 28.833,54.667C28.833,58.534 29.683,62.203 31.206,65.496C22.292,65.458 15.761,65.134 11.338,64.802C5.844,64.39 1.61,60.156 1.198,54.662C0.844,49.947 0.5,42.838 0.5,33C0.5,23.162 0.844,16.053 1.198,11.338C1.61,5.844 5.844,1.61 11.338,1.198C16.053,0.844 23.162,0.5 33,0.5ZM16.333,13C14.492,13 13,14.492 13,16.333C13,18.174 14.492,19.667 16.333,19.667L49.667,19.667C51.508,19.667 53,18.174 53,16.333C53,14.492 51.508,13 49.667,13L16.333,13ZM13,31.333C13,29.492 14.492,28 16.333,28L28,28C29.841,28 31.333,29.492 31.333,31.333C31.333,33.174 29.841,34.667 28,34.667L16.333,34.667C14.492,34.667 13,33.174 13,31.333ZM54.667,33.833C43.161,33.833 33.833,43.161 33.833,54.667C33.833,66.173 43.161,75.5 54.667,75.5C66.173,75.5 75.5,66.173 75.5,54.667C75.5,43.161 66.173,33.833 54.667,33.833ZM54.667,41.333C56.508,41.333 58,42.826 58,44.667L58,53.286L63.69,58.976C64.992,60.278 64.992,62.389 63.69,63.69C62.389,64.992 60.278,64.992 58.976,63.69L52.31,57.024C51.684,56.398 51.333,55.551 51.333,54.667L51.333,44.667C51.333,42.826 52.826,41.333 54.667,41.333Z" clip-rule="evenodd" fill-rule="evenodd" fill="#4E4E4E"/>
</svg>
