<svg width="74" height="74" viewBox="0 0 74 74" fill="none" xmlns="http://www.w3.org/2000/svg" xmlns:xlink="http://www.w3.org/1999/xlink">
<path d="M17.717,1.292C15.689,-0.492 12.621,-1.555 9.809,0.137C8.367,1.005 6.576,2.358 4.469,4.467C2.361,6.573 1.009,8.363 0.141,9.805C-1.553,12.617 -0.489,15.685 1.294,17.713C3.892,20.668 9.037,26.297 18.547,35.997C9.036,45.698 3.889,51.33 1.291,54.285C-0.493,56.313 -1.556,59.38 0.137,62.192C1.004,63.633 2.357,65.425 4.466,67.532C6.574,69.64 8.364,70.992 9.806,71.86C12.617,73.553 15.684,72.49 17.714,70.707C20.668,68.108 26.298,62.962 36.001,53.45C45.701,62.962 51.333,68.108 54.288,70.707C56.316,72.49 59.384,73.553 62.196,71.86C63.638,70.993 65.428,69.64 67.534,67.532C69.643,65.423 70.996,63.633 71.864,62.192C73.556,59.38 72.493,56.312 70.709,54.283C68.113,51.328 62.966,45.7 53.454,35.997C62.964,26.297 68.109,20.668 70.706,17.713C72.489,15.685 73.553,12.617 71.861,9.805C70.993,8.363 69.639,6.573 67.531,4.467C65.424,2.358 63.634,1.005 62.193,0.137C59.381,-1.555 56.313,-0.492 54.284,1.292C51.329,3.888 45.701,9.033 36.001,18.543C26.301,9.033 20.673,3.888 17.717,1.292Z" fill="#4E4E4E"/>
</svg>
