<svg width="38" height="38" viewBox="0 0 38 38" fill="none" xmlns="http://www.w3.org/2000/svg" xmlns:xlink="http://www.w3.org/1999/xlink">
<path d="M15.5,-0.75C20.419,-0.75 23.974,-0.578 26.331,-0.401C29.078,-0.195 31.195,1.922 31.401,4.669C31.567,6.881 31.729,10.146 31.748,14.603C30.101,13.841 28.267,13.417 26.333,13.417C19.2,13.417 13.417,19.2 13.417,26.333C13.417,28.267 13.842,30.101 14.603,31.748C10.146,31.729 6.881,31.567 4.669,31.401C1.922,31.195 -0.195,29.078 -0.401,26.331C-0.578,23.974 -0.75,20.419 -0.75,15.5C-0.75,10.581 -0.578,7.026 -0.401,4.669C-0.195,1.922 1.922,-0.195 4.669,-0.401C7.026,-0.578 10.581,-0.75 15.5,-0.75ZM7.167,5.5C6.246,5.5 5.5,6.246 5.5,7.167C5.5,8.087 6.246,8.833 7.167,8.833L23.833,8.833C24.754,8.833 25.5,8.087 25.5,7.167C25.5,6.246 24.754,5.5 23.833,5.5L7.167,5.5ZM5.5,14.667C5.5,13.746 6.246,13 7.167,13L13,13C13.921,13 14.667,13.746 14.667,14.667C14.667,15.587 13.921,16.333 13,16.333L7.167,16.333C6.246,16.333 5.5,15.587 5.5,14.667ZM26.333,15.917C20.58,15.917 15.917,20.58 15.917,26.333C15.917,32.086 20.58,36.75 26.333,36.75C32.086,36.75 36.75,32.086 36.75,26.333C36.75,20.58 32.086,15.917 26.333,15.917ZM26.333,19.667C27.254,19.667 28,20.413 28,21.333L28,25.643L30.845,28.488C31.496,29.139 31.496,30.194 30.845,30.845C30.194,31.496 29.139,31.496 28.488,30.845L25.155,27.512C24.842,27.199 24.667,26.775 24.667,26.333L24.667,21.333C24.667,20.413 25.413,19.667 26.333,19.667Z" clip-rule="evenodd" fill-rule="evenodd" fill="#535C68"/>
</svg>
