<svg width="78" height="76" viewBox="0 0 78 76" fill="none" xmlns="http://www.w3.org/2000/svg" xmlns:xlink="http://www.w3.org/1999/xlink">
<path d="M7.475,17.3C7.555,15.625 7.642,14.137 7.733,12.829C8.167,6.522 13.013,1.579 19.358,1.105C23.613,0.789 29.775,0.5 38.088,0.5C38.63,0.5 39.162,0.5 39.683,0.504C40.788,0.508 41.846,0.952 42.624,1.737C43.402,2.522 43.837,3.583 43.832,4.689C43.827,5.794 43.383,6.851 42.598,7.629C41.813,8.407 40.752,8.842 39.647,8.837L38.088,8.834C29.967,8.834 24.013,9.117 19.977,9.417C17.805,9.579 16.198,11.187 16.047,13.4C15.967,14.559 15.888,15.872 15.815,17.35C17.127,17.459 18.398,17.617 19.59,17.822C22.5,18.327 23.84,21.624 22.205,24.022C19.582,27.865 16.057,31.7 14.283,33.555C13.903,33.954 13.446,34.272 12.94,34.49C12.434,34.708 11.889,34.821 11.337,34.823C10.786,34.825 10.24,34.715 9.733,34.5C9.225,34.285 8.766,33.97 8.383,33.574C6.545,31.677 2.803,27.665 0.343,23.942C-1.26,21.519 0.162,18.335 2.977,17.84C4.466,17.583 5.967,17.403 7.475,17.3ZM70.498,11.334C70.498,9.509 70.038,7.714 69.159,6.115C68.281,4.517 67.012,3.166 65.472,2.188C63.932,1.21 62.17,0.636 60.35,0.521C58.529,0.406 56.708,0.752 55.057,1.528C53.406,2.304 51.978,3.485 50.905,4.96C49.831,6.435 49.148,8.157 48.918,9.967C48.688,11.777 48.919,13.616 49.589,15.312C50.259,17.009 51.347,18.509 52.752,19.674C48.197,21.827 44.792,26.069 43.715,31.185C43.2,33.624 45.28,35.502 47.52,35.502L71.617,35.502C73.857,35.502 75.937,33.624 75.423,31.185C74.355,26.114 71.002,21.904 66.507,19.732C67.755,18.717 68.761,17.437 69.451,15.984C70.142,14.531 70.5,12.942 70.498,11.334ZM5.498,51.334C5.498,49.509 5.959,47.714 6.838,46.116C7.716,44.517 8.984,43.166 10.524,42.188C12.064,41.21 13.827,40.637 15.647,40.521C17.468,40.406 19.288,40.752 20.939,41.528C22.59,42.304 24.019,43.485 25.092,44.96C26.165,46.435 26.849,48.158 27.079,49.967C27.309,51.777 27.078,53.616 26.408,55.313C25.737,57.009 24.65,58.509 23.245,59.674C27.8,61.827 31.205,66.069 32.282,71.185C32.797,73.624 30.717,75.502 28.477,75.502L4.38,75.502C2.14,75.502 0.06,73.624 0.573,71.185C1.642,66.114 4.995,61.904 9.49,59.732C8.242,58.717 7.236,57.437 6.545,55.984C5.855,54.531 5.497,52.942 5.498,51.334ZM73.022,58.16C71.532,58.418 70.03,58.598 68.522,58.7C68.451,60.192 68.365,61.682 68.263,63.172C67.83,69.48 62.98,74.422 56.637,74.895C53.313,75.142 48.828,75.372 43.063,75.462C42.516,75.47 41.973,75.371 41.464,75.17C40.955,74.968 40.491,74.668 40.098,74.288C39.705,73.907 39.391,73.452 39.174,72.95C38.956,72.448 38.84,71.907 38.832,71.36C38.823,70.813 38.922,70.27 39.124,69.761C39.325,69.252 39.625,68.788 40.006,68.395C40.387,68.002 40.842,67.688 41.344,67.471C41.846,67.253 42.386,67.137 42.933,67.129C48.545,67.042 52.867,66.819 56.017,66.585C58.192,66.422 59.798,64.814 59.95,62.6C60.03,61.442 60.108,60.129 60.182,58.65C58.87,58.542 57.598,58.384 56.407,58.179C53.497,57.674 52.157,54.377 53.792,51.979C56.415,48.135 59.942,44.3 61.713,42.445C62.094,42.046 62.551,41.728 63.057,41.51C63.563,41.292 64.108,41.179 64.659,41.178C65.211,41.176 65.756,41.286 66.264,41.5C66.772,41.715 67.231,42.03 67.613,42.427C69.452,44.324 73.193,48.335 75.653,52.059C77.257,54.482 75.835,57.665 73.02,58.16L73.022,58.16Z" clip-rule="evenodd" fill-rule="evenodd" fill="#4E4E4E"/>
</svg>
