<svg width="80" height="62" viewBox="0 0 80 62" fill="none" xmlns="http://www.w3.org/2000/svg" xmlns:xlink="http://www.w3.org/1999/xlink">
<path d="M63.923,30.892C66.753,33.976 69.465,37.117 72.032,40.282C73.759,38.96 75.505,37.605 77.253,36.223C77.96,35.664 78.464,34.917 78.584,34.024C78.841,32.1 79.201,27.608 79.201,17.532C79.201,6.839 78.796,1.818 78.538,-0.295C78.461,-0.925 77.765,-1.181 77.271,-0.782C69.055,5.84 62.035,12.066 61.954,12.138L61.953,12.136C61.953,12.136 56.893,10.314 50.823,9.737C50.63,9.719 50.437,9.707 50.244,9.703C48.193,9.648 46.2,10.389 44.565,11.655C44.43,11.76 44.294,11.865 44.159,11.97L44.195,12.001C38.244,16.785 33.79,21.183 31.214,23.893C29.661,25.528 29.413,28.048 30.969,29.68C32.34,31.119 33.677,31.99 34.695,32.507C35.82,33.078 37.119,32.864 38.184,32.188C40.465,30.74 44.821,27.793 49.583,23.626C51.625,25.895 55.262,28.34 60.078,26.809L60.081,26.812C61.428,26.384 62.869,25.643 64.392,24.501L65.706,23.515C66.86,22.649 68.498,22.883 69.365,24.038C70.23,25.193 69.996,26.831 68.842,27.697L67.528,28.682C66.328,29.582 65.124,30.316 63.923,30.892ZM2.75,36.224C15.335,46.174 27.766,54.726 34.607,59.292C37.901,61.49 42.141,61.54 45.47,59.397C50.578,56.11 58.792,50.628 68.064,43.688C64.997,39.9 61.713,36.144 58.268,32.484C54.865,32.769 51.947,31.779 49.644,30.391C46.006,33.302 42.858,35.415 40.985,36.604C38.809,37.986 35.522,38.792 32.328,37.171C30.838,36.415 29.007,35.202 27.184,33.291C23.319,29.236 24.363,23.518 27.424,20.297C29.346,18.274 32.246,15.376 35.986,12.082C35.803,11.939 35.62,11.797 35.436,11.655C33.662,10.281 31.467,9.526 29.233,9.735C23.139,10.306 18.049,12.139 18.049,12.139C18.049,12.139 10.995,5.879 2.731,-0.782C2.237,-1.181 1.54,-0.925 1.463,-0.295C1.206,1.818 0.801,6.839 0.801,17.532C0.801,27.608 1.161,32.1 1.418,34.024C1.537,34.917 2.043,35.665 2.75,36.224Z" clip-rule="evenodd" fill-rule="evenodd" fill="#4E4E4E"/>
</svg>
