<svg width="80" height="78" viewBox="0 0 80 78" fill="none" xmlns="http://www.w3.org/2000/svg" xmlns:xlink="http://www.w3.org/1999/xlink">
<path d="M48.205,-0.744C49.716,-0.744 50.94,0.48 50.94,1.991L50.94,4.726L53.675,4.726C55.186,4.726 56.41,5.95 56.41,7.461C56.41,8.971 55.186,10.195 53.675,10.195L50.94,10.195L50.94,12.93C50.94,14.441 49.716,15.665 48.205,15.665C46.695,15.665 45.471,14.441 45.471,12.93L45.471,10.195L42.736,10.195C41.225,10.195 40.001,8.971 40.001,7.461C40.001,5.95 41.225,4.726 42.736,4.726L45.471,4.726L45.471,1.991C45.471,0.48 46.695,-0.744 48.205,-0.744ZM28.566,30.197C28.566,44.178 39.9,55.512 53.881,55.512C55.924,55.512 57.91,55.27 59.813,54.813C61.291,54.458 62.72,55.8 62.131,57.202C57.3,68.683 45.945,76.744 32.708,76.744C15.086,76.744 0.801,62.459 0.801,44.837C0.801,27.215 15.086,12.93 32.708,12.93C33.75,12.93 34.256,14.172 33.63,15.005C30.45,19.236 28.566,24.497 28.566,30.197ZM65.205,44.661C64.729,46.111 62.677,46.111 62.201,44.661L59.256,35.707C59.099,35.23 58.724,34.855 58.248,34.698L49.293,31.753C47.843,31.277 47.843,29.225 49.293,28.749L58.248,25.804C58.724,25.647 59.099,25.272 59.256,24.796L62.201,15.841C62.677,14.391 64.729,14.391 65.205,15.841L68.15,24.796C68.307,25.272 68.682,25.647 69.159,25.804L78.113,28.749C79.563,29.225 79.563,31.277 78.113,31.753L69.159,34.698C68.682,34.855 68.307,35.23 68.15,35.707L65.205,44.661Z" clip-rule="evenodd" fill-rule="evenodd" fill="#4E4E4E"/>
</svg>
