<svg width="76" height="80" viewBox="0 0 76 80" fill="none" xmlns="http://www.w3.org/2000/svg" xmlns:xlink="http://www.w3.org/1999/xlink">
<path d="M64.637,19.881C62.648,25.3 57.442,29.167 51.333,29.167C45.269,29.167 40.095,25.357 38.074,20L38,20C16.397,20 7.325,19.836 4.635,19.773C3.787,19.753 1.815,19.471 0.975,17.517C0.679,16.827 0.5,15.992 0.5,15C0.5,14.009 0.679,13.174 0.975,12.483C1.815,10.53 3.787,10.247 4.635,10.227C7.325,10.164 16.397,10 38,10L38.074,10C40.095,4.643 45.269,0.833 51.333,0.833C57.442,0.833 62.648,4.7 64.637,10.12C68.175,10.16 70.285,10.202 71.365,10.227C72.213,10.247 74.185,10.53 75.025,12.483C75.322,13.174 75.5,14.009 75.5,15C75.5,15.992 75.322,16.827 75.025,17.517C74.185,19.471 72.213,19.753 71.365,19.773C70.285,19.798 68.175,19.84 64.637,19.881ZM51.333,9.167C54.555,9.167 57.167,11.778 57.167,15C57.167,18.222 54.555,20.833 51.333,20.833C48.112,20.833 45.5,18.222 45.5,15C45.5,11.778 48.112,9.167 51.333,9.167ZM38,35C59.603,35 68.675,35.164 71.365,35.227C72.213,35.247 74.185,35.53 75.025,37.483C75.322,38.174 75.5,39.009 75.5,40C75.5,40.992 75.322,41.827 75.025,42.517C74.185,44.471 72.213,44.753 71.365,44.773C68.675,44.836 59.603,45 38,45L37.926,45C35.905,50.357 30.731,54.167 24.667,54.167C18.558,54.167 13.352,50.3 11.363,44.881C7.825,44.84 5.715,44.798 4.635,44.773C3.787,44.753 1.815,44.471 0.975,42.517C0.679,41.827 0.5,40.992 0.5,40C0.5,39.009 0.679,38.173 0.975,37.483C1.815,35.53 3.787,35.247 4.635,35.227C5.715,35.202 7.825,35.16 11.363,35.119C13.352,29.7 18.558,25.833 24.667,25.833C30.731,25.833 35.905,29.643 37.926,35L38,35ZM24.667,34.167C21.445,34.167 18.833,36.778 18.833,40C18.833,43.222 21.445,45.833 24.667,45.833C27.888,45.833 30.5,43.222 30.5,40C30.5,36.778 27.888,34.167 24.667,34.167ZM38,60L38.074,60C40.095,54.643 45.269,50.833 51.333,50.833C57.442,50.833 62.648,54.7 64.637,60.119C68.175,60.16 70.285,60.202 71.365,60.227C72.213,60.247 74.185,60.53 75.025,62.483C75.322,63.174 75.5,64.009 75.5,65C75.5,65.992 75.322,66.827 75.025,67.517C74.185,69.471 72.213,69.753 71.365,69.773C70.285,69.798 68.175,69.84 64.637,69.881C62.648,75.3 57.442,79.167 51.333,79.167C45.269,79.167 40.095,75.357 38.074,70L38,70C16.397,70 7.325,69.836 4.635,69.773C3.787,69.753 1.815,69.471 0.975,67.517C0.679,66.827 0.5,65.992 0.5,65C0.5,64.009 0.679,63.173 0.975,62.483C1.815,60.53 3.787,60.247 4.635,60.227C7.325,60.164 16.397,60 38,60ZM51.333,59.167C54.555,59.167 57.167,61.778 57.167,65C57.167,68.222 54.555,70.833 51.333,70.833C48.112,70.833 45.5,68.222 45.5,65C45.5,61.778 48.112,59.167 51.333,59.167Z" clip-rule="evenodd" fill-rule="evenodd" fill="#4E4E4E"/>
</svg>
