<svg width="48" height="48" viewBox="0 0 48 48" fill="none" xmlns="http://www.w3.org/2000/svg" xmlns:xlink="http://www.w3.org/1999/xlink">
<path d="M28.923,0.754C29.829,0.754 30.564,1.488 30.564,2.394L30.564,4.035L32.205,4.035C33.111,4.035 33.846,4.77 33.846,5.676C33.846,6.583 33.111,7.317 32.205,7.317L30.564,7.317L30.564,8.958C30.564,9.864 29.829,10.599 28.923,10.599C28.017,10.599 27.282,9.864 27.282,8.958L27.282,7.317L25.641,7.317C24.735,7.317 24,6.583 24,5.676C24,4.77 24.735,4.035 25.641,4.035L27.282,4.035L27.282,2.394C27.282,1.488 28.017,0.754 28.923,0.754ZM17.139,19.318C17.139,27.707 23.94,34.508 32.328,34.508C33.554,34.508 34.746,34.362 35.888,34.088C36.775,33.875 37.632,34.68 37.278,35.521C34.38,42.41 27.567,47.247 19.625,47.247C9.052,47.247 0.48,38.676 0.48,28.102C0.48,17.529 9.052,8.958 19.625,8.958C20.25,8.958 20.554,9.703 20.178,10.203C18.27,12.742 17.139,15.898 17.139,19.318ZM39.123,27.997C38.837,28.867 37.606,28.867 37.32,27.997L35.553,22.624C35.459,22.338 35.235,22.113 34.949,22.019L29.576,20.252C28.706,19.966 28.706,18.735 29.576,18.449L34.949,16.682C35.235,16.588 35.459,16.364 35.553,16.077L37.32,10.705C37.606,9.835 38.837,9.835 39.123,10.705L40.89,16.077C40.984,16.364 41.209,16.588 41.495,16.682L46.868,18.449C47.738,18.735 47.738,19.966 46.868,20.252L41.495,22.019C41.209,22.113 40.984,22.338 40.89,22.624L39.123,27.997Z" clip-rule="evenodd" fill-rule="evenodd" fill="#535C68"/>
</svg>
