<svg width="32" height="32" viewBox="0 0 32 32" fill="none" xmlns="http://www.w3.org/2000/svg" xmlns:xlink="http://www.w3.org/1999/xlink">
<path d="M19.349,0C19.965,0 20.465,0.506 20.465,1.129L20.465,2.259L21.581,2.259C22.198,2.259 22.698,2.764 22.698,3.388C22.698,4.012 22.198,4.518 21.581,4.518L20.465,4.518L20.465,5.647C20.465,6.271 19.965,6.776 19.349,6.776C18.732,6.776 18.233,6.271 18.233,5.647L18.233,4.518L17.116,4.518C16.5,4.518 16,4.012 16,3.388C16,2.765 16.5,2.259 17.116,2.259L18.233,2.259L18.233,1.129C18.233,0.506 18.732,0 19.349,0ZM11.333,12.778C11.333,18.552 15.959,23.232 21.665,23.232C22.499,23.232 23.31,23.132 24.087,22.943C24.69,22.797 25.273,23.351 25.033,23.93C23.061,28.671 18.426,32 13.023,32C5.831,32 0,26.101 0,18.824C0,11.546 5.831,5.647 13.023,5.647C13.449,5.647 13.655,6.16 13.4,6.504C12.102,8.251 11.333,10.424 11.333,12.778ZM26.288,18.751C26.093,19.35 25.256,19.35 25.061,18.751L23.859,15.053C23.795,14.856 23.642,14.701 23.448,14.637L19.793,13.42C19.201,13.224 19.201,12.376 19.793,12.18L23.448,10.963C23.642,10.899 23.795,10.744 23.859,10.547L25.061,6.849C25.256,6.25 26.093,6.25 26.288,6.849L27.49,10.547C27.554,10.744 27.706,10.899 27.901,10.963L31.556,12.18C32.148,12.376 32.148,13.224 31.556,13.42L27.901,14.637C27.706,14.701 27.554,14.856 27.49,15.053L26.288,18.751Z" clip-rule="evenodd" fill-rule="evenodd" fill="#535C68"/>
</svg>
