<svg width="76" height="76" viewBox="0 0 76 76" fill="none" xmlns="http://www.w3.org/2000/svg" xmlns:xlink="http://www.w3.org/1999/xlink">
<path d="M29.669,7.824C30.205,3.485 34.033,0.274 38.515,0.855C57.578,3.326 72.674,18.421 75.145,37.485C75.726,41.966 72.515,45.795 68.176,46.33C64.743,46.754 59.684,47.166 53,47.166C46.18,47.166 41.051,46.737 37.615,46.304C33.429,45.777 30.222,42.571 29.695,38.384C29.263,34.949 28.833,29.82 28.833,23C28.833,16.316 29.246,11.257 29.669,7.824ZM0.5,41.334C0.5,26.313 10.194,13.555 23.668,8.977C23.302,12.498 23,17.173 23,23C23,30.066 23.445,35.437 23.908,39.113C24.768,45.944 30.056,51.232 36.887,52.092C40.562,52.555 45.934,53 53,53C58.828,53 63.503,52.697 67.025,52.331C62.447,65.806 49.689,75.501 34.667,75.501C15.797,75.501 0.5,60.204 0.5,41.334Z" clip-rule="evenodd" fill-rule="evenodd" fill="#4E4E4E"/>
</svg>
