<svg width="78" height="78" viewBox="0 0 78 78" fill="none" xmlns="http://www.w3.org/2000/svg" xmlns:xlink="http://www.w3.org/1999/xlink">
<path d="M6.335,3C6.335,2.116 5.983,1.268 5.358,0.643C4.733,0.018 3.885,-0.333 3.001,-0.333C2.117,-0.333 1.269,0.018 0.644,0.643C0.019,1.268 -0.332,2.116 -0.332,3C-0.332,30.21 0.171,56.91 0.396,67.487C0.439,69.626 1.308,71.666 2.821,73.179C4.334,74.692 6.374,75.561 8.513,75.605C19.093,75.83 45.793,76.333 73.001,76.333C73.885,76.333 74.733,75.982 75.358,75.357C75.983,74.732 76.335,73.884 76.335,73C76.335,72.116 75.983,71.268 75.358,70.643C74.733,70.018 73.885,69.667 73.001,69.667C45.861,69.667 19.215,69.165 8.656,68.94C8.235,68.933 7.833,68.763 7.536,68.466C7.238,68.168 7.068,67.766 7.061,67.345C6.835,56.787 6.335,30.14 6.335,3ZM41.851,40.205L42.166,40.367C42.825,40.71 43.766,41.195 44.898,41.768C47.645,43.168 50.413,44.526 53.201,45.842C54.733,46.569 56.475,46.72 58.109,46.268C59.743,45.817 61.16,44.792 62.101,43.382C68.001,34.518 71.328,26.925 72.823,23.068C73.54,21.218 73.59,18.718 71.588,17.357C70.583,16.683 69.48,16.169 68.318,15.833C65.851,15.132 63.868,16.895 62.786,18.677C60.581,22.313 56.57,28.832 53.886,32.627C50.598,31.062 46.06,28.438 42.623,26.382C39.486,24.505 35.376,25.065 33.085,28.008C28.963,33.305 24.801,39.537 21.511,44.813C19.786,47.58 20.088,51.33 22.966,53.257C24.723,54.438 26.63,55.378 28.636,56.052C31.931,57.162 35.07,55.088 36.325,52.11C37.816,48.565 39.956,43.705 41.853,40.205L41.851,40.205Z" clip-rule="evenodd" fill-rule="evenodd" fill="#4E4E4E"/>
</svg>
