<svg width="76" height="72" viewBox="0 0 76 72" fill="none" xmlns="http://www.w3.org/2000/svg" xmlns:xlink="http://www.w3.org/1999/xlink">
<path d="M41.001,8.317C40.742,12.162 40.5,18.612 40.5,29.333C40.5,40.054 40.742,46.505 41.001,50.349C41.303,54.811 44.544,58.182 49.118,58.399C50.408,58.46 51.965,58.5 53.833,58.5C55.702,58.5 57.259,58.46 58.549,58.399C63.122,58.182 66.364,54.811 66.665,50.349C66.925,46.505 67.167,40.054 67.167,29.333C67.167,18.612 66.925,12.162 66.665,8.317C66.364,3.855 63.122,0.484 58.549,0.267C57.259,0.206 55.702,0.167 53.833,0.167C51.965,0.167 50.408,0.206 49.118,0.267C44.544,0.484 41.303,3.855 41.001,8.317ZM9.219,24.493C9.006,27.261 8.833,31.425 8.833,37.667C8.833,43.909 9.006,48.072 9.219,50.84C9.562,55.304 12.955,58.274 17.269,58.424C18.586,58.47 20.201,58.5 22.167,58.5C24.132,58.5 25.747,58.47 27.064,58.424C31.378,58.274 34.771,55.304 35.115,50.84C35.327,48.072 35.5,43.909 35.5,37.667C35.5,31.425 35.327,27.261 35.115,24.493C34.771,20.03 31.378,17.059 27.064,16.909C25.747,16.864 24.132,16.833 22.167,16.833C20.201,16.833 18.586,16.864 17.269,16.909C12.955,17.059 9.562,20.029 9.219,24.493ZM71.479,71.64C69.079,71.689 60.163,71.833 38,71.833C15.837,71.833 6.921,71.689 4.521,71.64C3.917,71.628 2.283,71.512 1.293,70.032C0.815,69.316 0.5,68.385 0.5,67.25C0.5,66.115 0.815,65.184 1.293,64.468C2.283,62.988 3.917,62.872 4.521,62.86C6.921,62.81 15.837,62.667 38,62.667C60.163,62.667 69.079,62.81 71.479,62.86C72.083,62.872 73.717,62.988 74.707,64.468C75.185,65.184 75.5,66.115 75.5,67.25C75.5,68.385 75.185,69.316 74.707,70.032C73.717,71.512 72.083,71.628 71.479,71.64Z" clip-rule="evenodd" fill-rule="evenodd" fill="#4E4E4E"/>
</svg>
