<svg width="76" height="76" viewBox="0 0 76 76" fill="none" xmlns="http://www.w3.org/2000/svg" xmlns:xlink="http://www.w3.org/1999/xlink">
<path d="M10.097,61.688C11.308,61.96 12.833,62.167 14.667,62.167C16.501,62.167 18.025,61.96 19.237,61.688C22.415,60.974 23.833,58.047 23.833,55.509L23.833,31.333C23.833,18.337 23.683,10.433 23.589,6.746C23.531,4.477 22.286,1.763 19.34,1.027C18.139,0.727 16.592,0.5 14.667,0.5C12.741,0.5 11.194,0.727 9.993,1.027C7.047,1.763 5.803,4.477 5.744,6.746C5.65,10.433 5.5,18.337 5.5,31.333L5.5,55.509C5.5,58.047 6.919,60.974 10.097,61.688ZM34.882,62.06C35.78,62.124 36.819,62.167 38,62.167C39.181,62.167 40.22,62.124 41.118,62.06C44.872,61.789 47.167,58.573 47.167,55.262L47.167,46.333C47.167,42.053 47.093,38.932 47.016,36.833C46.904,33.77 44.75,30.907 41.303,30.625C40.382,30.55 39.285,30.5 38,30.5C36.715,30.5 35.618,30.55 34.697,30.625C31.25,30.907 29.096,33.77 28.983,36.833C28.906,38.932 28.833,42.053 28.833,46.333L28.833,55.262C28.833,58.573 31.128,61.789 34.882,62.06ZM61.333,62.167C59.861,62.167 58.598,62.07 57.546,61.932C54.03,61.47 52.167,58.361 52.167,55.421L52.167,39.667C52.167,31.673 52.281,26.399 52.373,23.438C52.456,20.754 54.159,17.905 57.425,17.429C58.478,17.275 59.774,17.167 61.333,17.167C62.892,17.167 64.189,17.275 65.242,17.429C68.508,17.905 70.211,20.754 70.294,23.438C70.386,26.399 70.5,31.673 70.5,39.667L70.5,55.421C70.5,58.361 68.637,61.47 65.121,61.932C64.069,62.07 62.806,62.167 61.333,62.167ZM4.667,67.167C2.365,67.167 0.5,69.032 0.5,71.333C0.5,73.635 2.365,75.5 4.667,75.5L71.333,75.5C73.635,75.5 75.5,73.635 75.5,71.333C75.5,69.032 73.635,67.167 71.333,67.167L4.667,67.167Z" clip-rule="evenodd" fill-rule="evenodd" fill="#4E4E4E"/>
</svg>
