<svg width="76" height="40" viewBox="0 0 76 40" fill="none" xmlns="http://www.w3.org/2000/svg" xmlns:xlink="http://www.w3.org/1999/xlink">
<path d="M14.667,39.167C11.937,39.167 9.728,39.071 7.997,38.943C3.854,38.638 0.925,35.311 0.736,31.343C0.611,28.73 0.5,24.996 0.5,20C0.5,15.004 0.611,11.27 0.736,8.657C0.925,4.689 3.854,1.362 7.997,1.057C9.728,0.929 11.937,0.833 14.667,0.833C17.396,0.833 19.605,0.929 21.337,1.057C25.479,1.362 28.408,4.689 28.597,8.657C28.722,11.27 28.833,15.004 28.833,20C28.833,24.996 28.722,28.73 28.597,31.343C28.408,35.311 25.479,38.638 21.337,38.943C19.605,39.071 17.396,39.167 14.667,39.167ZM44.667,39.167C42.6,39.167 40.875,39.093 39.468,38.987C35.325,38.677 32.533,35.301 32.373,31.427C32.265,28.816 32.167,25.056 32.167,20C32.167,14.944 32.265,11.184 32.373,8.573C32.533,4.699 35.325,1.323 39.468,1.013C40.875,0.907 42.6,0.833 44.667,0.833C46.734,0.833 48.458,0.907 49.865,1.013C54.009,1.323 56.8,4.699 56.96,8.573C57.069,11.184 57.167,14.944 57.167,20C57.167,25.056 57.069,28.816 56.96,31.427C56.8,35.301 54.009,38.677 49.865,38.987C48.458,39.093 46.734,39.167 44.667,39.167ZM66.28,39.07C66.818,39.129 67.398,39.167 68,39.167C68.602,39.167 69.182,39.129 69.72,39.07C73.294,38.681 75.29,35.528 75.362,32.544C75.427,29.814 75.5,25.535 75.5,20C75.5,14.465 75.427,10.187 75.362,7.457C75.29,4.472 73.294,1.319 69.72,0.93C69.182,0.871 68.602,0.833 68,0.833C67.398,0.833 66.818,0.871 66.28,0.93C62.706,1.319 60.709,4.472 60.638,7.457C60.573,10.187 60.5,14.465 60.5,20C60.5,25.535 60.573,29.814 60.638,32.543C60.709,35.528 62.706,38.681 66.28,39.07Z" clip-rule="evenodd" fill-rule="evenodd" fill="#4E4E4E"/>
</svg>
