<svg width="76" height="76" viewBox="0 0 76 76" fill="none" xmlns="http://www.w3.org/2000/svg" xmlns:xlink="http://www.w3.org/1999/xlink">
<path d="M34.458,0.5C15.703,0.5 0.5,15.712 0.5,34.473C0.5,53.237 15.703,68.448 34.458,68.448C41.092,68.448 47.285,66.543 52.517,63.252C52.925,63.743 53.333,64.235 53.738,64.727L53.743,64.73L53.753,64.743C56.01,67.468 58.252,70.173 60.725,72.845C63.695,76.053 68.317,76.495 71.537,73.378C72.161,72.774 72.776,72.158 73.38,71.533C76.495,68.312 76.052,63.688 72.847,60.717C70.177,58.24 67.473,55.998 64.75,53.74L64.732,53.723C64.238,53.315 63.745,52.907 63.25,52.493C66.635,47.093 68.426,40.847 68.417,34.473C68.417,15.712 53.212,0.5 34.457,0.5L34.458,0.5ZM34.667,8.833C20.4,8.833 8.833,20.4 8.833,34.667C8.833,48.933 20.4,60.5 34.667,60.5C48.933,60.5 60.5,48.933 60.5,34.667C60.5,20.4 48.933,8.833 34.667,8.833ZM38,18C38,17.116 37.649,16.268 37.024,15.643C36.399,15.018 35.551,14.667 34.667,14.667C33.783,14.667 32.935,15.018 32.31,15.643C31.685,16.268 31.333,17.116 31.333,18L31.333,35.333C31.333,35.785 31.425,36.233 31.603,36.648C31.782,37.064 32.042,37.439 32.37,37.75L44.037,48.833C44.678,49.442 45.534,49.772 46.418,49.749C47.302,49.727 48.141,49.354 48.75,48.713C49.359,48.072 49.689,47.216 49.666,46.332C49.644,45.448 49.271,44.609 48.63,44L38,33.902L38,18Z" clip-rule="evenodd" fill-rule="evenodd" fill="#4E4E4E"/>
</svg>
