<svg width="74" height="76" viewBox="0 0 74 76" fill="none" xmlns="http://www.w3.org/2000/svg" xmlns:xlink="http://www.w3.org/1999/xlink">
<path d="M23.225,6.647C24.369,4.535 26.063,2.772 28.126,1.543C30.19,0.315 32.547,-0.334 34.948,-0.333L37.048,-0.333C39.45,-0.334 41.807,0.315 43.871,1.543C45.934,2.772 47.627,4.535 48.772,6.647C54.238,6.758 58.54,6.928 61.678,7.087C66.128,7.31 70.618,9.72 71.992,14.437C72.17,15.048 72.335,15.698 72.482,16.383C73.382,20.59 70.187,24.025 66.23,24.358C61.137,24.79 51.875,25.275 35.96,25.275C20.048,25.275 10.787,24.79 5.694,24.358C1.767,24.027 -1.536,20.57 -0.403,16.323C-0.09,15.145 0.297,14.073 0.702,13.123C2.382,9.188 6.349,7.33 10.202,7.117C13.224,6.95 17.54,6.767 23.225,6.647ZM5.272,29.342C4.883,29.308 4.497,29.255 4.114,29.183C5.482,49.262 6.767,60.08 7.564,65.473C8.117,69.225 10.647,72.502 14.607,73.453C18.682,74.432 25.523,75.498 36.002,75.498C46.478,75.498 53.322,74.432 57.397,73.453C61.355,72.502 63.887,69.225 64.44,65.473C65.237,60.078 66.522,49.257 67.89,29.17C67.481,29.249 67.067,29.306 66.652,29.342C61.377,29.787 51.965,30.275 35.96,30.275C19.957,30.275 10.547,29.787 5.272,29.342Z" clip-rule="evenodd" fill-rule="evenodd" fill="#4E4E4E"/>
</svg>
