<svg width="76" height="76" viewBox="0 0 76 76" fill="none" xmlns="http://www.w3.org/2000/svg" xmlns:xlink="http://www.w3.org/1999/xlink">
<path d="M48.222,7.216C48.547,9.646 48.833,13.162 48.833,18C48.833,22.838 48.547,26.354 48.222,28.784C47.714,32.586 44.582,35.057 41.002,35.22C37.911,35.361 32.804,35.5 24.667,35.5C16.53,35.5 11.422,35.361 8.331,35.22C4.751,35.057 1.619,32.586 1.111,28.784C0.787,26.354 0.5,22.838 0.5,18C0.5,13.162 0.787,9.646 1.111,7.216C1.619,3.413 4.751,0.943 8.331,0.78C11.422,0.639 16.53,0.5 24.667,0.5C32.804,0.5 37.911,0.639 41.002,0.78C44.582,0.943 47.714,3.413 48.222,7.216ZM74.889,47.216C75.213,49.646 75.5,53.162 75.5,58C75.5,62.838 75.213,66.354 74.889,68.784C74.381,72.587 71.249,75.057 67.669,75.22C64.578,75.361 59.47,75.5 51.333,75.5C43.196,75.5 38.088,75.361 34.998,75.22C31.418,75.057 28.286,72.587 27.778,68.784C27.453,66.354 27.167,62.838 27.167,58C27.167,53.162 27.453,49.646 27.778,47.216C28.286,43.413 31.418,40.943 34.998,40.78C38.088,40.639 43.196,40.5 51.333,40.5C59.47,40.5 64.578,40.639 67.669,40.78C71.249,40.943 74.381,43.413 74.889,47.216ZM11.333,75.5C13.548,75.5 15.264,75.361 16.585,75.163C20.105,74.637 21.816,71.589 21.941,68.762C22.049,66.318 22.167,62.604 22.167,58C22.167,53.396 22.049,49.682 21.941,47.238C21.816,44.411 20.105,41.363 16.585,40.837C15.264,40.64 13.548,40.5 11.333,40.5C9.119,40.5 7.403,40.64 6.081,40.837C2.561,41.363 0.85,44.411 0.725,47.238C0.617,49.682 0.5,53.396 0.5,58C0.5,62.604 0.617,66.318 0.725,68.762C0.85,71.589 2.561,74.637 6.081,75.163C7.403,75.361 9.119,75.5 11.333,75.5ZM69.919,35.163C68.597,35.36 66.881,35.5 64.667,35.5C62.452,35.5 60.736,35.36 59.414,35.163C55.894,34.637 54.184,31.589 54.059,28.762C53.951,26.318 53.833,22.604 53.833,18C53.833,13.396 53.951,9.682 54.059,7.238C54.184,4.411 55.894,1.363 59.414,0.837C60.736,0.64 62.452,0.5 64.667,0.5C66.881,0.5 68.597,0.64 69.919,0.837C73.439,1.363 75.15,4.411 75.275,7.238C75.383,9.682 75.5,13.396 75.5,18C75.5,22.604 75.383,26.318 75.275,28.762C75.15,31.589 73.439,34.637 69.919,35.163Z" clip-rule="evenodd" fill-rule="evenodd" fill="#4E4E4E"/>
</svg>
