<svg width="38" height="34" viewBox="0 0 38 34" fill="none" xmlns="http://www.w3.org/2000/svg" xmlns:xlink="http://www.w3.org/1999/xlink">
<path d="M4.248,9.333C4.248,4.041 8.539,-0.25 13.832,-0.25C19.124,-0.25 23.415,4.041 23.415,9.333C23.415,12.725 21.653,15.706 18.994,17.409C23.014,18.91 26.16,22.001 27.43,25.886C28.366,28.75 26.248,31.237 23.598,31.629C21.411,31.951 18.125,32.25 13.449,32.25C8.773,32.25 5.486,31.951 3.3,31.629C0.649,31.237 -1.469,28.75 -0.533,25.886C0.789,21.842 4.146,18.658 8.403,17.232C5.894,15.504 4.248,12.611 4.248,9.333ZM29.806,25.109C30.734,27.948 29.785,30.447 28.045,32.098C29.992,31.98 31.548,31.808 32.765,31.629C35.415,31.237 37.533,28.75 36.597,25.886C35.327,22.001 32.18,18.91 28.161,17.409C30.82,15.706 32.582,12.725 32.582,9.333C32.582,4.041 28.291,-0.25 22.998,-0.25C22.443,-0.25 21.898,-0.203 21.368,-0.112C24.139,2.102 25.915,5.51 25.915,9.333C25.915,12.158 24.945,14.755 23.324,16.81C26.341,18.78 28.677,21.656 29.806,25.109Z" clip-rule="evenodd" fill-rule="evenodd" fill="#535C68"/>
</svg>
