<svg width="72" height="76" viewBox="0 0 72 76" fill="none" xmlns="http://www.w3.org/2000/svg" xmlns:xlink="http://www.w3.org/1999/xlink">
<path d="M0.361,71.478C0.311,69.078 0.168,60.163 0.168,38C0.168,15.837 0.311,6.922 0.361,4.522C0.373,3.917 0.49,2.283 1.97,1.293C2.686,0.815 3.616,0.5 4.751,0.5C5.885,0.5 6.818,0.817 7.533,1.293C9.013,2.283 9.13,3.917 9.141,4.522C9.191,6.922 9.335,15.837 9.335,38C9.335,60.163 9.191,69.078 9.141,71.478C9.13,72.083 9.013,73.717 7.533,74.707C6.816,75.185 5.886,75.5 4.751,75.5C3.618,75.5 2.685,75.183 1.97,74.707C0.49,73.717 0.373,72.083 0.361,71.478ZM47.508,9.218C44.741,9.007 40.576,8.833 34.335,8.833C28.093,8.833 23.93,9.007 21.161,9.218C16.698,9.562 13.728,12.955 13.578,17.268C13.524,18.901 13.499,20.534 13.501,22.167C13.499,23.8 13.524,25.433 13.578,27.065C13.728,31.378 16.698,34.772 21.161,35.115C23.928,35.328 28.093,35.5 34.335,35.5C40.576,35.5 44.74,35.327 47.508,35.115C51.971,34.772 54.941,31.378 55.091,27.065C55.145,25.433 55.171,23.8 55.168,22.167C55.171,20.534 55.145,18.901 55.091,17.268C54.941,12.955 51.971,9.562 47.508,9.218ZM63.683,41.002C59.84,40.742 53.39,40.5 42.668,40.5C31.946,40.5 25.496,40.742 21.651,41C17.19,41.303 13.818,44.545 13.601,49.117C13.541,50.408 13.501,51.965 13.501,53.833C13.501,55.702 13.541,57.258 13.601,58.55C13.818,63.122 17.19,66.363 21.651,66.667C25.496,66.925 31.946,67.167 42.668,67.167C53.39,67.167 59.84,66.925 63.685,66.667C68.146,66.363 71.518,63.122 71.735,58.55C71.795,57.258 71.835,55.702 71.835,53.833C71.835,51.965 71.795,50.408 71.735,49.117C71.518,44.545 68.146,41.303 63.685,41L63.683,41.002Z" clip-rule="evenodd" fill-rule="evenodd" fill="#4E4E4E"/>
</svg>
