<svg width="74" height="80" viewBox="0 0 74 80" fill="none" xmlns="http://www.w3.org/2000/svg" xmlns:xlink="http://www.w3.org/1999/xlink">
<path d="M42.236,0.8C30.675,0.8 23.77,1.123 19.689,1.467C15.36,1.832 12.334,5.052 12.113,9.35C12.056,10.456 12.008,11.755 11.979,13.272L8.411,13.272C3.766,13.272 -0.188,16.873 -0.379,21.646C-0.498,24.601 -0.588,28.537 -0.476,32.458C-0.323,37.816 3.921,41.836 8.971,42.29C15.037,42.836 25.078,43.747 35.451,44.72C37.275,44.891 38.672,46.424 38.672,48.262L38.672,48.989C38.229,49.011 37.822,49.036 37.448,49.064C34.416,49.289 32.203,51.526 31.913,54.511C31.715,56.539 31.545,59.583 31.545,64.054C31.545,68.526 31.715,71.569 31.913,73.598C32.203,76.582 34.416,78.819 37.448,79.045C38.663,79.135 40.231,79.2 42.236,79.2C44.241,79.2 45.809,79.135 47.024,79.045C50.056,78.819 52.269,76.582 52.56,73.598C52.757,71.569 52.927,68.526 52.927,64.054C52.927,59.583 52.757,56.539 52.56,54.511C52.269,51.526 50.056,49.289 47.024,49.064C46.65,49.036 46.243,49.011 45.8,48.989L45.8,48.262C45.8,42.751 41.609,38.139 36.116,37.624C25.731,36.649 15.68,35.738 9.609,35.192C7.864,35.034 6.69,33.717 6.648,32.255C6.542,28.556 6.628,24.797 6.742,21.931C6.775,21.111 7.459,20.4 8.411,20.4L11.979,20.4C12.008,21.917 12.056,23.216 12.113,24.322C12.334,28.621 15.36,31.84 19.689,32.205C23.77,32.549 30.676,32.872 42.236,32.872C53.797,32.872 60.702,32.549 64.783,32.205C69.112,31.84 72.138,28.621 72.36,24.322C72.457,22.431 72.527,19.979 72.527,16.836C72.527,13.693 72.457,11.241 72.36,9.35C72.138,5.052 69.112,1.832 64.783,1.467C60.702,1.123 53.797,0.8 42.236,0.8Z" fill="#4E4E4E"/>
</svg>
