<svg width="76" height="54" viewBox="0 0 76 54" fill="none" xmlns="http://www.w3.org/2000/svg" xmlns:xlink="http://www.w3.org/1999/xlink">
<path d="M65.512,-0.946C62.909,-1.096 58.493,-0.97 51.647,0.311C47.378,1.11 44.105,1.859 41.649,2.497C39.785,2.982 38.543,4.256 38.221,5.817C37.901,7.377 38.535,9.042 40.041,10.236C41.73,11.575 43.952,13.27 46.856,15.385C44.811,19.633 42.314,23.908 39.65,27.663C39.494,27.542 39.314,27.401 39.112,27.244C38.336,26.641 37.234,25.79 35.923,24.792C33.302,22.797 29.843,20.215 26.503,17.874C24.212,16.267 21.09,16.583 19.19,18.652C9.065,29.674 3.252,40.368 1.183,44.542C0.527,45.865 0.284,47.614 1.415,48.984C1.968,49.655 2.774,50.431 3.95,51.251C4.806,51.848 5.573,52.27 6.244,52.566C8.364,53.501 10.335,52.224 11.458,50.692C14.427,46.643 20.803,38.101 24.793,33.862C28.697,36.675 34.221,41.486 37.718,44.609C39.899,46.557 43.244,46.66 45.398,44.57C49.253,40.828 53.287,36.235 57.004,32.002L57.018,31.987C58.867,29.882 60.637,27.866 62.277,26.077C64.94,27.831 67.075,29.174 68.769,30.199C70.408,31.191 72.186,31.207 73.535,30.368C74.885,29.527 75.65,27.926 75.464,26.015C75.218,23.497 74.794,20.174 74.072,15.899C72.917,9.065 71.514,4.894 70.474,2.51C69.589,0.48 67.722,-0.818 65.512,-0.946Z" fill="#4E4E4E"/>
</svg>
