<svg width="72" height="76" viewBox="0 0 72 76" fill="none" xmlns="http://www.w3.org/2000/svg" xmlns:xlink="http://www.w3.org/1999/xlink">
<path d="M7.865,14.483L10.168,17.075L10.168,37.221C9.51,37.238 8.908,37.261 8.36,37.288C4.361,37.468 1.291,40.475 0.848,44.371C0.398,48.343 0.171,52.336 0.168,56.333C0.168,61.14 0.51,65.331 0.848,68.296C1.291,72.191 4.361,75.198 8.36,75.38C9.9,75.45 11.866,75.5 14.335,75.5C16.805,75.5 18.768,75.45 20.31,75.38C24.308,75.198 27.378,72.191 27.821,68.296C28.271,64.324 28.498,60.33 28.501,56.333C28.501,51.526 28.158,47.335 27.821,44.37C27.378,40.475 24.308,37.468 20.31,37.286C19.761,37.261 19.16,37.24 18.501,37.22L18.501,17.076L20.806,14.485C21.465,13.743 21.925,12.846 22.14,11.878C22.356,10.91 22.322,9.903 22.04,8.951L20.418,3.485C20.163,2.623 19.636,1.867 18.916,1.33C18.196,0.792 17.322,0.501 16.423,0.501L12.246,0.501C11.348,0.501 10.474,0.792 9.754,1.329C9.034,1.866 8.507,2.622 8.251,3.483L6.631,8.95C6.349,9.901 6.315,10.908 6.531,11.876C6.746,12.845 7.206,13.742 7.865,14.483ZM45.188,4.866C45.215,2.111 42.355,-0.314 39.411,1.133C31.968,4.8 26.835,12.466 26.835,21.333C26.835,29.89 31.613,37.328 38.635,41.13C38.796,48.27 39.148,58.513 39.921,69.06C40.138,72.006 42.198,74.861 45.576,75.276C46.633,75.406 47.896,75.5 49.335,75.5C50.775,75.5 52.036,75.406 53.095,75.276C56.473,74.863 58.533,72.006 58.748,69.06C59.521,58.515 59.873,48.27 60.035,41.131C63.604,39.202 66.586,36.343 68.663,32.857C70.74,29.372 71.836,25.389 71.835,21.331C71.835,12.471 66.713,4.811 59.278,1.145C56.366,-0.292 53.503,2.075 53.503,4.828L53.503,17.84C52.703,18.565 51.273,19.683 49.48,20.363C47.633,19.661 46.171,18.496 45.39,17.776C45.17,14.205 45.141,9.36 45.188,4.868L45.188,4.866Z" clip-rule="evenodd" fill-rule="evenodd" fill="#4E4E4E"/>
</svg>
