<svg width="80" height="76" viewBox="0 0 80 76" fill="none" xmlns="http://www.w3.org/2000/svg" xmlns:xlink="http://www.w3.org/1999/xlink">
<path d="M19.999,38L19.999,38.074C25.355,40.095 29.165,45.269 29.165,51.333C29.165,57.442 25.299,62.648 19.879,64.637C19.839,68.175 19.797,70.285 19.772,71.365C19.752,72.213 19.469,74.185 17.516,75.025C16.825,75.322 15.99,75.5 14.999,75.5C14.007,75.5 13.172,75.322 12.482,75.025C10.528,74.185 10.246,72.213 10.226,71.365C10.2,70.285 10.159,68.175 10.118,64.637C4.699,62.648 0.832,57.442 0.832,51.333C0.832,45.269 4.642,40.095 9.999,38.074L9.999,38C9.999,16.397 10.163,7.325 10.226,4.635C10.246,3.788 10.528,1.815 12.482,0.975C13.172,0.679 14.007,0.5 14.999,0.5C15.99,0.5 16.825,0.679 17.516,0.975C19.469,1.815 19.752,3.787 19.772,4.635C19.835,7.325 19.999,16.397 19.999,38ZM20.832,51.333C20.832,54.555 18.22,57.167 14.999,57.167C11.777,57.167 9.165,54.555 9.165,51.333C9.165,48.112 11.777,45.5 14.999,45.5C18.22,45.5 20.832,48.112 20.832,51.333ZM44.999,38C44.999,59.603 44.835,68.675 44.772,71.365C44.752,72.213 44.469,74.185 42.516,75.025C41.825,75.322 40.99,75.5 39.999,75.5C39.007,75.5 38.172,75.322 37.482,75.025C35.528,74.185 35.246,72.213 35.226,71.365C35.163,68.675 34.999,59.603 34.999,38L34.999,37.926C29.642,35.905 25.832,30.731 25.832,24.667C25.832,18.558 29.699,13.352 35.118,11.363C35.159,7.825 35.2,5.715 35.226,4.635C35.246,3.788 35.528,1.815 37.482,0.975C38.172,0.679 39.007,0.5 39.999,0.5C40.99,0.5 41.825,0.679 42.516,0.975C44.469,1.815 44.752,3.787 44.772,4.635C44.797,5.715 44.839,7.825 44.879,11.363C50.299,13.352 54.165,18.558 54.165,24.667C54.165,30.731 50.355,35.905 44.999,37.926L44.999,38ZM45.832,24.667C45.832,21.445 43.22,18.833 39.999,18.833C36.777,18.833 34.165,21.445 34.165,24.667C34.165,27.888 36.777,30.5 39.999,30.5C43.22,30.5 45.832,27.888 45.832,24.667ZM60.118,64.637C54.699,62.648 50.832,57.442 50.832,51.333C50.832,45.269 54.642,40.095 59.999,38.074L59.999,38C59.999,16.397 60.163,7.325 60.226,4.635C60.246,3.788 60.528,1.815 62.482,0.975C63.172,0.679 64.007,0.5 64.999,0.5C65.99,0.5 66.825,0.679 67.515,0.975C69.469,1.815 69.752,3.787 69.772,4.635C69.835,7.325 69.999,16.397 69.999,38L69.999,38.074C75.355,40.095 79.165,45.269 79.165,51.333C79.165,57.442 75.299,62.648 69.879,64.637C69.839,68.175 69.797,70.285 69.772,71.365C69.752,72.213 69.469,74.185 67.515,75.025C66.825,75.322 65.99,75.5 64.999,75.5C64.007,75.5 63.172,75.322 62.482,75.025C60.528,74.185 60.246,72.213 60.226,71.365C60.2,70.285 60.159,68.175 60.118,64.637ZM70.832,51.333C70.832,54.555 68.22,57.167 64.999,57.167C61.777,57.167 59.165,54.555 59.165,51.333C59.165,48.112 61.777,45.5 64.999,45.5C68.22,45.5 70.832,48.112 70.832,51.333Z" clip-rule="evenodd" fill-rule="evenodd" fill="#4E4E4E"/>
</svg>
