<svg width="78" height="78" viewBox="0 0 78 78" fill="none" xmlns="http://www.w3.org/2000/svg" xmlns:xlink="http://www.w3.org/1999/xlink">
<path d="M6.335,3C6.335,1.159 4.842,-0.333 3.001,-0.333C1.16,-0.333 -0.332,1.159 -0.332,3C-0.332,30.21 0.171,56.91 0.396,67.487C0.49,71.938 4.063,75.511 8.514,75.605C19.091,75.83 45.792,76.333 73.001,76.333C74.842,76.333 76.335,74.841 76.335,73C76.335,71.159 74.842,69.667 73.001,69.667C45.861,69.667 19.215,69.165 8.656,68.94C7.775,68.922 7.08,68.226 7.061,67.345C7.009,64.922 6.943,61.65 6.872,57.72C10.695,50.516 16.138,42.848 20.698,36.904C21.467,35.902 22.208,34.952 22.91,34.065C23.978,34.454 25.132,34.667 26.335,34.667C28.084,34.667 29.728,34.218 31.158,33.428C34.685,36.295 38.339,38.955 41.52,41.157C42.12,41.572 42.704,41.972 43.27,42.355C43.094,43.097 43.001,43.871 43.001,44.667C43.001,50.189 47.478,54.667 53.001,54.667C58.524,54.667 63.001,50.189 63.001,44.667C63.001,41.329 61.366,38.374 58.854,36.557C60.388,31.761 62.046,27.136 63.516,23.238C63.765,22.578 64.008,21.939 64.244,21.324C64.385,21.33 64.526,21.333 64.668,21.333C70.191,21.333 74.668,16.856 74.668,11.333C74.668,5.81 70.191,1.333 64.668,1.333C59.145,1.333 54.668,5.81 54.668,11.333C54.668,14.322 55.979,17.005 58.058,18.838C57.806,19.494 57.545,20.178 57.278,20.886C55.772,24.882 54.051,29.677 52.455,34.681C50.363,34.794 48.443,35.549 46.887,36.753C46.377,36.407 45.853,36.048 45.315,35.676C42.262,33.562 38.851,31.076 35.596,28.444C36.072,27.279 36.335,26.003 36.335,24.667C36.335,19.144 31.858,14.667 26.335,14.667C20.812,14.667 16.335,19.144 16.335,24.667C16.335,26.553 16.857,28.317 17.765,29.823C17.02,30.764 16.229,31.776 15.409,32.846C12.681,36.401 9.584,40.637 6.665,45.087C6.489,32.991 6.335,18.072 6.335,3Z" fill="#4E4E4E"/>
</svg>
