<svg width="80" height="78" viewBox="0 0 80 78" fill="none" xmlns="http://www.w3.org/2000/svg" xmlns:xlink="http://www.w3.org/1999/xlink">
<path d="M13.906,0.387C16.079,-1.563 19.549,-0.429 20.151,2.428C20.438,3.795 19.953,5.208 18.886,6.109C13.044,11.192 9.076,18.63 8.375,27.16C8.136,30.07 4.836,31.631 2.435,29.969C1.321,29.197 0.703,27.89 0.813,26.54C1.68,16.017 6.588,6.753 13.906,0.387ZM60.739,0.758C62.115,-0.822 64.51,-0.988 66.09,0.387C73.407,6.753 78.316,16.015 79.181,26.54C79.479,29.444 76.52,31.582 73.856,30.387C72.569,29.811 71.708,28.567 71.622,27.16C70.92,18.63 66.952,11.192 61.11,6.109C59.53,4.734 59.364,2.338 60.739,0.758ZM39.998,4.091C53.347,4.091 64.477,14.307 65.616,27.607L66.424,37.031C66.785,41.236 68.127,45.299 70.344,48.891L72.824,52.91C75.315,56.944 73.956,61.113 69.256,61.739C63.882,62.454 54.906,63.094 39.998,63.094C25.09,63.094 16.114,62.454 10.74,61.739C6.04,61.113 4.681,56.944 7.171,52.91L9.652,48.892C11.87,45.299 13.213,41.236 13.574,37.029L14.383,27.605C15.519,14.307 26.648,4.091 39.998,4.091ZM39.998,68.153C34.517,68.153 29.809,68.069 25.764,67.922C28.515,73.243 34.005,76.584 39.995,76.583C45.984,76.584 51.474,73.243 54.225,67.922C50.181,68.067 45.475,68.153 39.996,68.153L39.998,68.153Z" clip-rule="evenodd" fill-rule="evenodd" fill="#4E4E4E"/>
</svg>
