<svg width="80" height="80" viewBox="0 0 80 80" fill="none" xmlns="http://www.w3.org/2000/svg" xmlns:xlink="http://www.w3.org/1999/xlink">
<path d="M45.512,4.992C49.403,1.101 55.56,-0.833 60.855,2.551C63.456,4.213 66.574,6.603 69.989,10.018C73.403,13.431 75.793,16.547 77.456,19.146C80.842,24.443 78.906,30.602 75.014,34.493L73.872,35.635C71.178,31.375 66.982,25.795 60.574,19.389C54.187,13.004 48.625,8.821 44.373,6.13L45.512,4.992ZM2.759,47.906C1.976,48.997 1.424,50.289 1.258,51.726C0.881,54.978 0.432,61.876 1.303,73.222C1.528,76.142 3.852,78.466 6.772,78.691C18.122,79.562 25.022,79.113 28.274,78.737C29.71,78.57 31,78.019 32.09,77.238C29.116,73.099 24.514,67.217 18.639,61.343C12.773,55.477 6.898,50.88 2.759,47.906ZM56.931,23.032C63.601,29.699 67.694,35.357 70.13,39.376L35.85,73.648C32.752,69.384 28.127,63.546 22.281,57.701C16.443,51.864 10.612,47.244 6.349,44.146L40.631,9.871C44.644,12.304 50.283,16.386 56.931,23.032Z" clip-rule="evenodd" fill-rule="evenodd" fill="#4E4E4E"/>
</svg>
