<svg width="74" height="76" viewBox="0 0 74 76" fill="none" xmlns="http://www.w3.org/2000/svg" xmlns:xlink="http://www.w3.org/1999/xlink">
<path d="M35.998,0.5C21.503,0.5 9.42,11.593 8.182,26.033L7.382,35.35C7.059,39.119 5.856,42.759 3.87,45.978L1.42,49.952C-0.102,52.413 -0.65,55.258 0.307,57.778C1.3,60.4 3.687,62.065 6.745,62.472C12.208,63.198 21.202,63.833 35.998,63.833C50.795,63.833 59.788,63.198 65.253,62.472C68.31,62.065 70.697,60.4 71.69,57.778C72.647,55.258 72.098,52.412 70.578,49.952L68.127,45.978C66.14,42.759 64.937,39.119 64.613,35.35L63.815,26.033C62.578,11.595 50.493,0.5 35.998,0.5ZM32.665,13C32.665,12.116 33.016,11.268 33.641,10.643C34.267,10.018 35.114,9.667 35.998,9.667C45.787,9.667 53.537,17.762 54.322,27.738C54.391,28.62 54.108,29.493 53.533,30.165C52.959,30.837 52.142,31.254 51.26,31.323C50.379,31.393 49.506,31.109 48.834,30.535C48.161,29.961 47.745,29.143 47.675,28.262C47.125,21.27 41.842,16.333 35.998,16.333C35.114,16.333 34.267,15.982 33.641,15.357C33.016,14.732 32.665,13.884 32.665,13ZM35.998,68C30.805,68 26.305,67.922 22.405,67.788C23.81,70.14 25.801,72.088 28.183,73.439C30.566,74.791 33.259,75.501 35.998,75.5C38.738,75.501 41.431,74.791 43.814,73.439C46.196,72.088 48.187,70.14 49.592,67.788C45.692,67.922 41.192,68 35.998,68Z" clip-rule="evenodd" fill-rule="evenodd" fill="#4E4E4E"/>
</svg>
