<svg width="70" height="76" viewBox="0 0 70 76" fill="none" xmlns="http://www.w3.org/2000/svg" xmlns:xlink="http://www.w3.org/1999/xlink">
<path d="M41.499,0.5C42.082,0.5 42.654,0.502 43.213,0.506C43.046,4.174 43.354,8.865 43.689,12.618C44.199,18.318 48.683,22.801 54.383,23.309C58.709,23.696 64.281,24.046 68.094,23.676C68.139,25.752 68.165,28.022 68.165,30.5C68.165,40.058 67.777,46.538 67.375,50.692C66.904,55.548 63.24,59.248 58.382,59.753C54.652,60.14 49.135,60.5 41.499,60.5C33.863,60.5 28.345,60.14 24.616,59.753C19.757,59.248 16.094,55.548 15.623,50.692C15.22,46.538 14.832,40.058 14.832,30.5C14.832,20.942 15.22,14.462 15.623,10.309C16.094,5.452 19.757,1.752 24.616,1.247C28.345,0.86 33.863,0.5 41.499,0.5ZM59.687,8.95C63.938,13.185 66.075,16.568 67.134,18.742C63.944,18.986 59.097,18.71 54.828,18.329C51.537,18.035 48.964,15.462 48.67,12.172C48.325,8.315 48.067,3.986 48.2,0.834C50.026,1.474 54.122,3.406 59.687,8.95ZM9.832,30.5C9.832,24.687 9.973,19.971 10.177,16.19C9.986,16.209 9.799,16.228 9.616,16.247C4.757,16.752 1.094,20.452 0.623,25.309C0.22,29.462 -0.168,35.941 -0.168,45.5C-0.168,55.058 0.22,61.538 0.623,65.691C1.094,70.548 4.757,74.248 9.616,74.753C13.345,75.14 18.863,75.5 26.499,75.5C34.135,75.5 39.652,75.14 43.382,74.753C48.24,74.248 51.904,70.548 52.375,65.691C52.389,65.539 52.404,65.384 52.419,65.226C49.367,65.391 45.745,65.5 41.499,65.5C33.707,65.5 28.016,65.133 24.099,64.726C16.87,63.974 11.346,58.393 10.646,51.174C10.225,46.834 9.832,40.19 9.832,30.5Z" clip-rule="evenodd" fill-rule="evenodd" fill="#4E4E4E"/>
</svg>
