<svg width="76" height="66" viewBox="0 0 76 66" fill="none" xmlns="http://www.w3.org/2000/svg" xmlns:xlink="http://www.w3.org/1999/xlink">
<path d="M10.501,18.667C10.501,8.081 19.082,-0.5 29.667,-0.5C40.253,-0.5 48.834,8.081 48.834,18.667C48.834,25.451 45.31,31.411 39.992,34.818C48.031,37.821 54.324,44.002 56.864,51.772C58.736,57.5 54.501,62.475 49.2,63.257C44.826,63.903 38.253,64.5 28.901,64.5C19.549,64.5 12.977,63.903 8.603,63.257C3.302,62.475 -0.933,57.5 0.939,51.772C3.583,43.683 10.295,37.315 18.81,34.464C13.791,31.008 10.501,25.221 10.501,18.667ZM61.616,50.219C63.472,55.897 61.574,60.893 58.094,64.195C61.987,63.961 65.1,63.616 67.533,63.257C72.834,62.475 77.069,57.5 75.197,51.772C72.658,44.002 66.364,37.821 58.325,34.818C63.643,31.411 67.167,25.451 67.167,18.667C67.167,8.081 58.586,-0.5 48.001,-0.5C46.889,-0.5 45.8,-0.405 44.741,-0.224C50.283,4.204 53.833,11.021 53.833,18.667C53.833,24.315 51.894,29.509 48.651,33.621C54.685,37.56 59.359,43.313 61.616,50.219Z" clip-rule="evenodd" fill-rule="evenodd" fill="#4E4E4E"/>
</svg>
