<svg width="236" height="328" viewBox="0 0 236 328" fill="none" xmlns="http://www.w3.org/2000/svg" xmlns:xlink="http://www.w3.org/1999/xlink">
<path d="M84.643,60.054C71.062,60.054 60.053,71.063 60.053,84.643L60.053,146.571L-0.054,146.571L-0.054,84.643C-0.054,37.866 37.866,-0.054 84.643,-0.054L234,-0.054L234,60.054L84.643,60.054ZM150.215,147.482C163.795,147.482 174.804,136.473 174.804,122.893L174.804,111.964L234.91,111.964L234.91,122.893C234.91,169.669 196.991,207.588 150.215,207.588L60.965,207.588L60.965,147.482L150.215,147.482ZM60.053,243.106C60.053,256.688 71.062,267.696 84.643,267.696L97.393,267.696L97.393,327.804L84.643,327.804C37.866,327.804 -0.054,289.884 -0.054,243.106L-0.054,208.5L60.053,208.5L60.053,243.106Z" clip-rule="evenodd" fill-rule="evenodd" fill="url(#pf_0_19_196)"/>
<defs>
<linearGradient id="pf_0_19_196" x1="244" y1="-14" x2="11" y2="321" gradientUnits="userSpaceOnUse">
<stop stop-color="#FF5E5E"/>
<stop offset="1" stop-color="#993939"/>
</linearGradient>
</defs>
</svg>
