<svg width="72" height="80" viewBox="0 0 72 80" fill="none" xmlns="http://www.w3.org/2000/svg" xmlns:xlink="http://www.w3.org/1999/xlink">
<path d="M49.16,6.568C49.497,3.585 47.231,0.942 44.23,0.88C41.775,0.829 39.04,0.8 36,0.8C32.959,0.8 30.224,0.829 27.768,0.88C24.767,0.942 22.501,3.585 22.838,6.568L23.225,9.995C23.52,12.609 25.731,14.584 28.361,14.584L43.637,14.584C46.267,14.584 48.478,12.609 48.773,9.995L49.16,6.568ZM54.297,7.147C54.359,6.598 54.376,6.054 54.352,5.518C56.955,5.651 59.112,5.805 60.875,5.958C66.084,6.41 70.032,10.34 70.472,15.564C70.896,20.6 71.322,28.942 71.322,42.154C71.322,55.365 70.896,63.707 70.472,68.743C70.032,73.967 66.084,77.897 60.875,78.349C55.985,78.774 48.074,79.2 35.999,79.2C23.924,79.2 16.012,78.774 11.123,78.349C5.914,77.897 1.966,73.967 1.526,68.743C1.102,63.707 0.676,55.365 0.676,42.154C0.676,28.942 1.102,20.6 1.526,15.564C1.966,10.34 5.914,6.41 11.123,5.958C12.886,5.805 15.043,5.651 17.645,5.518C17.621,6.054 17.639,6.598 17.701,7.147L18.088,10.575C18.678,15.803 23.1,19.754 28.361,19.754L43.637,19.754C48.898,19.754 53.319,15.803 53.91,10.575L54.297,7.147ZM19.63,38.707C17.726,38.707 16.184,40.25 16.184,42.154C16.184,44.057 17.726,45.6 19.63,45.6L50.645,45.6C52.548,45.6 54.091,44.057 54.091,42.154C54.091,40.25 52.548,38.707 50.645,38.707L19.63,38.707ZM16.184,57.661C16.184,55.758 17.726,54.215 19.63,54.215L35.137,54.215C37.041,54.215 38.584,55.758 38.584,57.661C38.584,59.565 37.041,61.107 35.137,61.107L19.63,61.107C17.726,61.107 16.184,59.565 16.184,57.661Z" clip-rule="evenodd" fill-rule="evenodd" fill="#4E4E4E"/>
</svg>
