<svg width="80" height="80" viewBox="0 0 80 80" fill="none" xmlns="http://www.w3.org/2000/svg" xmlns:xlink="http://www.w3.org/1999/xlink">
<path d="M11.647,2.839C10.876,2.105 9.932,1.423 8.89,1.064C7.826,0.697 6.632,0.662 5.483,1.289C4.749,1.69 3.948,2.272 3.111,3.11C2.273,3.947 1.691,4.748 1.29,5.482C0.663,6.631 0.698,7.825 1.065,8.889C1.424,9.931 2.106,10.875 2.84,11.646C6.824,15.833 16.45,25.866 30.505,40C16.449,54.133 6.824,64.167 2.84,68.354C2.106,69.125 1.423,70.069 1.064,71.111C0.697,72.175 0.663,73.369 1.29,74.518C1.69,75.252 2.273,76.053 3.11,76.89C3.948,77.728 4.748,78.31 5.482,78.711C6.631,79.338 7.825,79.303 8.89,78.936C9.931,78.577 10.876,77.895 11.647,77.161C15.833,73.177 25.867,63.551 40.001,49.496C54.135,63.551 64.169,73.177 68.355,77.161C69.126,77.895 70.07,78.577 71.112,78.936C72.176,79.303 73.37,79.338 74.52,78.711C75.254,78.31 76.054,77.728 76.891,76.89C77.729,76.053 78.312,75.252 78.712,74.518C79.339,73.369 79.304,72.175 78.937,71.111C78.578,70.069 77.896,69.125 77.162,68.354C73.178,64.167 63.552,54.133 49.497,40C63.552,25.866 73.177,15.833 77.161,11.646C77.895,10.875 78.578,9.931 78.937,8.889C79.304,7.825 79.338,6.631 78.711,5.482C78.311,4.748 77.728,3.947 76.891,3.11C76.053,2.272 75.253,1.69 74.519,1.289C73.37,0.662 72.176,0.697 71.111,1.064C70.07,1.423 69.126,2.105 68.354,2.839C64.168,6.823 54.134,16.449 40.001,30.504C25.867,16.449 15.834,6.823 11.647,2.839Z" fill="#4E4E4E"/>
</svg>
