<svg width="76" height="76" viewBox="0 0 76 76" fill="none" xmlns="http://www.w3.org/2000/svg" xmlns:xlink="http://www.w3.org/1999/xlink">
<path d="M45.5,0.5C54.11,0.5 60.443,0.787 64.767,1.095C70.267,1.488 74.512,5.732 74.905,11.235C75.213,15.557 75.5,21.89 75.5,30.5C75.5,39.11 75.213,45.443 74.905,49.767C74.522,55.123 70.488,59.288 65.197,59.867C65.373,56.012 65.5,51.25 65.5,45.5C65.5,36.778 65.21,30.327 64.892,25.878C64.322,17.895 58.105,11.678 50.122,11.108C45.673,10.792 39.222,10.5 30.5,10.5C24.75,10.5 19.988,10.627 16.135,10.803C16.713,5.512 20.877,1.478 26.235,1.095C30.557,0.787 36.89,0.5 45.502,0.5L45.5,0.5ZM30.5,15.5C39.11,15.5 45.443,15.787 49.767,16.095C55.267,16.488 59.512,20.732 59.905,26.235C60.213,30.557 60.5,36.89 60.5,45.5C60.5,54.11 60.213,60.443 59.905,64.767C59.512,70.267 55.268,74.512 49.767,74.905C45.443,75.213 39.11,75.5 30.5,75.5C21.89,75.5 15.557,75.213 11.233,74.905C5.733,74.512 1.488,70.268 1.097,64.765C0.787,60.443 0.5,54.11 0.5,45.5C0.5,36.89 0.787,30.557 1.097,26.233C1.488,20.733 5.733,16.488 11.235,16.095C15.557,15.787 21.89,15.5 30.502,15.5L30.5,15.5ZM38.043,49.212C40.071,47.786 41.591,45.753 42.385,43.405C43.179,41.058 43.205,38.519 42.459,36.156C41.713,33.793 40.234,31.728 38.236,30.262C36.239,28.796 33.826,28.004 31.348,28.001C28.87,27.998 26.455,28.784 24.454,30.245C22.453,31.706 20.968,33.767 20.217,36.128C19.465,38.489 19.484,41.029 20.273,43.378C21.061,45.727 22.576,47.765 24.6,49.195C20.44,50.75 17.125,53.71 15.433,57.395C14.357,59.737 15.7,62.54 18.273,62.695L18.347,62.7C21.507,62.865 25.782,63 31.297,63C35.615,63.012 39.933,62.912 44.247,62.7L44.322,62.695C46.895,62.54 48.238,59.737 47.163,57.395C45.475,53.723 42.18,50.772 38.043,49.212Z" clip-rule="evenodd" fill-rule="evenodd" fill="#4E4E4E"/>
</svg>
