<svg width="76" height="72" viewBox="0 0 76 72" fill="none" xmlns="http://www.w3.org/2000/svg" xmlns:xlink="http://www.w3.org/1999/xlink">
<path d="M17.446,0.542C22.441,0.327 29.139,0.167 38,0.167C46.861,0.167 53.559,0.327 58.554,0.542C63.17,0.74 67.399,2.285 70.509,5.114C73.652,7.972 75.5,12.012 75.5,16.833C75.5,21.655 73.652,25.694 70.509,28.553C67.399,31.381 63.17,32.926 58.554,33.124C53.559,33.339 46.861,33.5 38,33.5C29.139,33.5 22.441,33.339 17.446,33.124C12.83,32.926 8.601,31.381 5.491,28.553C2.348,25.694 0.5,21.655 0.5,16.833C0.5,12.012 2.348,7.972 5.491,5.114C8.601,2.285 12.83,0.74 17.446,0.542ZM52.167,16.833C52.167,12.231 55.898,8.5 60.5,8.5C65.102,8.5 68.833,12.231 68.833,16.833C68.833,21.436 65.102,25.167 60.5,25.167C55.898,25.167 52.167,21.436 52.167,16.833ZM58.554,38.875C53.559,38.661 46.861,38.5 38,38.5C29.139,38.5 22.441,38.661 17.446,38.875C12.83,39.074 8.601,40.618 5.491,43.447C2.348,46.306 0.5,50.345 0.5,55.167C0.5,59.988 2.348,64.027 5.491,66.886C8.601,69.715 12.83,71.259 17.446,71.458C22.441,71.672 29.139,71.833 38,71.833C46.861,71.833 53.559,71.672 58.554,71.458C63.17,71.259 67.399,69.715 70.509,66.886C73.652,64.027 75.5,59.988 75.5,55.167C75.5,50.345 73.652,46.306 70.509,43.447C67.399,40.618 63.17,39.074 58.554,38.875ZM15.5,63.5C20.102,63.5 23.833,59.769 23.833,55.167C23.833,50.564 20.102,46.833 15.5,46.833C10.898,46.833 7.167,50.564 7.167,55.167C7.167,59.769 10.898,63.5 15.5,63.5Z" clip-rule="evenodd" fill-rule="evenodd" fill="#4E4E4E"/>
</svg>
