<svg width="40" height="42" viewBox="0 0 40 42" fill="none" xmlns="http://www.w3.org/2000/svg" xmlns:xlink="http://www.w3.org/1999/xlink">
<path d="M17.498,19L21.498,19L21.498,31L17.498,31L17.498,19ZM19.498,1C8.458,1 -0.502,9.96 -0.502,21C-0.502,32.04 8.458,41 19.498,41C30.538,41 39.498,32.04 39.498,21C39.498,9.96 30.538,1 19.498,1ZM19.498,37C10.678,37 3.498,29.82 3.498,21C3.498,12.18 10.678,5 19.498,5C28.318,5 35.498,12.18 35.498,21C35.498,29.82 28.318,37 19.498,37Z" fill="#10172D"/>
<path d="M21.498,13C21.498,14.105 20.603,15 19.498,15C18.393,15 17.498,14.105 17.498,13C17.498,11.895 18.393,11 19.498,11C20.603,11 21.498,11.895 21.498,13Z" fill="#10172D"/>
</svg>
