<svg width="28" height="28" viewBox="0 0 28 28" fill="none" xmlns="http://www.w3.org/2000/svg" xmlns:xlink="http://www.w3.org/1999/xlink">
<path d="M12,11.667L14.667,11.667L14.667,19.667L12,19.667L12,11.667ZM13.333,-0.333C5.973,-0.333 0,5.64 0,13C0,20.36 5.973,26.333 13.333,26.333C20.693,26.333 26.667,20.36 26.667,13C26.667,5.64 20.693,-0.333 13.333,-0.333ZM13.333,23.667C7.453,23.667 2.667,18.88 2.667,13C2.667,7.12 7.453,2.333 13.333,2.333C19.213,2.333 24,7.12 24,13C24,18.88 19.213,23.667 13.333,23.667Z" fill="#535C68"/>
<path d="M14.667,7.667C14.667,8.403 14.07,9 13.333,9C12.597,9 12,8.403 12,7.667C12,6.93 12.597,6.333 13.333,6.333C14.07,6.333 14.667,6.93 14.667,7.667Z" fill="#535C68"/>
</svg>
