<svg width="28" height="28" viewBox="0 0 28 28" fill="none" xmlns="http://www.w3.org/2000/svg" xmlns:xlink="http://www.w3.org/1999/xlink">
<path d="M12.168,11.667L14.835,11.667L14.835,19.667L12.168,19.667L12.168,11.667ZM13.501,-0.333C6.141,-0.333 0.168,5.64 0.168,13C0.168,20.36 6.141,26.333 13.501,26.333C20.861,26.333 26.835,20.36 26.835,13C26.835,5.64 20.861,-0.333 13.501,-0.333ZM13.501,23.667C7.621,23.667 2.835,18.88 2.835,13C2.835,7.12 7.621,2.333 13.501,2.333C19.381,2.333 24.168,7.12 24.168,13C24.168,18.88 19.381,23.667 13.501,23.667Z" fill="#535C68"/>
<path d="M14.835,7.667C14.835,8.403 14.238,9 13.501,9C12.765,9 12.168,8.403 12.168,7.667C12.168,6.93 12.765,6.333 13.501,6.333C14.238,6.333 14.835,6.93 14.835,7.667Z" fill="#535C68"/>
</svg>
