<svg width="28" height="28" viewBox="0 0 28 28" fill="none" xmlns="http://www.w3.org/2000/svg" xmlns:xlink="http://www.w3.org/1999/xlink">
<path d="M12.668,11.667L15.335,11.667L15.335,19.667L12.668,19.667L12.668,11.667ZM14.001,-0.333C6.641,-0.333 0.668,5.64 0.668,13C0.668,20.36 6.641,26.333 14.001,26.333C21.361,26.333 27.335,20.36 27.335,13C27.335,5.64 21.361,-0.333 14.001,-0.333ZM14.001,23.667C8.121,23.667 3.335,18.88 3.335,13C3.335,7.12 8.121,2.333 14.001,2.333C19.881,2.333 24.668,7.12 24.668,13C24.668,18.88 19.881,23.667 14.001,23.667Z" fill="#535C68"/>
<path d="M15.335,7.667C15.335,8.403 14.738,9 14.001,9C13.265,9 12.668,8.403 12.668,7.667C12.668,6.93 13.265,6.333 14.001,6.333C14.738,6.333 15.335,6.93 15.335,7.667Z" fill="#535C68"/>
</svg>
