<svg width="28" height="28" viewBox="0 0 28 28" fill="none" xmlns="http://www.w3.org/2000/svg" xmlns:xlink="http://www.w3.org/1999/xlink">
<path d="M11.336,11.667L14.003,11.667L14.003,19.667L11.336,19.667L11.336,11.667ZM12.669,-0.333C5.309,-0.333 -0.664,5.64 -0.664,13C-0.664,20.36 5.309,26.333 12.669,26.333C20.029,26.333 26.003,20.36 26.003,13C26.003,5.64 20.029,-0.333 12.669,-0.333ZM12.669,23.667C6.789,23.667 2.003,18.88 2.003,13C2.003,7.12 6.789,2.333 12.669,2.333C18.549,2.333 23.336,7.12 23.336,13C23.336,18.88 18.549,23.667 12.669,23.667Z" fill="#535C68"/>
<path d="M14.003,7.667C14.003,8.403 13.406,9 12.669,9C11.933,9 11.336,8.403 11.336,7.667C11.336,6.93 11.933,6.333 12.669,6.333C13.406,6.333 14.003,6.93 14.003,7.667Z" fill="#535C68"/>
</svg>
