<svg width="28" height="28" viewBox="0 0 28 28" fill="none" xmlns="http://www.w3.org/2000/svg" xmlns:xlink="http://www.w3.org/1999/xlink">
<path d="M12.668,12.667L15.335,12.667L15.335,20.667L12.668,20.667L12.668,12.667ZM14.001,0.667C6.641,0.667 0.668,6.64 0.668,14C0.668,21.36 6.641,27.333 14.001,27.333C21.361,27.333 27.335,21.36 27.335,14C27.335,6.64 21.361,0.667 14.001,0.667ZM14.001,24.667C8.121,24.667 3.335,19.88 3.335,14C3.335,8.12 8.121,3.333 14.001,3.333C19.881,3.333 24.668,8.12 24.668,14C24.668,19.88 19.881,24.667 14.001,24.667Z" fill="#535C68"/>
<path d="M15.335,8.667C15.335,9.403 14.738,10 14.001,10C13.265,10 12.668,9.403 12.668,8.667C12.668,7.93 13.265,7.333 14.001,7.333C14.738,7.333 15.335,7.93 15.335,8.667Z" fill="#535C68"/>
</svg>
