<svg width="40" height="42" viewBox="0 0 40 42" fill="none" xmlns="http://www.w3.org/2000/svg" xmlns:xlink="http://www.w3.org/1999/xlink">
<path d="M17,19L21,19L21,31L17,31L17,19ZM19,1C7.96,1 -1,9.96 -1,21C-1,32.04 7.96,41 19,41C30.04,41 39,32.04 39,21C39,9.96 30.04,1 19,1ZM19,37C10.18,37 3,29.82 3,21C3,12.18 10.18,5 19,5C27.82,5 35,12.18 35,21C35,29.82 27.82,37 19,37Z" fill="#10172D"/>
<path d="M21,13C21,14.105 20.105,15 19,15C17.895,15 17,14.105 17,13C17,11.895 17.895,11 19,11C20.105,11 21,11.895 21,13Z" fill="#10172D"/>
</svg>
