<svg width="236" height="312" viewBox="0 0 236 312" fill="none" xmlns="http://www.w3.org/2000/svg" xmlns:xlink="http://www.w3.org/1999/xlink">
<path d="M80.663,66.172C72.66,66.172 66.172,72.66 66.172,80.663L66.172,135.828L0,135.828L0,80.663C0,36.114 36.114,0 80.663,0L235.086,0L235.086,66.172L80.663,66.172ZM168.915,119.595L168.915,111.448L235.088,111.448L235.088,119.595C235.088,164.144 198.973,200.258 154.424,200.258L66.173,200.258L66.173,134.086L154.424,134.086C162.427,134.086 168.915,127.598 168.915,119.595ZM0,231.044L0,200.912L66.172,200.912L66.172,231.044C66.172,239.046 72.66,245.534 80.663,245.534L91.764,245.534L91.764,311.706L80.663,311.706C36.114,311.706 0,275.592 0,231.044Z" clip-rule="evenodd" fill-rule="evenodd" fill="url(#pf_0_19_361)"/>
<defs>
<linearGradient id="pf_0_19_361" x1="244.181" y1="-13.259" x2="11.059" y2="305.238" gradientUnits="userSpaceOnUse">
<stop stop-color="#A855EE"/>
<stop offset="1" stop-color="#334BC9"/>
</linearGradient>
</defs>
</svg>
