<svg width="40" height="42" viewBox="0 0 40 42" fill="none" xmlns="http://www.w3.org/2000/svg" xmlns:xlink="http://www.w3.org/1999/xlink">
<path d="M18,19L22,19L22,31L18,31L18,19ZM20,1C8.96,1 0,9.96 0,21C0,32.04 8.96,41 20,41C31.04,41 40,32.04 40,21C40,9.96 31.04,1 20,1ZM20,37C11.18,37 4,29.82 4,21C4,12.18 11.18,5 20,5C28.82,5 36,12.18 36,21C36,29.82 28.82,37 20,37Z" fill="#10172D"/>
<path d="M22,13C22,14.105 21.105,15 20,15C18.895,15 18,14.105 18,13C18,11.895 18.895,11 20,11C21.105,11 22,11.895 22,13Z" fill="#10172D"/>
</svg>
