<svg width="40" height="42" viewBox="0 0 40 42" fill="none" xmlns="http://www.w3.org/2000/svg" xmlns:xlink="http://www.w3.org/1999/xlink">
<path d="M17.496,19L21.496,19L21.496,31L17.496,31L17.496,19ZM19.496,1C8.456,1 -0.504,9.96 -0.504,21C-0.504,32.04 8.456,41 19.496,41C30.536,41 39.496,32.04 39.496,21C39.496,9.96 30.536,1 19.496,1ZM19.496,37C10.676,37 3.496,29.82 3.496,21C3.496,12.18 10.676,5 19.496,5C28.316,5 35.496,12.18 35.496,21C35.496,29.82 28.316,37 19.496,37Z" fill="#10172D"/>
<path d="M21.496,13C21.496,14.105 20.601,15 19.496,15C18.392,15 17.496,14.105 17.496,13C17.496,11.895 18.392,11 19.496,11C20.601,11 21.496,11.895 21.496,13Z" fill="#10172D"/>
</svg>
