<svg width="238" height="312" viewBox="0 0 238 312" fill="none" xmlns="http://www.w3.org/2000/svg" xmlns:xlink="http://www.w3.org/1999/xlink">
<path d="M81.577,65.319C73.574,65.319 67.086,71.807 67.086,79.81L67.086,134.974L0.914,134.974L0.914,79.81C0.914,35.261 37.028,-0.853 81.577,-0.853L236,-0.853L236,65.319L81.577,65.319ZM169.829,118.742L169.829,110.595L236.002,110.595L236.002,118.742C236.002,163.291 199.887,199.405 155.338,199.405L67.087,199.405L67.087,133.233L155.338,133.233C163.341,133.233 169.829,126.745 169.829,118.742ZM0.914,230.191L0.914,200.059L67.086,200.059L67.086,230.191C67.086,238.193 73.574,244.681 81.577,244.681L92.678,244.681L92.678,310.853L81.577,310.853C37.028,310.853 0.914,274.739 0.914,230.191Z" clip-rule="evenodd" fill-rule="evenodd" fill="url(#pf_0_19_36)"/>
<defs>
<linearGradient id="pf_0_19_36" x1="245.095" y1="-14.113" x2="11.974" y2="304.385" gradientUnits="userSpaceOnUse">
<stop stop-color="#FF5E5E"/>
<stop offset="1" stop-color="#993939"/>
</linearGradient>
</defs>
</svg>
