<svg width="28" height="28" viewBox="0 0 28 28" fill="none" xmlns="http://www.w3.org/2000/svg" xmlns:xlink="http://www.w3.org/1999/xlink">
<path d="M11.668,11.667L14.335,11.667L14.335,19.667L11.668,19.667L11.668,11.667ZM13.001,-0.333C5.641,-0.333 -0.332,5.64 -0.332,13C-0.332,20.36 5.641,26.333 13.001,26.333C20.361,26.333 26.335,20.36 26.335,13C26.335,5.64 20.361,-0.333 13.001,-0.333ZM13.001,23.667C7.121,23.667 2.335,18.88 2.335,13C2.335,7.12 7.121,2.333 13.001,2.333C18.881,2.333 23.668,7.12 23.668,13C23.668,18.88 18.881,23.667 13.001,23.667Z" fill="#535C68"/>
<path d="M14.335,7.667C14.335,8.403 13.738,9 13.001,9C12.265,9 11.668,8.403 11.668,7.667C11.668,6.93 12.265,6.333 13.001,6.333C13.738,6.333 14.335,6.93 14.335,7.667Z" fill="#535C68"/>
</svg>
