<svg width="34" height="10" viewBox="0 0 34 10" fill="none" xmlns="http://www.w3.org/2000/svg" xmlns:xlink="http://www.w3.org/1999/xlink">
<path d="M8.05,9.678L5.264,9.678L3.174,1.59C3.075,1.218 2.864,0.889 2.554,0.734C1.781,0.344 0.929,0.034 0,-0.122L0,-0.434L4.489,-0.434C5.109,-0.434 5.573,0.034 5.651,0.577L6.735,6.411L9.52,-0.434L12.23,-0.434L8.05,9.678ZM13.779,9.678L11.147,9.678L13.314,-0.434L15.946,-0.434L13.779,9.678ZM19.351,2.368C19.428,1.823 19.893,1.512 20.435,1.512C21.287,1.433 22.215,1.59 22.989,1.978L23.454,-0.199C22.68,-0.51 21.828,-0.667 21.055,-0.667C18.5,-0.667 16.641,0.734 16.641,2.678C16.641,4.156 17.958,4.933 18.887,5.4C19.893,5.867 20.28,6.178 20.203,6.645C20.203,7.344 19.428,7.656 18.655,7.656C17.726,7.656 16.796,7.422 15.946,7.033L15.481,9.211C16.41,9.599 17.416,9.756 18.345,9.756C21.209,9.833 22.989,8.433 22.989,6.333C22.989,3.689 19.351,3.534 19.351,2.368L19.351,2.368ZM32.2,9.678L30.11,-0.434L27.866,-0.434C27.401,-0.434 26.936,-0.122 26.781,0.344L22.912,9.678L25.621,9.678L26.162,8.2L29.491,8.2L29.801,9.678L32.2,9.678ZM28.253,2.289L29.026,6.1L26.859,6.1L28.253,2.289Z" clip-rule="evenodd" fill-rule="evenodd" fill="#172B85"/>
</svg>
